<?xml version="1.0" standalone="no"?>
<!DOCTYPE svg PUBLIC "-//W3C//DTD SVG 1.1//EN" "http://www.w3.org/Graphics/SVG/1.1/DTD/svg11.dtd" >
<svg xmlns="http://www.w3.org/2000/svg" xmlns:xlink="http://www.w3.org/1999/xlink" version="1.1">
<metadata></metadata>
<defs>
<font id="gilroythin" horiz-adv-x="1149" >
<font-face units-per-em="2048" ascent="1638" descent="-410" />
<missing-glyph horiz-adv-x="638" />
<glyph unicode="&#xfb01;" horiz-adv-x="1061" d="M63 1026v39h193v85q0 362 380 362q111 0 214 -21v-38q-102 21 -214 21q-176 0 -257 -79.5t-81 -244.5v-85h574v-1065h-43v1026h-531v-1026h-42v1026h-193z" />
<glyph unicode="&#xfb02;" horiz-adv-x="1061" d="M63 1026v39h193v85q-1 362 380 362q111 0 236 -21v-1491h-43v1459q-77 15 -193 15q-176 0 -257 -79.5t-81 -244.5v-85h275v-39h-275v-1026h-42v1026h-193z" />
<glyph horiz-adv-x="0" />
<glyph unicode="&#xd;" horiz-adv-x="708" />
<glyph unicode=" "  horiz-adv-x="638" />
<glyph unicode="&#x09;" horiz-adv-x="638" />
<glyph unicode="&#xa0;" horiz-adv-x="638" />
<glyph unicode="!" horiz-adv-x="425" d="M160 31.5q0 23.5 15.5 38.5t37 15t37.5 -15t16 -38.5t-16 -38t-37.5 -14.5t-37 14.5t-15.5 38zM191 341v1150h43v-1150h-43z" />
<glyph unicode="&#x22;" horiz-adv-x="553" d="M128 1150v341h43v-341h-43zM384 1150v341h42v-341h-42z" />
<glyph unicode="#" horiz-adv-x="1303" d="M106 532l7 43h255l56 341h-256l7 43h258l69 425h43l-70 -425h426l70 425h43l-71 -425h254l-6 -43h-256l-55 -341h256l-10 -43h-254l-71 -426h-43l71 426h-427l-70 -426h-42l70 426h-254zM411 575h426l55 341h-425z" />
<glyph unicode="$" horiz-adv-x="1171" d="M106 264l36 21q37 -130 156 -199t290 -69h6v722q-83 29 -132 46.5t-113 53t-98 72t-59.5 95.5t-25.5 132q0 158 122.5 266t305.5 108v192h42v-194q293 -17 386 -256l-34 -18q-83 217 -352 236v-706q84 -30 136.5 -49.5t113.5 -56t96.5 -74t59 -93.5t23.5 -127 q0 -164 -115 -268t-314 -117v-194h-42v192h-6q-183 0 -312 75.5t-170 209.5zM209 1138q0 -79 29.5 -139t95.5 -101.5t115 -63t145 -54.5v694q-175 0 -280 -101t-105 -235zM636 19q188 12 287 109.5t99 237.5t-96.5 217t-289.5 141v-705z" />
<glyph unicode="%" horiz-adv-x="1551" d="M149 1197q0 134 93 224.5t233.5 90.5t233 -90.5t92.5 -224.5t-91.5 -224.5t-234.5 -90.5q-140 0 -233 90.5t-93 224.5zM191 1197q0 -120 81.5 -198.5t202.5 -78.5q124 0 203.5 78.5t79.5 198.5t-81 198.5t-202 78.5t-202.5 -78.5t-81.5 -198.5zM242 171l1034 1169l34 -19 l-1035 -1170zM752 294q0 134 92.5 224.5t233 90.5t233.5 -90.5t93 -224.5t-93 -224.5t-233.5 -90.5t-233 90.5t-92.5 224.5zM795 294q0 -119 81 -198t202 -79t202 79t81 198t-81 198t-202 79t-202 -79t-81 -198z" />
<glyph unicode="&#x26;" horiz-adv-x="1386" d="M149 396q0 145 84 262t231 179q-138 153 -138 309q0 162 117.5 264t295.5 102q139 0 241 -67t144 -189l-33 -18q-39 108 -129 172t-223 64q-170 0 -270.5 -95t-100.5 -237q0 -100 51.5 -178t161.5 -191l494 -501q84 130 110 322l36 -21q-30 -191 -115 -333l217 -219 l-37 -21l-204 207q-167 -228 -460 -228q-222 0 -347.5 114t-125.5 303zM191 394q0 -175 116.5 -276t312.5 -101q276 0 432 221l-501 510q-40 40 -57 59q-147 -57 -225 -168t-78 -245z" />
<glyph unicode="'" horiz-adv-x="276" d="M128 1150v341h43v-341h-43z" />
<glyph unicode="(" horiz-adv-x="532" d="M128 746q0 490 234 958h43q-234 -470 -234 -959t234 -958h-43q-234 469 -234 959z" />
<glyph unicode=")" horiz-adv-x="532" d="M128 -213q234 469 234 959t-234 958h43q234 -470 234 -959t-234 -958h-43z" />
<glyph unicode="*" horiz-adv-x="800" d="M149 1270v37l219 -2l-116 186l33 21l115 -189l116 189l33 -21l-116 -186l219 2v-37l-219 2l116 -186l-33 -21l-116 189l-115 -189l-33 21l116 186z" />
<glyph unicode="+" horiz-adv-x="1106" d="M149 726v38h383v386h43v-386h384v-38h-384v-385h-43v385h-383z" />
<glyph unicode="," horiz-adv-x="404" d="M138 -298l73 373h55l-89 -373h-39z" />
<glyph unicode="-" horiz-adv-x="1191" d="M213 639v38h767v-38h-767z" />
<glyph unicode="." horiz-adv-x="382" d="M138 31.5q0 23.5 16.5 38.5t37.5 15t37 -15t16 -38.5t-16 -38t-37 -14.5t-37.5 14.5t-16.5 38z" />
<glyph unicode="/" horiz-adv-x="1106" d="M106 -213l853 1917h43l-853 -1917h-43z" />
<glyph unicode="0" horiz-adv-x="1341" d="M128 745.5q0 349.5 144.5 558t398.5 208.5t398.5 -208.5t144.5 -558t-144.5 -558t-398.5 -208.5t-398.5 208.5t-144.5 558zM171 745.5q0 -338.5 135 -533.5t365 -195t365 195t135 533.5t-135 533.5t-365 195t-365 -195t-135 -533.5z" />
<glyph unicode="1" horiz-adv-x="672" d="M43 1359l385 132h32v-1491h-43v1447l-364 -124z" />
<glyph unicode="2" horiz-adv-x="1128" d="M106 0v38l567 605q264 283 264 475q0 158 -104.5 257t-279.5 99q-292 0 -402 -256l-33 22q55 128 169.5 200t265.5 72q183 0 305 -106.5t122 -287.5q0 -205 -279 -502l-539 -578h860v-38h-916z" />
<glyph unicode="3" horiz-adv-x="1185" d="M118 240l33 22q49 -113 160 -179t268 -66q196 0 316.5 116.5t120.5 293t-122.5 292.5t-324.5 116h-13l-17 25l388 593h-785v38h831v-38l-379 -579q203 -9 334 -132.5t131 -315.5q0 -197 -137.5 -322t-342.5 -125q-164 0 -285 70.5t-176 190.5z" />
<glyph unicode="4" horiz-adv-x="1191" d="M75 341v39l587 1111h47l-587 -1111h783v494h42v-494h193v-39h-193v-341h-42v341h-830z" />
<glyph unicode="5" horiz-adv-x="1156" d="M118 245l33 21q49 -115 157.5 -182t262.5 -67q203 0 325 116.5t122 293t-122.5 292.5t-324.5 116h-386l45 656h766v-38h-730l-38 -579h343q213 0 351.5 -125t138.5 -323t-138.5 -322.5t-351.5 -124.5q-158 0 -278 71.5t-175 194.5z" />
<glyph unicode="6" horiz-adv-x="1171" d="M85 469q0 166 92 295l522 727h47l-431 -603q122 71 271 71q219 0 359.5 -138t140.5 -352.5t-140.5 -352t-360 -137.5t-360 137.5t-140.5 352.5zM128 468.5q0 -193.5 123 -322.5t334.5 -129t335 129t123.5 322.5t-123.5 322.5t-335 129t-334.5 -129t-123 -322.5z" />
<glyph unicode="7" horiz-adv-x="1043" d="M63 1453v38h874v-38l-611 -1453h-43l613 1453h-833z" />
<glyph unicode="8" horiz-adv-x="1179" d="M106 384q0 148 86.5 249.5t240.5 137.5q-130 38 -205 133t-75 226q0 169 121.5 275.5t315.5 106.5t315 -106.5t121 -275.5q0 -132 -74 -226.5t-204 -132.5q153 -37 239 -138t86 -249q0 -185 -131 -295t-352.5 -110t-352.5 109.5t-131 295.5zM149 383.5 q0 -161.5 115.5 -264t326 -102.5t325.5 102.5t115 264t-115 264t-325.5 102.5t-326 -102.5t-115.5 -264zM196 1131q0 -147 104.5 -245t289.5 -98t289.5 98t104.5 245t-104.5 245t-289.5 98t-289.5 -98t-104.5 -245z" />
<glyph unicode="9" horiz-adv-x="1171" d="M85 1022.5q0 215.5 140.5 352.5t360 137t360 -137t140.5 -353q0 -166 -92 -296l-521 -726h-47l430 603q-122 -71 -270 -71q-220 0 -360.5 137.5t-140.5 353zM128 1022.5q0 -193.5 123 -322.5t334.5 -129t335 129t123.5 322.5t-123.5 322.5t-335 129t-334.5 -129 t-123 -322.5z" />
<glyph unicode=":" horiz-adv-x="382" d="M138 31.5q0 23.5 16.5 38.5t37.5 15t37 -15t16 -38.5t-16 -38t-37 -14.5t-37.5 14.5t-16.5 38zM138 968.5q0 23.5 16.5 38.5t37.5 15t37 -15t16 -38.5t-16 -38t-37 -14.5t-37.5 14.5t-16.5 38z" />
<glyph unicode=";" horiz-adv-x="425" d="M138 -298l73 373h55l-89 -373h-39zM181 968.5q0 23.5 16 38.5t37.5 15t37 -15t15.5 -38.5t-15.5 -38t-37 -14.5t-37.5 14.5t-16 38z" />
<glyph unicode="&#x3c;" d="M149 726v38l853 390v-42l-806 -366l806 -366v-43z" />
<glyph unicode="=" horiz-adv-x="1128" d="M149 514v37h831v-37h-831zM149 939v39h831v-39h-831z" />
<glyph unicode="&#x3e;" d="M149 337v43l806 366l-806 366v42l853 -390v-38z" />
<glyph unicode="?" horiz-adv-x="1120" d="M128 1248q43 118 162 191t266 73q192 0 303.5 -96.5t111.5 -265.5q0 -85 -42.5 -167t-104.5 -150.5t-123.5 -139.5t-104.5 -162.5t-43 -189.5h-41q0 102 42 196.5t104 166t123.5 140t104.5 147t43 159.5q0 147 -95 235.5t-278 88.5q-140 0 -247.5 -69.5t-144.5 -175.5z M479 31.5q0 23.5 16.5 38.5t37 15t37 -15t16.5 -38.5t-16.5 -38t-37 -14.5t-37 14.5t-16.5 38z" />
<glyph unicode="@" horiz-adv-x="1776" d="M128 532q0 322 222.5 546.5t552.5 224.5q225 0 400 -109.5t260 -273.5t85 -345q0 -226 -79.5 -328t-196.5 -102q-98 0 -144 61.5t-46 149.5v28q-38 -88 -118 -140.5t-184 -52.5q-147 0 -246 98.5t-99 243t99 243t246 98.5q104 0 184 -52.5t118 -140.5v177h43v-502 q0 -81 38 -127t109 -46q110 0 172 103.5t62 288.5q0 292 -203.5 491.5t-499.5 199.5q-309 0 -520.5 -212.5t-211.5 -521.5q0 -317 218 -525t552 -208q209 0 356 56l15 -36q-160 -57 -371 -57q-349 0 -581 218t-232 552zM577 532q0 -130 86.5 -216t216.5 -86t216 86t86 216 t-86 216.5t-216 86.5t-216.5 -86.5t-86.5 -216.5z" />
<glyph unicode="A" horiz-adv-x="1337" d="M53 0l590 1491h52l589 -1491h-44l-160 407h-822l-160 -407h-45zM272 445h793l-396 1002z" />
<glyph unicode="B" horiz-adv-x="1341" d="M213 0v1491h584q156 0 265 -110.5t109 -264.5q0 -120 -68 -215.5t-178 -134.5q134 -28 222.5 -133t88.5 -243q0 -162 -114 -276t-276 -114h-633zM256 38h590q142 0 244.5 103.5t102.5 248.5t-102.5 248.5t-244.5 103.5h-590v-704zM256 780h541q136 0 233.5 99t97.5 237 t-97.5 237.5t-233.5 99.5h-541v-673z" />
<glyph unicode="C" horiz-adv-x="1626" d="M128 745.5q0 321.5 218.5 544t547.5 222.5q198 0 365.5 -92.5t260.5 -250.5l-36 -21q-87 149 -244.5 237.5t-345.5 88.5q-313 0 -518 -211t-205 -517.5t205 -517.5t518 -211q194 0 355 93t244 248l39 -21q-92 -164 -262.5 -261t-375.5 -97q-329 0 -547.5 222.5 t-218.5 544z" />
<glyph unicode="D" horiz-adv-x="1575" d="M213 0v1491h533q304 0 503.5 -216t199.5 -529t-199.5 -529.5t-503.5 -216.5h-533zM256 38h490q287 0 473.5 204.5t186.5 503t-186.5 503t-473.5 204.5h-490v-1415z" />
<glyph unicode="E" d="M213 0v1491h820v-38h-777v-682h724v-38h-724v-695h788v-38h-831z" />
<glyph unicode="F" horiz-adv-x="1118" d="M213 0v1491h799v-38h-756v-691h746v-38h-746v-724h-43z" />
<glyph unicode="G" horiz-adv-x="1746" d="M128 746q0 321 218.5 543.5t547.5 222.5q201 0 370 -95.5t261 -255.5l-36 -21q-85 153 -245 243.5t-350 90.5q-313 0 -518 -211t-205 -517.5t209.5 -517.5t535.5 -211q290 0 472.5 175.5t190.5 435.5h-707v39h746v-21q0 -281 -195.5 -474t-506.5 -193 q-345 0 -566.5 221.5t-221.5 545.5z" />
<glyph unicode="H" horiz-adv-x="1490" d="M213 0v1491h43v-705h980v705h42v-1491h-42v748h-980v-748h-43z" />
<glyph unicode="I" horiz-adv-x="468" d="M213 0v1491h43v-1491h-43z" />
<glyph unicode="J" horiz-adv-x="1179" d="M106 219l34 21q94 -223 390 -223q194 0 304.5 102.5t110.5 264.5v1107h43v-1107q0 -183 -127.5 -294t-330.5 -111q-156 0 -265 63.5t-159 176.5z" />
<glyph unicode="K" horiz-adv-x="1181" d="M213 0v1491h43v-713l826 713h58l-837 -725l858 -766h-58l-847 756v-756h-43z" />
<glyph unicode="L" horiz-adv-x="1064" d="M213 0v1491h43v-1453h746v-38h-789z" />
<glyph unicode="M" horiz-adv-x="1746" d="M213 0v1491h55l606 -985l604 985h56v-1491h-43v1433l-609 -988h-18l-608 988v-1433h-43z" />
<glyph unicode="N" horiz-adv-x="1490" d="M213 0v1491h43l980 -1418v1418h42v-1491h-42l-980 1419v-1419h-43z" />
<glyph unicode="O" horiz-adv-x="1788" d="M128 745.5q0 317.5 224.5 542t542 224.5t542 -224.5t224.5 -542t-224.5 -542t-542 -224.5t-542 224.5t-224.5 542zM171 745.5q0 -302.5 211.5 -515.5t512 -213t512 213t211.5 515.5t-211.5 515.5t-512 213t-512 -213t-211.5 -515.5z" />
<glyph unicode="P" horiz-adv-x="1234" d="M213 0v1491h458q197 0 327 -127.5t130 -319.5t-129.5 -320t-327.5 -128h-415v-596h-43zM256 634h415q181 0 298 116.5t117 293.5t-117 293t-298 116h-415v-819z" />
<glyph unicode="Q" horiz-adv-x="1799" d="M128 745.5q0 317.5 224.5 542t542 224.5t542 -224.5t224.5 -541.5q0 -169 -68 -319t-189 -256l185 -183l-28 -29l-187 188q-208 -168 -477 -168h-3q-317 0 -541.5 224.5t-224.5 542zM171 745.5q0 -302.5 211.5 -515.5t511.5 -213q252 0 450 158l-340 339l27 25l343 -338 q115 100 179.5 242.5t64.5 302.5q0 302 -211.5 515t-512 213t-512 -213t-211.5 -515.5z" />
<glyph unicode="R" horiz-adv-x="1319" d="M213 0v1491h575q175 0 300.5 -125.5t125.5 -300.5q0 -151 -97 -269.5t-243 -147.5l382 -648h-46l-379 641q-13 -2 -43 -2h-532v-639h-43zM256 677h532q158 0 270.5 114t112.5 274t-113 274t-270 114h-532v-776z" />
<glyph unicode="S" horiz-adv-x="1213" d="M118 307l35 21q38 -139 167 -225t323 -86q207 0 314.5 101t107.5 254q0 137 -109.5 219t-319.5 144q-113 33 -184.5 62.5t-140.5 74t-101.5 108.5t-32.5 146q0 163 122.5 274.5t316.5 111.5q170 0 284 -83t165 -217l-34 -19q-109 281 -415 281q-185 0 -291 -104 t-106 -244q0 -61 25.5 -111t58 -82t100.5 -65t114 -50t137 -47q224 -73 339 -160t115 -239q0 -176 -125 -284.5t-340 -108.5q-207 0 -345 92.5t-180 235.5z" />
<glyph unicode="T" d="M63 1453v38h1023v-38h-490v-1453h-43v1453h-490z" />
<glyph unicode="U" horiz-adv-x="1447" d="M191 479v1012h43v-1012q0 -200 127 -331t363.5 -131t363 131t126.5 331v1012h42v-1012q0 -221 -143.5 -360.5t-388.5 -139.5t-389 139.5t-144 360.5z" />
<glyph unicode="V" horiz-adv-x="1272" d="M43 1491h44l549 -1444l551 1444h44l-569 -1491h-50z" />
<glyph unicode="W" horiz-adv-x="2087" d="M85 1491h43l415 -1440l475 1440h51l475 -1440l415 1440h43l-433 -1491h-51l-474 1439l-475 -1439h-51z" />
<glyph unicode="X" horiz-adv-x="1191" d="M63 0l508 760l-488 731h51l462 -692l463 692h51l-488 -731l506 -760h-51l-481 722l-481 -722h-52z" />
<glyph unicode="Y" horiz-adv-x="1191" d="M21 1491h48l527 -837l528 837h47l-553 -873v-618h-43v618z" />
<glyph unicode="Z" horiz-adv-x="1128" d="M106 0v38l872 1415h-850v38h894v-38l-869 -1415h891v-38h-938z" />
<glyph unicode="[" horiz-adv-x="574" d="M149 -213v1917h383v-41h-341v-1836h341v-40h-383z" />
<glyph unicode="\" horiz-adv-x="1106" d="M106 1704h43l853 -1917h-43z" />
<glyph unicode="]" horiz-adv-x="574" d="M43 -173h341v1836h-341v41h383v-1917h-383v40z" />
<glyph unicode="^" horiz-adv-x="1077" d="M149 852l373 639h34l373 -639h-47l-343 587l-343 -587h-47z" />
<glyph unicode="_" horiz-adv-x="1022" d="M85 -213h852v-39h-852v39z" />
<glyph unicode="`" horiz-adv-x="299" d="M43 1470l179 -256h36l-171 256h-44z" />
<glyph unicode="a" horiz-adv-x="1409" d="M106 532q0 234 162.5 394t393.5 160q175 0 313.5 -95t199.5 -252v326h43v-1065h-43v326q-61 -159 -199.5 -253t-313.5 -94q-231 0 -393.5 159.5t-162.5 393.5zM149 532.5q0 -217.5 149 -366.5t364.5 -149t364 149t148.5 366.5t-148.5 366.5t-364 149t-364.5 -149 t-149 -366.5z" />
<glyph unicode="b" horiz-adv-x="1409" d="M191 0v1491h43v-761q57 160 197 258t317 98q232 0 393.5 -160t161.5 -394t-161.5 -393.5t-393.5 -159.5q-177 0 -316.5 98t-197.5 258v-335h-43zM234 532.5q0 -217.5 149 -366.5t364.5 -149t364 149t148.5 366.5t-148.5 366.5t-364 149t-364.5 -149t-149 -366.5z" />
<glyph unicode="c" horiz-adv-x="1232" d="M106 532q0 234 160 394t396 160q156 0 280.5 -70.5t183.5 -188.5l-33 -22q-55 110 -170.5 176.5t-260.5 66.5q-221 0 -367 -148t-146 -367.5t146 -367.5t367 -148q145 0 259 66t172 177l33 -22q-59 -119 -183.5 -189t-280.5 -70q-236 0 -396 159.5t-160 393.5z" />
<glyph unicode="d" horiz-adv-x="1409" d="M106 532q0 234 162.5 394t393.5 160q177 0 316.5 -98t196.5 -258v761h43v-1491h-43v335q-57 -160 -196.5 -258t-316.5 -98q-231 0 -393.5 159.5t-162.5 393.5zM149 532.5q0 -217.5 149 -366.5t364.5 -149t364 149t148.5 366.5t-148.5 366.5t-364 149t-364.5 -149 t-149 -366.5z" />
<glyph unicode="e" horiz-adv-x="1275" d="M106 532q0 237 153 395.5t387 158.5q232 0 377.5 -165t145.5 -393v-22h-1020q8 -217 152 -353t353 -136q141 0 252.5 59.5t164.5 159.5l37 -21q-62 -108 -182.5 -172t-271.5 -64q-236 0 -392 156.5t-156 396.5zM149 545h981q-12 224 -149.5 363.5t-334.5 139.5 q-209 0 -351 -142t-146 -361z" />
<glyph unicode="f" horiz-adv-x="636" d="M63 1026v39h193v85q0 183 94 280q82 84 237 84q23 0 49 -2v-38q-25 2 -48 2q-291 0 -290 -326v-85h338v-39h-338v-1026h-42v1026h-193z" />
<glyph unicode="g" horiz-adv-x="1431" d="M128 532q0 234 161.5 394t393.5 160q177 0 317 -98t197 -258v335h43v-999q0 -237 -138.5 -375t-385.5 -138q-184 0 -315 71t-182 180l35 19q47 -98 168 -165t294 -67q227 0 354 128t127 347v269q-57 -160 -197 -258t-317 -98q-232 0 -393.5 159.5t-161.5 393.5z M171 532.5q0 -217.5 149 -366.5t364 -149t364 149t149 366.5t-149 366.5t-364 149t-364 -149t-149 -366.5z" />
<glyph unicode="h" horiz-adv-x="1224" d="M191 0v1491h43v-718q43 151 159.5 232t266.5 81q181 0 293 -113t112 -296v-677h-43v677q0 162 -97.5 266.5t-266.5 104.5q-187 0 -305.5 -131t-118.5 -346v-571h-43z" />
<glyph unicode="i" horiz-adv-x="425" d="M164 1435.5q0 19.5 13.5 34t35 14.5t35.5 -14.5t14 -34t-14 -34.5t-35.5 -15t-35 15t-13.5 34.5zM191 0v1065h43v-1065h-43z" />
<glyph unicode="j" horiz-adv-x="445" d="M-43 -409q26 -3 49 -3q205 0 205 221v1256h43v-1256q0 -132 -76 -201q-63 -58 -172 -58q-23 0 -49 3v38zM183 1435.5q0 19.5 14 34t35.5 14.5t35 -14.5t13.5 -34t-13.5 -34.5t-35 -15t-35.5 15t-14 34.5z" />
<glyph unicode="k" horiz-adv-x="981" d="M191 0v1491h43v-924l603 498h59l-617 -512l639 -553h-60l-624 541v-541h-43z" />
<glyph unicode="l" horiz-adv-x="425" d="M191 0v1555h43v-1555h-43z" />
<glyph unicode="m" horiz-adv-x="1863" d="M191 0v1065h43v-258q41 140 142 209.5t233 69.5q137 0 231.5 -73.5t120.5 -215.5q41 144 143.5 216.5t230.5 72.5q165 0 267 -99t102 -290v-697h-43v697q0 168 -88.5 259.5t-237.5 91.5q-162 0 -264 -118.5t-102 -328.5v-601h-42v697q0 168 -86.5 259.5t-231.5 91.5 q-166 0 -270.5 -118.5t-104.5 -328.5v-601h-43z" />
<glyph unicode="n" horiz-adv-x="1224" d="M191 0v1065h43v-292q43 151 159.5 232t266.5 81q181 0 293 -113t112 -296v-677h-43v677q0 162 -97.5 266.5t-266.5 104.5q-187 0 -305.5 -131t-118.5 -346v-571h-43z" />
<glyph unicode="o" horiz-adv-x="1323" d="M106 532q0 234 162.5 394t394 160t393.5 -160t162 -394t-162 -393.5t-393.5 -159.5t-394 159.5t-162.5 393.5zM149 532.5q0 -217.5 149 -366.5t364.5 -149t364 149t148.5 366.5t-148.5 366.5t-364 149t-364.5 -149t-149 -366.5z" />
<glyph unicode="p" horiz-adv-x="1409" d="M191 -426v1491h43v-335q57 160 197 258t317 98q232 0 393.5 -160t161.5 -394t-161.5 -393.5t-393.5 -159.5q-177 0 -316.5 98t-197.5 258v-761h-43zM234 532.5q0 -217.5 149 -366.5t364.5 -149t364 149t148.5 366.5t-148.5 366.5t-364 149t-364.5 -149t-149 -366.5z" />
<glyph unicode="q" horiz-adv-x="1409" d="M106 532q0 234 162.5 394t393.5 160q177 0 316.5 -98t196.5 -258v335h43v-1491h-43v761q-57 -160 -196.5 -258t-316.5 -98q-231 0 -393.5 159.5t-162.5 393.5zM149 532.5q0 -217.5 149 -366.5t364.5 -149t364 149t148.5 366.5t-148.5 366.5t-364 149t-364.5 -149 t-149 -366.5z" />
<glyph unicode="r" horiz-adv-x="691" d="M191 0v1065h43v-285q38 149 149 223t245 74v-38q-166 0 -280 -119t-114 -328v-592h-43z" />
<glyph unicode="s" horiz-adv-x="990" d="M118 203l33 19q65 -205 361 -205q144 0 236.5 73.5t92.5 186.5q0 93 -71 146.5t-172.5 76t-203.5 46t-173.5 81.5t-71.5 161q0 128 97 213t260 85q124 0 213.5 -55t128.5 -149l-35 -20q-34 85 -114.5 135.5t-192.5 50.5q-142 0 -228.5 -72t-86.5 -188q0 -91 72 -142.5 t174 -73t203.5 -45t172.5 -84.5t71 -166q0 -126 -104.5 -212t-267.5 -86q-315 0 -394 224z" />
<glyph unicode="t" horiz-adv-x="807" d="M63 1026v39h256v285l43 13v-298h339v-39h-339v-790q0 -140 77 -183q47 -26 133 -26q56 0 129 11v-38q-74 -12 -132 -12q-101 0 -159 36q-90 56 -91 212v790h-256z" />
<glyph unicode="u" horiz-adv-x="1224" d="M160 388v677h43v-677q0 -162 97.5 -266.5t266.5 -104.5q187 0 305 131t118 346v571h43v-1065h-43v292q-43 -151 -158.5 -232t-266.5 -81q-181 0 -293 113t-112 296z" />
<glyph unicode="v" horiz-adv-x="1089" d="M43 1065h44l458 -1018l459 1018h44l-479 -1065h-47z" />
<glyph unicode="w" horiz-adv-x="1639" d="M85 1065h45l330 -1004l335 1004h51l334 -1004l330 1004h45l-350 -1065h-46l-339 1008l-338 -1008h-47z" />
<glyph unicode="x" horiz-adv-x="1064" d="M63 0l443 545l-421 520h51l396 -488l397 488h51l-422 -520l444 -545h-55l-415 514l-414 -514h-55z" />
<glyph unicode="y" horiz-adv-x="1085" d="M43 1065h42l490 -1063l427 1063h42l-467 -1163q-63 -158 -173 -248q-98 -81 -206 -81q-14 0 -27 1v38q10 -1 19 -1q100 0 189 75q98 82 160 229l14 38z" />
<glyph unicode="z" horiz-adv-x="1043" d="M128 0v24l730 1002h-709v39h767v-24l-731 -1003h752v-38h-809z" />
<glyph unicode="{" horiz-adv-x="719" d="M128 728v38q132 0 193 53t61 165v486q0 132 75 201t220 54v-38q-254 28 -253 -217v-486q0 -207 -176 -238q176 -28 176 -234v-488q0 -246 253 -217v-39q-145 -14 -220 55t-75 201v488q0 113 -61 164.5t-193 51.5z" />
<glyph unicode="|" horiz-adv-x="468" d="M213 -426v1960h43v-1960h-43z" />
<glyph unicode="}" horiz-adv-x="719" d="M43 -193q253 -29 253 217v488q0 207 177 234q-177 32 -177 238v486q0 245 -253 217v38q144 15 220 -54t76 -201v-486q0 -114 60.5 -166t192.5 -52v-38q-132 0 -192.5 -52t-60.5 -164v-488q0 -132 -76 -201t-220 -55v39z" />
<glyph unicode="~" horiz-adv-x="1217" d="M149 648q8 34 24 69t54.5 75.5t87.5 57.5t129 -2t176 -86q104 -75 185 -87.5t126 25t67 76.5t33 84l38 -17q-8 -34 -24 -69t-54.5 -75.5t-87.5 -58.5t-129.5 1t-175.5 87q-104 75 -185 88t-126 -24.5t-67 -77t-33 -84.5z" />
<glyph unicode="&#xa1;" horiz-adv-x="425" d="M160 1033.5q0 23.5 15.5 38t37 14.5t37.5 -14.5t16 -38t-16 -38.5t-37.5 -15t-37 15t-15.5 38.5zM191 -426v1150h43v-1150h-43z" />
<glyph unicode="&#xa2;" horiz-adv-x="1232" d="M106 746q0 234 160 393.5t396 159.5q60 0 139 -15l71 207h42l-75 -217q203 -63 287 -235l-33 -21q-81 162 -264 218l-333 -980q77 -26 166 -26q145 0 259 66t172 177l33 -22q-59 -119 -184 -189.5t-280 -70.5q-95 0 -176 28l-75 -219h-43l79 232q-156 61 -248.5 200 t-92.5 314zM149 746q0 -163 85 -291.5t226 -186.5l328 978q-53 14 -126 14q-221 0 -367 -147.5t-146 -366.5z" />
<glyph unicode="&#xa3;" horiz-adv-x="1277" d="M106 0v38h235v603h-192v38h192v439q0 175 118 284.5t297 109.5q283 0 380 -262l-35 -21q-83 246 -345 245q-170 0 -271 -101t-101 -255v-439h553v-38h-553v-603h852v-38h-1130z" />
<glyph unicode="&#xa5;" horiz-adv-x="1191" d="M21 1491h48l487 -773h80l488 773h47l-490 -773h354v-39h-379l-38 -61v-173h417v-38h-417v-407h-43v407h-413v38h413v173l-38 61h-375v39h350zM579 679l17 -25l18 25h-35z" />
<glyph unicode="&#xa7;" horiz-adv-x="1075" d="M149 746q0 156 147 240q-104 87 -105 215q0 134 99.5 222.5t258.5 88.5q130 0 227.5 -61t141.5 -175l-34 -20q-87 218 -335 218q-140 0 -227.5 -77.5t-87.5 -195.5q0 -61 22.5 -108t83 -88.5t95 -59.5t130.5 -59q28 -12 42 -19q94 -40 134.5 -60.5t106.5 -64t93.5 -96 t27.5 -118.5q0 -156 -146 -241q104 -89 104 -221t-102.5 -218t-271.5 -86q-309 0 -395 266l33 21q79 -250 362 -250q147 0 239 74t92 193q0 63 -27.5 114.5t-86.5 93t-110 68t-138 65.5q-201 87 -266 138q-106 85 -107 201zM191 746q0 -58 27 -105t85.5 -84t104 -59.5 t131.5 -56.5q168 -66 249 -126q66 34 102.5 90.5t36.5 122.5q0 58 -25.5 103.5t-82.5 84t-100.5 60t-128.5 57.5q-190 79 -260 128q-139 -75 -139 -215z" />
<glyph unicode="&#xa8;" horiz-adv-x="510" d="M43 1277.5q0 17.5 13 30.5t29.5 13t29.5 -13t13 -30.5t-13 -29.5t-29.5 -12t-29.5 12t-13 29.5zM384 1277.5q0 17.5 12.5 30.5t29.5 13t30 -13t13 -30.5t-13 -29.5t-30 -12t-29.5 12t-12.5 29.5z" />
<glyph unicode="&#xa9;" horiz-adv-x="1797" d="M128 745.5q0 319.5 225.5 543t545 223.5t545.5 -223.5t226 -543t-226 -543t-545.5 -223.5t-545 223.5t-225.5 543zM171 745.5q0 -302.5 212.5 -515.5t515 -213t516 213t213.5 515.5t-213.5 515.5t-516 213t-515 -213t-212.5 -515.5zM492 745.5q0 172.5 117 290.5t296 118 q115 0 205.5 -53t139.5 -144l-36 -20q-43 83 -123.5 131t-185.5 48q-160 0 -265 -107.5t-105 -263t105.5 -263.5t264.5 -108q104 0 185 48.5t124 130.5l36 -18q-47 -92 -138.5 -145t-206.5 -53q-179 0 -296 118t-117 290.5z" />
<glyph unicode="&#xab;" horiz-adv-x="902" d="M213 658l213 341h47l-213 -341l213 -341h-47zM431 658l212 341h48l-214 -341l214 -341h-48z" />
<glyph unicode="&#xac;" horiz-adv-x="1106" d="M149 775v38h810v-340h-43v302h-767z" />
<glyph unicode="&#xad;" horiz-adv-x="1191" d="M213 639v38h767v-38h-767z" />
<glyph unicode="&#xae;" horiz-adv-x="1797" d="M128 745.5q0 319.5 225.5 543t545 223.5t545.5 -223.5t226 -543t-226 -543t-545.5 -223.5t-545 223.5t-225.5 543zM171 745.5q0 -302.5 212.5 -515.5t515 -213t516 213t213.5 515.5t-213.5 515.5t-516 213t-515 -213t-212.5 -515.5zM685 352v788h222q138 0 208 -70 t70 -163q0 -189 -193 -226l207 -329h-47l-202 325q-13 -2 -43 -2h-179v-323h-43zM728 713h179q234 0 235 194q0 83 -61 138.5t-174 55.5h-179v-388z" />
<glyph unicode="&#xaf;" horiz-adv-x="595" d="M43 1280v35h510v-35h-510z" />
<glyph unicode="&#xb0;" horiz-adv-x="821" d="M106 1427q0 124 87.5 211t217.5 87t217.5 -87t87.5 -211q0 -126 -86.5 -212.5t-218.5 -86.5q-130 0 -217.5 87.5t-87.5 211.5zM149 1427.5q0 -110.5 76 -185.5t186 -75q113 0 187.5 75t74.5 185.5t-75.5 185t-186 74.5t-186.5 -74.5t-76 -185z" />
<glyph unicode="&#xb1;" horiz-adv-x="1106" d="M149 213v39h810v-39h-810zM149 854v38h383v386h43v-386h384v-38h-384v-385h-43v385h-383z" />
<glyph unicode="&#xb4;" horiz-adv-x="299" d="M43 1214h38l177 256h-45z" />
<glyph unicode="&#xb5;" horiz-adv-x="1298" d="M191 -426v1491h43v-677q0 -162 98.5 -266.5t265.5 -104.5q187 0 305.5 131t118.5 346v571h43v-916q0 -53 28.5 -82t77.5 -29h43v-38h-43q-71 0 -110 39.5t-39 109.5v143q-42 -151 -158 -232t-268 -81q-130 0 -224.5 59.5t-137.5 166.5v-631h-43z" />
<glyph unicode="&#xb6;" horiz-adv-x="1171" d="M106 1108q0 160 112 271.5t272 111.5h575v-38h-128v-1879h-43v1879h-362v-1879h-42v1150q-160 0 -272 113t-112 271z" />
<glyph unicode="&#xb7;" horiz-adv-x="382" d="M138 714q0 23 16.5 37.5t37.5 14.5t37 -14.5t16 -37.5t-16 -38.5t-37 -15.5t-37.5 15.5t-16.5 38.5z" />
<glyph unicode="&#xb8;" horiz-adv-x="414" d="M21 -396q335 -41 335 98q0 110 -188 95v203h39v-168q71 6 129 -28t58 -102q0 -82 -94.5 -118.5t-278.5 -14.5v35z" />
<glyph unicode="&#xbb;" horiz-adv-x="902" d="M213 317l213 341l-213 341h47l213 -341l-213 -341h-47zM431 317l212 341l-212 341h46l214 -341l-214 -341h-46z" />
<glyph unicode="&#xbf;" horiz-adv-x="1120" d="M149 -85q0 85 42.5 167t104.5 150.5t124 139.5t104.5 162.5t42.5 189.5h42q0 -102 -42.5 -196.5t-104.5 -166t-123.5 -140t-104.5 -147t-43 -159.5q0 -147 95.5 -235.5t278.5 -88.5q140 0 247.5 69.5t144.5 175.5l35 -19q-42 -118 -161.5 -191t-265.5 -73 q-192 0 -304 96.5t-112 265.5zM535 1033.5q0 23.5 16 38t37 14.5t37 -14.5t16 -38t-16 -38.5t-37 -15t-37 15t-16 38.5z" />
<glyph unicode="&#xc0;" horiz-adv-x="1337" d="M53 0l590 1491h52l589 -1491h-44l-160 407h-822l-160 -407h-45zM272 445h793l-396 1002zM506 1896h45l171 -256h-37z" />
<glyph unicode="&#xc1;" horiz-adv-x="1337" d="M53 0l590 1491h52l589 -1491h-44l-160 407h-822l-160 -407h-45zM272 445h793l-396 1002zM616 1640l170 256h45l-177 -256h-38z" />
<glyph unicode="&#xc2;" horiz-adv-x="1337" d="M53 0l590 1491h52l589 -1491h-44l-160 407h-822l-160 -407h-45zM272 445h793l-396 1002zM402 1640l239 256h47l239 -256h-47l-215 230l-216 -230h-47z" />
<glyph unicode="&#xc3;" horiz-adv-x="1337" d="M53 0l590 1491h52l589 -1491h-44l-160 407h-822l-160 -407h-45zM272 445h793l-396 1002zM396 1683q0 148 85.5 183.5t197.5 -81.5q98 -100 162 -72.5t64 149.5h36q0 -145 -86 -181.5t-197 79.5q-100 100 -162.5 73t-62.5 -150h-37z" />
<glyph unicode="&#xc4;" horiz-adv-x="1337" d="M53 0l590 1491h52l589 -1491h-44l-160 407h-822l-160 -407h-45zM272 445h793l-396 1002zM456 1704q0 17 13 29.5t30 12.5t29.5 -12.5t12.5 -29.5t-12.5 -30t-29.5 -13t-30 13t-13 30zM797 1704q0 17 13 29.5t29.5 12.5t29.5 -12.5t13 -29.5t-13 -30t-29.5 -13t-29.5 13 t-13 30z" />
<glyph unicode="&#xc5;" horiz-adv-x="1337" d="M53 0l581 1472q-77 8 -122 61.5t-45 127.5q0 83 56 137.5t146 54.5q91 0 147 -54.5t56 -137.5q0 -75 -46 -128t-123 -61l581 -1472h-44l-160 407h-822l-160 -407h-45zM272 445h793l-396 1002zM504 1661.5q0 -70.5 46 -114t119 -43.5t118.5 43.5t45.5 114t-45.5 114 t-118.5 43.5t-119 -43.5t-46 -114z" />
<glyph unicode="&#xc6;" horiz-adv-x="1827" d="M21 0l912 1491h778v-38h-715v-682h661v-38h-661v-695h725v-38h-766v435h-620l-264 -435h-50zM358 473h597v976z" />
<glyph unicode="&#xc7;" horiz-adv-x="1626" d="M128 746q0 321 218.5 543.5t547.5 222.5q198 0 365.5 -92.5t260.5 -250.5l-36 -21q-87 149 -244.5 237.5t-345.5 88.5q-313 0 -518 -211t-205 -517.5t205 -517.5t518 -211q194 0 355 93t244 248l39 -21q-90 -158 -252 -253.5t-358 -104.5v-147q71 6 129.5 -28t58.5 -102 q0 -82 -95 -118.5t-278 -14.5v35q335 -41 334 98q0 110 -187 95v182q-326 4 -541 226.5t-215 540.5z" />
<glyph unicode="&#xc8;" d="M213 0v1491h820v-38h-777v-682h724v-38h-724v-695h788v-38h-831zM460 1896h44l171 -256h-36z" />
<glyph unicode="&#xc9;" d="M213 0v1491h820v-38h-777v-682h724v-38h-724v-695h788v-38h-831zM569 1640l170 256h45l-177 -256h-38z" />
<glyph unicode="&#xca;" d="M213 0v1491h820v-38h-777v-682h724v-38h-724v-695h788v-38h-831zM356 1640l238 256h47l239 -256h-47l-215 230l-216 -230h-46z" />
<glyph unicode="&#xcb;" d="M213 0v1491h820v-38h-777v-682h724v-38h-724v-695h788v-38h-831zM409 1704q0 17 13 29.5t30 12.5t29.5 -12.5t12.5 -29.5t-12.5 -30t-29.5 -13t-30 13t-13 30zM750 1704q0 17 12.5 29.5t29.5 12.5t30 -12.5t13 -29.5t-13 -30t-30 -13t-29.5 13t-12.5 30z" />
<glyph unicode="&#xcc;" horiz-adv-x="468" d="M73 1896l179 -256h35l-169 256h-45zM213 0v1491h43v-1491h-43z" />
<glyph unicode="&#xcd;" horiz-adv-x="468" d="M181 1640h38l177 256h-44zM213 0v1491h43v-1491h-43z" />
<glyph unicode="&#xce;" horiz-adv-x="468" d="M-32 1640l239 256h47l238 -256h-47l-215 230l-215 -230h-47zM213 0v1491h43v-1491h-43z" />
<glyph unicode="&#xcf;" horiz-adv-x="468" d="M21 1704q0 17 13 29.5t30 12.5t29.5 -12.5t12.5 -29.5t-12.5 -30t-29.5 -13t-30 13t-13 30zM213 0v1491h43v-1491h-43zM362 1704q0 17 13 29.5t30 12.5t29.5 -12.5t12.5 -29.5t-12.5 -30t-29.5 -13t-30 13t-13 30z" />
<glyph unicode="&#xd0;" horiz-adv-x="1618" d="M128 726v38h128v727h532q305 0 504 -216t199 -529t-199 -529.5t-504 -216.5h-532v726h-128zM298 38h490q287 0 474 204.5t187 503t-187 503t-474 204.5h-490v-689h596v-38h-596v-688z" />
<glyph unicode="&#xd1;" horiz-adv-x="1490" d="M213 0v1491h43l980 -1418v1418h42v-1491h-42l-980 1419v-1419h-43zM451 1683q0 148 85.5 183.5t198.5 -81.5q98 -100 162 -72.5t64 149.5h35q0 -145 -85.5 -181.5t-197.5 79.5q-99 100 -162 73t-63 -150h-37z" />
<glyph unicode="&#xd2;" horiz-adv-x="1788" d="M128 745.5q0 317.5 224.5 542t542 224.5t542 -224.5t224.5 -542t-224.5 -542t-542 -224.5t-542 224.5t-224.5 542zM171 745.5q0 -302.5 211.5 -515.5t512 -213t512 213t211.5 515.5t-211.5 515.5t-512 213t-512 -213t-211.5 -515.5zM733 1896l179 -256h35l-169 256h-45z " />
<glyph unicode="&#xd3;" horiz-adv-x="1788" d="M128 745.5q0 317.5 224.5 542t542 224.5t542 -224.5t224.5 -542t-224.5 -542t-542 -224.5t-542 224.5t-224.5 542zM171 745.5q0 -302.5 211.5 -515.5t512 -213t512 213t211.5 515.5t-211.5 515.5t-512 213t-512 -213t-211.5 -515.5zM841 1640h39l177 256h-45z" />
<glyph unicode="&#xd4;" horiz-adv-x="1788" d="M128 745.5q0 317.5 224.5 542t542 224.5t542 -224.5t224.5 -542t-224.5 -542t-542 -224.5t-542 224.5t-224.5 542zM171 745.5q0 -302.5 211.5 -515.5t512 -213t512 213t211.5 515.5t-211.5 515.5t-512 213t-512 -213t-211.5 -515.5zM628 1640l239 256h47l238 -256h-46 l-216 230l-215 -230h-47z" />
<glyph unicode="&#xd5;" horiz-adv-x="1788" d="M128 745.5q0 317.5 224.5 542t542 224.5t542 -224.5t224.5 -542t-224.5 -542t-542 -224.5t-542 224.5t-224.5 542zM171 745.5q0 -302.5 211.5 -515.5t512 -213t512 213t211.5 515.5t-211.5 515.5t-512 213t-512 -213t-211.5 -515.5zM622 1683q0 148 85 183.5t198 -81.5 q98 -100 161.5 -72.5t63.5 149.5h37q0 -145 -86.5 -181.5t-196.5 79.5q-100 100 -163 73t-63 -150h-36z" />
<glyph unicode="&#xd6;" horiz-adv-x="1788" d="M128 745.5q0 317.5 224.5 542t542 224.5t542 -224.5t224.5 -542t-224.5 -542t-542 -224.5t-542 224.5t-224.5 542zM171 745.5q0 -302.5 211.5 -515.5t512 -213t512 213t211.5 515.5t-211.5 515.5t-512 213t-512 -213t-211.5 -515.5zM681 1704q0 17 13 29.5t30.5 12.5 t29.5 -12.5t12 -29.5t-12 -30t-29.5 -13t-30.5 13t-13 30zM1022 1704q0 17 13 29.5t30 12.5t30 -12.5t13 -29.5t-13 -30t-30 -13t-30 13t-13 30z" />
<glyph unicode="&#xd8;" horiz-adv-x="1809" d="M149 746q0 317 224.5 541.5t542.5 224.5q277 0 486 -172l130 151l31 -19l-134 -155q254 -230 254 -571q0 -318 -225 -542.5t-542 -224.5q-276 0 -485 172l-130 -151l-33 19l134 156q-253 230 -253 571zM191 746q0 -158 63 -298.5t174 -240.5l948 1103q-203 165 -460 164 q-300 0 -512.5 -213t-212.5 -515zM456 181q202 -164 460 -164q301 0 512.5 213t211.5 516q0 158 -63 298.5t-173 239.5z" />
<glyph unicode="&#xd9;" horiz-adv-x="1447" d="M191 479v1012h43v-1012q0 -200 127 -331t363.5 -131t363 131t126.5 331v1012h42v-1012q0 -221 -143.5 -360.5t-388.5 -139.5t-389 139.5t-144 360.5zM551 1896l179 -256h36l-170 256h-45z" />
<glyph unicode="&#xda;" horiz-adv-x="1447" d="M191 479v1012h43v-1012q0 -200 127 -331t363.5 -131t363 131t126.5 331v1012h42v-1012q0 -221 -143.5 -360.5t-388.5 -139.5t-389 139.5t-144 360.5zM660 1640h39l177 256h-45z" />
<glyph unicode="&#xdb;" horiz-adv-x="1447" d="M191 479v1012h43v-1012q0 -200 127 -331t363.5 -131t363 131t126.5 331v1012h42v-1012q0 -221 -143.5 -360.5t-388.5 -139.5t-389 139.5t-144 360.5zM447 1640l238 256h48l238 -256h-46l-216 230l-215 -230h-47z" />
<glyph unicode="&#xdc;" horiz-adv-x="1447" d="M191 479v1012h43v-1012q0 -200 127 -331t363.5 -131t363 131t126.5 331v1012h42v-1012q0 -221 -143.5 -360.5t-388.5 -139.5t-389 139.5t-144 360.5zM500 1704q0 17 13 29.5t30.5 12.5t30 -12.5t12.5 -29.5t-12.5 -30t-30 -13t-30.5 13t-13 30zM841 1704q0 17 13 29.5 t30 12.5t30 -12.5t13 -29.5t-13 -30t-30 -13t-30 13t-13 30z" />
<glyph unicode="&#xdd;" horiz-adv-x="1191" d="M21 1491h48l527 -837l528 837h47l-553 -873v-618h-43v618zM543 1640l170 256h45l-177 -256h-38z" />
<glyph unicode="&#xde;" horiz-adv-x="1234" d="M213 0v1491h43v-298h415q197 0 327 -128t130 -320t-129.5 -319.5t-327.5 -127.5h-415v-298h-43zM256 337h415q181 0 298 116t117 292.5t-117 292.5t-298 116h-415v-817z" />
<glyph unicode="&#xdf;" horiz-adv-x="1098" d="M191 0v1101q0 192 105.5 301.5t284.5 109.5q161 0 248 -89.5t87 -219.5q0 -83 -52.5 -150t-104.5 -118t-52 -96q0 -47 51 -109.5t113 -119.5t113 -140.5t51 -168.5q0 -149 -112 -234.5t-303 -76.5v38q175 -8 273.5 66t98.5 207q0 77 -51 156.5t-110.5 135t-110.5 123.5 t-51 123q0 45 32 91t70 78.5t70.5 85t32.5 109.5q0 118 -77 194.5t-216 76.5q-166 0 -256.5 -102t-90.5 -271v-1101h-43z" />
<glyph unicode="&#xe0;" horiz-adv-x="1409" d="M106 532q0 234 162.5 394t393.5 160q175 0 313.5 -95t199.5 -252v326h43v-1065h-43v326q-61 -159 -199.5 -253t-313.5 -94q-231 0 -393.5 159.5t-162.5 393.5zM149 532.5q0 -217.5 149 -366.5t364.5 -149t364 149t148.5 366.5t-148.5 366.5t-364 149t-364.5 -149 t-149 -366.5zM498 1470h45l170 -256h-36z" />
<glyph unicode="&#xe1;" horiz-adv-x="1409" d="M106 532q0 234 162.5 394t393.5 160q175 0 313.5 -95t199.5 -252v326h43v-1065h-43v326q-61 -159 -199.5 -253t-313.5 -94q-231 0 -393.5 159.5t-162.5 393.5zM149 532.5q0 -217.5 149 -366.5t364.5 -149t364 149t148.5 366.5t-148.5 366.5t-364 149t-364.5 -149 t-149 -366.5zM607 1214l171 256h45l-177 -256h-39z" />
<glyph unicode="&#xe2;" horiz-adv-x="1409" d="M106 532q0 234 162.5 394t393.5 160q175 0 313.5 -95t199.5 -252v326h43v-1065h-43v326q-61 -159 -199.5 -253t-313.5 -94q-231 0 -393.5 159.5t-162.5 393.5zM149 532.5q0 -217.5 149 -366.5t364.5 -149t364 149t148.5 366.5t-148.5 366.5t-364 149t-364.5 -149 t-149 -366.5zM394 1214l238 256h47l239 -256h-46l-216 231l-215 -231h-47z" />
<glyph unicode="&#xe3;" horiz-adv-x="1409" d="M106 532q0 234 162.5 394t393.5 160q175 0 313.5 -95t199.5 -252v326h43v-1065h-43v326q-61 -159 -199.5 -253t-313.5 -94q-231 0 -393.5 159.5t-162.5 393.5zM149 532.5q0 -217.5 149 -366.5t364.5 -149t364 149t148.5 366.5t-148.5 366.5t-364 149t-364.5 -149 t-149 -366.5zM388 1256q0 149 85 184.5t198 -81.5q98 -100 161.5 -72t63.5 148h37q0 -144 -86.5 -180.5t-196.5 78.5q-100 100 -163 73.5t-63 -150.5h-36z" />
<glyph unicode="&#xe4;" horiz-adv-x="1409" d="M106 532q0 234 162.5 394t393.5 160q175 0 313.5 -95t199.5 -252v326h43v-1065h-43v326q-61 -159 -199.5 -253t-313.5 -94q-231 0 -393.5 159.5t-162.5 393.5zM149 532.5q0 -217.5 149 -366.5t364.5 -149t364 149t148.5 366.5t-148.5 366.5t-364 149t-364.5 -149 t-149 -366.5zM447 1277.5q0 17.5 13 30.5t29.5 13t29.5 -13t13 -30.5t-13 -29.5t-29.5 -12t-29.5 12t-13 29.5zM788 1277.5q0 17.5 12.5 30.5t30 13t30.5 -13t13 -30.5t-13 -29.5t-30.5 -12t-30 12t-12.5 29.5z" />
<glyph unicode="&#xe5;" horiz-adv-x="1409" d="M106 532q0 234 162.5 394t393.5 160q175 0 313.5 -95t199.5 -252v326h43v-1065h-43v326q-61 -159 -199.5 -253t-313.5 -94q-231 0 -393.5 159.5t-162.5 393.5zM149 532.5q0 -217.5 149 -366.5t364.5 -149t364 149t148.5 366.5t-148.5 366.5t-364 149t-364.5 -149 t-149 -366.5zM458 1384q0 83 56.5 138t145.5 55q92 0 147 -55t55 -138t-55 -137t-147 -54q-89 0 -145.5 54t-56.5 137zM496 1385q0 -70 46 -114t118.5 -44t118.5 44t46 114t-46 113.5t-118.5 43.5t-118.5 -43.5t-46 -113.5z" />
<glyph unicode="&#xe6;" horiz-adv-x="2340" d="M106 532q0 234 162.5 394t393.5 160q175 0 313.5 -95t199.5 -252v326h39v-326q55 159 188.5 253t314.5 94q238 0 377.5 -164t139.5 -394v-22h-1016q8 -217 150 -353t357 -136q147 0 260 58.5t166 160.5l36 -21q-61 -110 -183 -173t-279 -63q-185 0 -319 93.5t-192 253.5 v-326h-39v326q-61 -159 -199.5 -253t-313.5 -94q-231 0 -393.5 159.5t-162.5 393.5zM149 532.5q0 -217.5 149 -366.5t364.5 -149t364 149t148.5 366.5t-148.5 366.5t-364 149t-364.5 -149t-149 -366.5zM1218 545h977q-12 226 -144 364.5t-334 138.5q-215 0 -355 -141 t-144 -362z" />
<glyph unicode="&#xe7;" horiz-adv-x="1232" d="M106 532q0 234 160 394t396 160q156 0 280.5 -70.5t183.5 -188.5l-33 -22q-55 110 -170.5 176.5t-260.5 66.5q-221 0 -367 -148t-146 -367.5t146 -367.5t367 -148q145 0 259 66t172 177l33 -22q-55 -113 -170 -181.5t-259 -77.5v-147q71 6 129 -28t58 -102 q0 -82 -94.5 -118.5t-277.5 -14.5v35q335 -41 334 98q0 110 -188 95v182q-236 2 -394 160.5t-158 392.5z" />
<glyph unicode="&#xe8;" horiz-adv-x="1275" d="M106 532q0 237 153 395.5t387 158.5q232 0 377.5 -165t145.5 -393v-22h-1020q8 -217 152 -353t353 -136q141 0 252.5 59.5t164.5 159.5l37 -21q-62 -108 -182.5 -172t-271.5 -64q-236 0 -392 156.5t-156 396.5zM149 545h981q-12 224 -149.5 363.5t-334.5 139.5 q-209 0 -351 -142t-146 -361zM471 1470h45l169 -256h-35z" />
<glyph unicode="&#xe9;" horiz-adv-x="1275" d="M106 532q0 237 153 395.5t387 158.5q232 0 377.5 -165t145.5 -393v-22h-1020q8 -217 152 -353t353 -136q141 0 252.5 59.5t164.5 159.5l37 -21q-62 -108 -182.5 -172t-271.5 -64q-236 0 -392 156.5t-156 396.5zM149 545h981q-12 224 -149.5 363.5t-334.5 139.5 q-209 0 -351 -142t-146 -361zM579 1214l171 256h45l-177 -256h-39z" />
<glyph unicode="&#xea;" horiz-adv-x="1275" d="M106 532q0 237 153 395.5t387 158.5q232 0 377.5 -165t145.5 -393v-22h-1020q8 -217 152 -353t353 -136q141 0 252.5 59.5t164.5 159.5l37 -21q-62 -108 -182.5 -172t-271.5 -64q-236 0 -392 156.5t-156 396.5zM149 545h981q-12 224 -149.5 363.5t-334.5 139.5 q-209 0 -351 -142t-146 -361zM366 1214l239 256h47l238 -256h-47l-215 231l-215 -231h-47z" />
<glyph unicode="&#xeb;" horiz-adv-x="1275" d="M106 532q0 237 153 395.5t387 158.5q232 0 377.5 -165t145.5 -393v-22h-1020q8 -217 152 -353t353 -136q141 0 252.5 59.5t164.5 159.5l37 -21q-62 -108 -182.5 -172t-271.5 -64q-236 0 -392 156.5t-156 396.5zM149 545h981q-12 224 -149.5 363.5t-334.5 139.5 q-209 0 -351 -142t-146 -361zM419 1277.5q0 17.5 13 30.5t30 13t29.5 -13t12.5 -30.5t-12.5 -29.5t-29.5 -12t-30 12t-13 29.5zM760 1277.5q0 17.5 13 30.5t30 13t30 -13t13 -30.5t-13 -29.5t-30 -12t-30 12t-13 29.5z" />
<glyph unicode="&#xec;" horiz-adv-x="425" d="M63 1470l146 -256h39l-140 256h-45zM191 0v1065h43v-1065h-43z" />
<glyph unicode="&#xed;" horiz-adv-x="425" d="M171 1214h38l145 256h-45zM191 0v1065h43v-1065h-43z" />
<glyph unicode="&#xee;" horiz-adv-x="425" d="M15 1214l174 256h47l175 -256h-47l-151 221l-152 -221h-46zM191 0v1065h43v-1065h-43z" />
<glyph unicode="&#xef;" horiz-adv-x="425" d="M43 1277.5q0 17.5 13 30.5t29.5 13t29.5 -13t13 -30.5t-13 -29.5t-29.5 -12t-29.5 12t-13 29.5zM191 0v1065h43v-1065h-43zM298 1277.5q0 17.5 12.5 30.5t30 13t30.5 -13t13 -30.5t-13 -29.5t-30.5 -12t-30 12t-12.5 29.5z" />
<glyph unicode="&#xf0;" horiz-adv-x="1256" d="M106 490q0 215 153.5 354.5t360.5 139.5q175 0 298 -79l-282 377l-282 -174v42l262 162l-134 179h46l120 -160l232 143v-43l-211 -130l383 -513q98 -132 98 -298q0 -228 -153.5 -369.5t-364.5 -141.5q-213 0 -369.5 141.5t-156.5 369.5zM149 490q0 -203 138 -338 t345 -135q203 0 339.5 135t136.5 338q0 162 -86 274q-79 106 -176.5 143.5t-225.5 37.5q-198 0 -334.5 -133t-136.5 -322z" />
<glyph unicode="&#xf1;" horiz-adv-x="1224" d="M191 0v1065h43v-292q43 151 159.5 232t266.5 81q181 0 293 -113t112 -296v-677h-43v677q0 162 -97.5 266.5t-266.5 104.5q-187 0 -305.5 -131t-118.5 -346v-571h-43zM356 1256q0 149 85 184.5t198 -81.5q97 -100 161 -72t64 148h37q0 -144 -86.5 -180.5t-196.5 78.5 q-98 100 -162 73.5t-64 -150.5h-36z" />
<glyph unicode="&#xf2;" horiz-adv-x="1323" d="M106 532q0 234 162.5 394t394 160t393.5 -160t162 -394t-162 -393.5t-393.5 -159.5t-394 159.5t-162.5 393.5zM149 532.5q0 -217.5 149 -366.5t364.5 -149t364 149t148.5 366.5t-148.5 366.5t-364 149t-364.5 -149t-149 -366.5zM484 1470l178 -256h37l-171 256h-44z" />
<glyph unicode="&#xf3;" horiz-adv-x="1323" d="M106 532q0 234 162.5 394t394 160t393.5 -160t162 -394t-162 -393.5t-393.5 -159.5t-394 159.5t-162.5 393.5zM149 532.5q0 -217.5 149 -366.5t364.5 -149t364 149t148.5 366.5t-148.5 366.5t-364 149t-364.5 -149t-149 -366.5zM592 1214h38l177 256h-45z" />
<glyph unicode="&#xf4;" horiz-adv-x="1323" d="M106 532q0 234 162.5 394t394 160t393.5 -160t162 -394t-162 -393.5t-393.5 -159.5t-394 159.5t-162.5 393.5zM149 532.5q0 -217.5 149 -366.5t364.5 -149t364 149t148.5 366.5t-148.5 366.5t-364 149t-364.5 -149t-149 -366.5zM380 1214l238 256h47l238 -256h-47 l-215 231l-215 -231h-46z" />
<glyph unicode="&#xf5;" horiz-adv-x="1323" d="M106 532q0 234 162.5 394t394 160t393.5 -160t162 -394t-162 -393.5t-393.5 -159.5t-394 159.5t-162.5 393.5zM149 532.5q0 -217.5 149 -366.5t364.5 -149t364 149t148.5 366.5t-148.5 366.5t-364 149t-364.5 -149t-149 -366.5zM372 1256q0 149 85.5 184.5t198.5 -81.5 q98 -100 162 -72t64 148h36q0 -144 -86 -180.5t-198 78.5q-97 100 -161 73.5t-64 -150.5h-37z" />
<glyph unicode="&#xf6;" horiz-adv-x="1323" d="M106 532q0 234 162.5 394t394 160t393.5 -160t162 -394t-162 -393.5t-393.5 -159.5t-394 159.5t-162.5 393.5zM149 532.5q0 -217.5 149 -366.5t364.5 -149t364 149t148.5 366.5t-148.5 366.5t-364 149t-364.5 -149t-149 -366.5zM433 1277.5q0 17.5 12.5 30.5t29.5 13 t30 -13t13 -30.5t-13 -29.5t-30 -12t-29.5 12t-12.5 29.5zM773 1277.5q0 17.5 13 30.5t30 13t29.5 -13t12.5 -30.5t-12.5 -29.5t-29.5 -12t-30 12t-13 29.5z" />
<glyph unicode="&#xf7;" horiz-adv-x="1234" d="M149 726v38h937v-38h-937zM565 346.5q0 23.5 15.5 38.5t37 15t37.5 -15t16 -38.5t-16 -38t-37.5 -14.5t-37 14.5t-15.5 38zM565 1143.5q0 23.5 15.5 38.5t37 15t37.5 -15t16 -38.5t-16 -38t-37.5 -14.5t-37 14.5t-15.5 38z" />
<glyph unicode="&#xf8;" horiz-adv-x="1323" d="M106 532q0 234 162.5 394t393.5 160q210 0 364 -131l102 110l33 -19l-106 -117q164 -160 163 -397q0 -234 -162 -393.5t-394 -159.5q-209 0 -364 131l-102 -110l-32 19l106 117q-164 160 -164 396zM149 532.5q0 -217.5 149 -366.5l701 759q-144 123 -337 123 q-215 0 -364 -149t-149 -366.5zM326 140q145 -123 336 -123q216 0 364.5 149t148.5 366.5t-149 366.5z" />
<glyph unicode="&#xf9;" horiz-adv-x="1224" d="M160 388v677h43v-677q0 -162 97.5 -266.5t266.5 -104.5q187 0 305 131t118 346v571h43v-1065h-43v292q-43 -151 -158.5 -232t-266.5 -81q-181 0 -293 113t-112 296zM435 1470h44l171 -256h-36z" />
<glyph unicode="&#xfa;" horiz-adv-x="1224" d="M160 388v677h43v-677q0 -162 97.5 -266.5t266.5 -104.5q187 0 305 131t118 346v571h43v-1065h-43v292q-43 -151 -158.5 -232t-266.5 -81q-181 0 -293 113t-112 296zM543 1214l170 256h45l-177 -256h-38z" />
<glyph unicode="&#xfb;" horiz-adv-x="1224" d="M160 388v677h43v-677q0 -162 97.5 -266.5t266.5 -104.5q187 0 305 131t118 346v571h43v-1065h-43v292q-43 -151 -158.5 -232t-266.5 -81q-181 0 -293 113t-112 296zM330 1214l239 256h47l238 -256h-47l-215 231l-216 -231h-46z" />
<glyph unicode="&#xfc;" horiz-adv-x="1224" d="M160 388v677h43v-677q0 -162 97.5 -266.5t266.5 -104.5q187 0 305 131t118 346v571h43v-1065h-43v292q-43 -151 -158.5 -232t-266.5 -81q-181 0 -293 113t-112 296zM384 1277.5q0 17.5 12.5 30.5t29.5 13t30 -13t13 -30.5t-13 -29.5t-30 -12t-29.5 12t-12.5 29.5z M724 1277.5q0 17.5 13 30.5t30 13t29.5 -13t12.5 -30.5t-12.5 -29.5t-29.5 -12t-30 12t-13 29.5z" />
<glyph unicode="&#xfd;" horiz-adv-x="1085" d="M43 1065h42l490 -1063l427 1063h42l-467 -1163q-63 -158 -173 -248.5t-233 -79.5v38q110 -8 208 74t160 229l14 38zM518 1214l170 256h45l-177 -256h-38z" />
<glyph unicode="&#xfe;" horiz-adv-x="1409" d="M191 -426v1917h43v-761q57 160 197 258t317 98q232 0 393.5 -160t161.5 -394t-161.5 -393.5t-393.5 -159.5q-177 0 -316.5 98t-197.5 258v-761h-43zM234 532.5q0 -217.5 149 -366.5t364.5 -149t364 149t148.5 366.5t-148.5 366.5t-364 149t-364.5 -149t-149 -366.5z" />
<glyph unicode="&#xff;" horiz-adv-x="1085" d="M43 1065h42l490 -1063l427 1063h42l-467 -1163q-63 -158 -173 -248.5t-233 -79.5v38q110 -8 208 74t160 229l14 38zM358 1277.5q0 17.5 13 30.5t29.5 13t29.5 -13t13 -30.5t-13 -29.5t-29.5 -12t-29.5 12t-13 29.5zM699 1277.5q0 17.5 12.5 30.5t29.5 13t30 -13t13 -30.5 t-13 -29.5t-30 -12t-29.5 12t-12.5 29.5z" />
<glyph unicode="&#x131;" horiz-adv-x="425" d="M191 0v1065h43v-1065h-43z" />
<glyph unicode="&#x152;" horiz-adv-x="1929" d="M128 745.5q0 323.5 208.5 545t537.5 221.5q108 0 203 -21h736v-38h-693v-682h640v-38h-640v-695h703v-38h-746q-95 -21 -203 -21q-328 0 -537 221.5t-209 545zM171 746q0 -309 196 -519t507 -210q114 0 203 24v1410q-89 24 -203 23q-311 0 -507 -209.5t-196 -518.5z" />
<glyph unicode="&#x153;" horiz-adv-x="2333" d="M106 532q0 234 162.5 394t393.5 160q192 0 336 -114t189 -295q44 181 183.5 295t333.5 114q231 0 377.5 -165t146.5 -393v-22h-1021q9 -217 153 -353t353 -136q140 0 252 59.5t165 159.5l36 -21q-61 -108 -181.5 -172t-271.5 -64q-196 0 -340 112t-186 297 q-45 -181 -189 -295t-336 -114q-231 0 -393.5 159.5t-162.5 393.5zM149 532.5q0 -217.5 149 -366.5t364.5 -149t359 149t143.5 366.5t-143.5 366.5t-359 149t-364.5 -149t-149 -366.5zM1207 545h982q-12 224 -149.5 363.5t-335.5 139.5q-210 0 -351 -142t-146 -361z" />
<glyph unicode="&#x178;" horiz-adv-x="1191" d="M21 1491h48l527 -837l528 837h47l-553 -873v-618h-43v618zM384 1704q0 17 12.5 29.5t29.5 12.5t30 -12.5t13 -29.5t-13 -30t-30 -13t-29.5 13t-12.5 30zM724 1704q0 17 13 29.5t30 12.5t29.5 -12.5t12.5 -29.5t-12.5 -30t-29.5 -13t-30 13t-13 30z" />
<glyph unicode="&#x192;" horiz-adv-x="917" d="M0 -396q110 -49 200 8.5t113 196.5l158 917h-266v40h272l86 490q26 149 129 216.5t226 23.5v-43q-110 49 -200 -9t-113 -196l-83 -482h279v-40h-285l-160 -927q-26 -148 -129 -215.5t-227 -22.5v43z" />
<glyph unicode="&#x2c6;" horiz-adv-x="608" d="M43 1214l238 256h47l239 -256h-47l-215 231l-216 -231h-46z" />
<glyph unicode="&#x2c7;" horiz-adv-x="608" d="M45 1470h47l215 -230l215 230h47l-239 -256h-47z" />
<glyph unicode="&#x2d8;" horiz-adv-x="595" d="M43 1441h38q0 -85 60 -137t157.5 -52t157.5 52.5t60 136.5h37q0 -99 -70 -161t-185 -62t-185 62t-70 161z" />
<glyph unicode="&#x2d9;" horiz-adv-x="212" d="M43 1299.5q0 27.5 18 45.5t45.5 18t46 -18t18.5 -45.5t-18.5 -45.5t-46 -18t-45.5 18t-18 45.5z" />
<glyph unicode="&#x2da;" horiz-adv-x="489" d="M43 1384q0 83 56.5 138t145.5 55q92 0 147 -55t55 -138t-55 -137t-147 -54q-89 0 -145.5 54t-56.5 137zM81 1385q0 -70 46 -114t118 -44t118 44t46 114t-46 113.5t-118 43.5t-118 -43.5t-46 -113.5z" />
<glyph unicode="&#x2db;" horiz-adv-x="333" d="M43 -307q0 145 195 307h49q-207 -177 -206 -307q0 -49 32 -77.5t83 -28.5q55 0 96 17v-35q-37 -16 -96 -16q-71 0 -112 37.5t-41 102.5z" />
<glyph unicode="&#x2dc;" horiz-adv-x="630" d="M43 1256q0 149 85 184.5t198 -81.5q97 -100 161 -72t64 148h37q0 -144 -86.5 -180.5t-196.5 78.5q-100 100 -163 73.5t-63 -150.5h-36z" />
<glyph unicode="&#x2dd;" horiz-adv-x="595" d="M43 1214h36l157 277h-45zM339 1214h35l179 277h-44z" />
<glyph unicode="&#x3a9;" horiz-adv-x="1788" d="M128 746q0 317 224.5 541.5t542 224.5t542 -224.5t224.5 -541.5q0 -238 -135.5 -431t-350.5 -277h465v-38h-571v38q238 60 393.5 257t155.5 451q0 302 -211.5 515t-512 213t-512 -213t-211.5 -515q0 -254 155.5 -451t393.5 -257v-38h-571v38h465q-216 84 -351 276 t-135 432z" />
<glyph unicode="&#x3c0;" horiz-adv-x="1384" d="M85 1026v39h1214v-39h-177v-1026h-42v1026h-767v-1026h-43v1026h-185z" />
<glyph unicode="&#x401;" d="M213 0v1491h820v-38h-777v-682h724v-38h-724v-695h788v-38h-831zM409 1704q0 17 13 29.5t30 12.5t29.5 -12.5t12.5 -29.5t-12.5 -30t-29.5 -13t-30 13t-13 30zM750 1704q0 17 12.5 29.5t29.5 12.5t30 -12.5t13 -29.5t-13 -30t-30 -13t-29.5 13t-12.5 30z" />
<glyph unicode="&#x402;" horiz-adv-x="1490" d="M63 1453v38h1023v-38h-533v-563q118 57 205.5 84.5t210.5 27.5q158 0 265.5 -97.5t107.5 -272.5v-387q0 -132 -75.5 -201.5t-220.5 -53.5v38q254 -28 253 217v387q0 151 -93.5 241t-236.5 90q-117 0 -208.5 -28t-207.5 -85v-850h-41v1453h-449z" />
<glyph unicode="&#x403;" horiz-adv-x="1064" d="M213 0v1491h789v-38h-746v-1453h-43zM535 1638l170 256h45l-177 -256h-38z" />
<glyph unicode="&#x404;" horiz-adv-x="1626" d="M128 745.5q0 321.5 218.5 544t547.5 222.5q198 0 365.5 -92.5t260.5 -250.5l-36 -21q-87 149 -244.5 237.5t-345.5 88.5q-306 0 -510.5 -204.5t-212.5 -505.5h890v-38h-890q8 -301 212.5 -505t510.5 -204q194 0 355 92.5t244 248.5l39 -21q-92 -164 -262.5 -261 t-375.5 -97q-329 0 -547.5 222.5t-218.5 544z" />
<glyph unicode="&#x405;" horiz-adv-x="1213" d="M118 307l35 21q38 -139 167 -225t323 -86q207 0 314.5 101t107.5 254q0 137 -109.5 219t-319.5 144q-113 33 -184.5 62.5t-140.5 74t-101.5 108.5t-32.5 146q0 163 122.5 274.5t316.5 111.5q170 0 284 -83t165 -217l-34 -19q-109 281 -415 281q-185 0 -291 -104 t-106 -244q0 -61 25.5 -111t58 -82t100.5 -65t114 -50t137 -47q224 -73 339 -160t115 -239q0 -176 -125 -284.5t-340 -108.5q-207 0 -345 92.5t-180 235.5z" />
<glyph unicode="&#x406;" horiz-adv-x="468" d="M213 0v1491h43v-1491h-43z" />
<glyph unicode="&#x407;" horiz-adv-x="468" d="M21 1704q0 17 13 29.5t30 12.5t29.5 -12.5t12.5 -29.5t-12.5 -30t-29.5 -13t-30 13t-13 30zM213 0v1491h43v-1491h-43zM362 1704q0 17 13 29.5t30 12.5t29.5 -12.5t12.5 -29.5t-12.5 -30t-29.5 -13t-30 13t-13 30z" />
<glyph unicode="&#x408;" horiz-adv-x="1179" d="M106 219l34 21q94 -223 390 -223q194 0 304.5 102.5t110.5 264.5v1107h43v-1107q0 -183 -127.5 -294t-330.5 -111q-156 0 -265 63.5t-159 176.5z" />
<glyph unicode="&#x409;" horiz-adv-x="2118" d="M53 -4v38q158 -12 249.5 113t91.5 428v916h809v-682h384q179 0 302 -115t123 -289.5t-123 -289.5t-302 -115h-426v1453h-724v-878q0 -294 -93.5 -444t-290.5 -135zM1203 38h384q160 0 271.5 105t111.5 262.5t-112 261.5t-271 104h-384v-733z" />
<glyph unicode="&#x40a;" horiz-adv-x="2108" d="M213 0v1491h43v-682h894v682h43v-682h384q179 0 302 -115t123 -289.5t-123 -289.5t-302 -115h-427v771h-894v-771h-43zM1193 38h384q160 0 271 105t111 262.5t-111.5 261.5t-270.5 104h-384v-733z" />
<glyph unicode="&#x40b;" horiz-adv-x="1512" d="M63 1453v38h1023v-38h-533v-563q118 57 205.5 84.5t210.5 27.5q158 0 265.5 -97.5t107.5 -272.5v-632h-43v632q0 151 -93.5 241t-236.5 90q-117 0 -208.5 -28t-207.5 -85v-850h-41v1453h-449z" />
<glyph unicode="&#x40c;" horiz-adv-x="1181" d="M213 0v1491h43v-713l826 713h58l-837 -725l858 -766h-58l-847 756v-756h-43zM556 1638l170 256h45l-177 -256h-38z" />
<glyph unicode="&#x40e;" horiz-adv-x="1189" d="M85 1491h43l524 -1060l454 1060h42l-496 -1165q-149 -348 -412 -326v38q236 -18 374 303l16 41zM354 1704v34h510v-34h-510z" />
<glyph unicode="&#x40f;" horiz-adv-x="1490" d="M213 0v1491h43v-1453h980v1453h42v-1491h-512v-285h-42v285h-511z" />
<glyph unicode="&#x410;" horiz-adv-x="1337" d="M53 0l590 1491h52l589 -1491h-44l-160 407h-822l-160 -407h-45zM272 445h793l-396 1002z" />
<glyph unicode="&#x411;" horiz-adv-x="1245" d="M213 0v1491h831v-38h-788v-601h468q175 0 300.5 -125.5t125.5 -300t-125.5 -300.5t-300.5 -126h-511zM256 38h468q158 0 271 114t113 274t-113 273.5t-271 113.5h-468v-775z" />
<glyph unicode="&#x412;" horiz-adv-x="1341" d="M213 0v1491h584q156 0 265 -110.5t109 -264.5q0 -120 -68 -215.5t-178 -134.5q134 -28 222.5 -133t88.5 -243q0 -162 -114 -276t-276 -114h-633zM256 38h590q142 0 244.5 103.5t102.5 248.5t-102.5 248.5t-244.5 103.5h-590v-704zM256 780h541q136 0 233.5 99t97.5 237 t-97.5 237.5t-233.5 99.5h-541v-673z" />
<glyph unicode="&#x413;" horiz-adv-x="1064" d="M213 0v1491h789v-38h-746v-1453h-43z" />
<glyph unicode="&#x414;" horiz-adv-x="1469" d="M53 38h113q165 169 164 541v912h895v-1453h149v-323h-43v285h-1235v-285h-43v323zM222 38h960v1415h-810v-874q0 -362 -150 -541z" />
<glyph unicode="&#x415;" d="M213 0v1491h820v-38h-777v-682h724v-38h-724v-695h788v-38h-831z" />
<glyph unicode="&#x416;" horiz-adv-x="1720" d="M43 0l752 766l-732 725h55l721 -713v713h43v-713l722 713h53l-730 -725l752 -766h-53l-744 756v-756h-43v756l-743 -756h-53z" />
<glyph unicode="&#x417;" d="M85 290l37 19q97 -292 468 -292q195 0 313.5 103.5t118.5 263.5q0 153 -105.5 255.5t-282.5 102.5h-163v38h125q170 0 271.5 98t101.5 242q0 153 -109.5 253.5t-276.5 100.5q-313 0 -423 -271l-34 20q122 290 457 289q186 0 307.5 -111.5t121.5 -280.5 q0 -126 -72.5 -221.5t-197.5 -134.5q148 -30 235.5 -134t87.5 -246q0 -177 -131 -291t-344 -114q-394 0 -505 311z" />
<glyph unicode="&#x418;" horiz-adv-x="1490" d="M213 0v1491h43v-1418l980 1418h42v-1491h-42v1419l-980 -1419h-43z" />
<glyph unicode="&#x419;" horiz-adv-x="1490" d="M213 0v1491h43v-1418l980 1418h42v-1491h-42v1419l-980 -1419h-43zM490 1706v34h512v-34h-512z" />
<glyph unicode="&#x41a;" horiz-adv-x="1181" d="M213 0v1491h43v-713l826 713h58l-837 -725l858 -766h-58l-847 756v-756h-43z" />
<glyph unicode="&#x41b;" horiz-adv-x="1500" d="M53 0v38q158 -14 249.5 110t91.5 427v916h895v-1491h-43v1453h-809v-878q0 -294 -94 -443t-290 -132z" />
<glyph unicode="&#x41c;" horiz-adv-x="1746" d="M213 0v1491h55l606 -985l604 985h56v-1491h-43v1433l-609 -988h-18l-608 988v-1433h-43z" />
<glyph unicode="&#x41d;" horiz-adv-x="1490" d="M213 0v1491h43v-705h980v705h42v-1491h-42v748h-980v-748h-43z" />
<glyph unicode="&#x41e;" horiz-adv-x="1788" d="M128 745.5q0 317.5 224.5 542t542 224.5t542 -224.5t224.5 -542t-224.5 -542t-542 -224.5t-542 224.5t-224.5 542zM171 745.5q0 -302.5 211.5 -515.5t512 -213t512 213t211.5 515.5t-211.5 515.5t-512 213t-512 -213t-211.5 -515.5z" />
<glyph unicode="&#x41f;" horiz-adv-x="1490" d="M213 0v1491h1065v-1491h-42v1453h-980v-1453h-43z" />
<glyph unicode="&#x420;" horiz-adv-x="1234" d="M213 0v1491h458q197 0 327 -127.5t130 -319.5t-129.5 -320t-327.5 -128h-415v-596h-43zM256 634h415q181 0 298 116.5t117 293.5t-117 293t-298 116h-415v-819z" />
<glyph unicode="&#x421;" horiz-adv-x="1626" d="M128 745.5q0 321.5 218.5 544t547.5 222.5q198 0 365.5 -92.5t260.5 -250.5l-36 -21q-87 149 -244.5 237.5t-345.5 88.5q-313 0 -518 -211t-205 -517.5t205 -517.5t518 -211q194 0 355 93t244 248l39 -21q-92 -164 -262.5 -261t-375.5 -97q-329 0 -547.5 222.5 t-218.5 544z" />
<glyph unicode="&#x422;" d="M63 1453v38h1023v-38h-490v-1453h-43v1453h-490z" />
<glyph unicode="&#x423;" horiz-adv-x="1189" d="M85 1491h43l524 -1060l454 1060h42l-496 -1165q-149 -348 -412 -326v38q236 -18 374 303l16 41z" />
<glyph unicode="&#x424;" horiz-adv-x="1711" d="M85 745.5q0 272.5 208.5 424t541.5 155.5v166h43v-166q332 -4 541 -155.5t209 -424t-209 -423.5t-541 -156v-166h-43v166q-332 5 -541 156t-209 423.5zM128 745q0 -247 190.5 -391.5t516.5 -148.5v1081q-325 -4 -516 -149t-191 -392zM878 205q325 4 516 148.5t191 391.5 t-191 392t-516 149v-1081z" />
<glyph unicode="&#x425;" horiz-adv-x="1191" d="M63 0l508 760l-488 731h51l462 -692l463 692h51l-488 -731l506 -760h-51l-481 722l-481 -722h-52z" />
<glyph unicode="&#x426;" horiz-adv-x="1469" d="M213 0v1491h43v-1453h937v1453h43v-1453h148v-323h-42v285h-1129z" />
<glyph unicode="&#x427;" horiz-adv-x="1341" d="M171 980v511h42v-511q0 -165 113 -265.5t313 -100.5q223 0 447 104v773h42v-1491h-42v675q-213 -100 -447 -100q-224 0 -346 114t-122 291z" />
<glyph unicode="&#x428;" horiz-adv-x="2065" d="M213 0v1491h43v-1453h756v1453h43v-1453h756v1453h42v-1491h-1640z" />
<glyph unicode="&#x429;" horiz-adv-x="2087" d="M213 0v1491h43v-1453h756v1453h43v-1453h756v1453h42v-1453h149v-323h-43v285h-1746z" />
<glyph unicode="&#x42a;" horiz-adv-x="1447" d="M0 1453v38h469v-597h415q198 0 328 -127.5t130 -319t-130 -319.5t-328 -128h-458v1453h-426zM469 38h415q181 0 298 116t117 293t-117 293t-298 116h-415v-818z" />
<glyph unicode="&#x42b;" horiz-adv-x="1575" d="M213 0v1491h43v-597h415q197 0 327 -127.5t130 -319t-129.5 -319.5t-327.5 -128h-458zM256 38h415q181 0 298 116t117 293t-117 293t-298 116h-415v-818zM1321 0v1491h42v-1491h-42z" />
<glyph unicode="&#x42c;" horiz-adv-x="1234" d="M213 0v1491h43v-597h415q197 0 327 -127.5t130 -319t-129.5 -319.5t-327.5 -128h-458zM256 38h415q181 0 298 116t117 293t-117 293t-298 116h-415v-818z" />
<glyph unicode="&#x42d;" horiz-adv-x="1626" d="M96 337l38 21q83 -156 244 -248.5t355 -92.5q307 0 511.5 204.5t212.5 504.5h-890v38h890q-8 301 -213 505.5t-511 204.5q-187 0 -345 -88.5t-246 -237.5l-36 21q94 158 262 250.5t365 92.5q330 0 548.5 -222.5t218.5 -544t-218.5 -544t-548.5 -222.5q-205 0 -375.5 97 t-261.5 261z" />
<glyph unicode="&#x42e;" horiz-adv-x="2256" d="M213 0v1491h43v-705h340q17 305 239 515.5t528 210.5q318 0 542.5 -224.5t224.5 -542t-224.5 -542t-542 -224.5t-542.5 224.5t-225 542.5v2h-340v-748h-43zM639 745.5q0 -302.5 212 -515.5t512 -213t512 213t212 515.5t-212 515.5t-512 213t-512 -213t-212 -515.5z" />
<glyph unicode="&#x42f;" horiz-adv-x="1362" d="M106 0l441 639q-166 10 -282 133.5t-116 292.5q0 175 125.5 300.5t300.5 125.5h575v-1491h-42v639h-516l-439 -639h-47zM191 1065q0 -160 113 -274t271 -114h533v776h-533q-158 0 -271 -114t-113 -274z" />
<glyph unicode="&#x430;" horiz-adv-x="1409" d="M106 532q0 234 162.5 394t393.5 160q175 0 313.5 -95t199.5 -252v326h43v-1065h-43v326q-61 -159 -199.5 -253t-313.5 -94q-231 0 -393.5 159.5t-162.5 393.5zM149 532.5q0 -217.5 149 -366.5t364.5 -149t364 149t148.5 366.5t-148.5 366.5t-364 149t-364.5 -149 t-149 -366.5z" />
<glyph unicode="&#x431;" horiz-adv-x="1234" d="M106 522q0 256 74 401.5t304 261.5q59 30 140 62.5t130 54t100 51t79 67t38 88.5l35 -19q-13 -65 -65.5 -116.5t-106.5 -77t-160.5 -69.5t-169.5 -74q-176 -87 -256 -198t-95 -304q77 156 211 236.5t288 80.5q211 0 354.5 -141t143.5 -357q0 -215 -144 -354t-367 -139 q-232 0 -382.5 149.5t-150.5 396.5zM149 522q0 -224 136 -365.5t354 -141.5q207 0 338 126.5t131 327.5q0 198 -130 329t-326 131q-183 0 -322 -115t-181 -292z" />
<glyph unicode="&#x432;" horiz-adv-x="1106" d="M191 0v1065h478q144 0 222 -75.5t78 -192.5q0 -187 -168 -244q108 -24 164.5 -95.5t56.5 -174.5q0 -124 -82 -203.5t-235 -79.5h-514zM234 38h471q130 0 202.5 65t72.5 180t-72.5 180t-202.5 65h-471v-490zM234 567h435q121 0 189.5 62t68.5 168t-68.5 167.5t-189.5 61.5 h-435v-459z" />
<glyph unicode="&#x433;" horiz-adv-x="862" d="M191 0v1065h640v-39h-597v-1026h-43z" />
<glyph unicode="&#x434;" horiz-adv-x="1256" d="M63 38h114q128 184 128 480v547h717v-1027h149v-323h-43v285h-1022v-285h-43v323zM226 38h754v988h-633v-508q0 -294 -121 -480z" />
<glyph unicode="&#x435;" horiz-adv-x="1275" d="M106 532q0 237 153 395.5t387 158.5q232 0 377.5 -165t145.5 -393v-22h-1020q8 -217 152 -353t353 -136q141 0 252.5 59.5t164.5 159.5l37 -21q-62 -108 -182.5 -172t-271.5 -64q-236 0 -392 156.5t-156 396.5zM149 545h981q-12 224 -149.5 363.5t-334.5 139.5 q-209 0 -351 -142t-146 -361z" />
<glyph unicode="&#x436;" horiz-adv-x="1366" d="M63 0l557 553l-535 512h55l522 -496v496h43v-496l522 496h55l-534 -512l555 -553h-55l-543 539v-539h-43v539l-542 -539h-57z" />
<glyph unicode="&#x437;" horiz-adv-x="947" d="M85 224l35 18q68 -225 366 -225q153 0 243.5 70.5t90.5 185.5t-80 185t-216 70h-128v39h92q128 0 203 66t75 174q0 106 -84 173.5t-213 67.5q-124 0 -209 -53.5t-120 -142.5l-34 20q39 97 132.5 155.5t230.5 58.5q153 0 246.5 -82t93.5 -197q0 -87 -49 -155.5t-138 -98.5 q115 -26 177.5 -102.5t62.5 -178.5q0 -123 -100 -208t-276 -85q-322 0 -401 245z" />
<glyph unicode="&#x438;" horiz-adv-x="1234" d="M191 0v1065h43v-996l768 996h42v-1065h-42v996l-768 -996h-43z" />
<glyph unicode="&#x439;" horiz-adv-x="1234" d="M191 0v1065h43v-996l768 996h42v-1065h-42v996l-768 -996h-43zM362 1280v35h512v-35h-512z" />
<glyph unicode="&#x43a;" horiz-adv-x="981" d="M191 0v1065h43v-498l603 498h59l-617 -512l639 -553h-60l-624 541v-541h-43z" />
<glyph unicode="&#x43b;" horiz-adv-x="1234" d="M43 0v38q138 -10 205 85.5t67 309.5v632h729v-1065h-42v1026h-644v-593q0 -250 -86.5 -347.5t-228.5 -85.5z" />
<glyph unicode="&#x43c;" horiz-adv-x="1384" d="M191 0v1065h59l443 -665l443 665h57v-1065h-43v1012l-451 -680h-14l-451 680v-1012h-43z" />
<glyph unicode="&#x43d;" horiz-adv-x="1234" d="M191 0v1065h43v-514h768v514h42v-1065h-42v514h-768v-514h-43z" />
<glyph unicode="&#x43e;" horiz-adv-x="1323" d="M106 532q0 234 162.5 394t394 160t393.5 -160t162 -394t-162 -393.5t-393.5 -159.5t-394 159.5t-162.5 393.5zM149 532.5q0 -217.5 149 -366.5t364.5 -149t364 149t148.5 366.5t-148.5 366.5t-364 149t-364.5 -149t-149 -366.5z" />
<glyph unicode="&#x43f;" horiz-adv-x="1234" d="M191 0v1065h853v-1065h-42v1026h-768v-1026h-43z" />
<glyph unicode="&#x440;" horiz-adv-x="1409" d="M191 -426v1491h43v-335q57 160 197 258t317 98q232 0 393.5 -160t161.5 -394t-161.5 -393.5t-393.5 -159.5q-177 0 -316.5 98t-197.5 258v-761h-43zM234 532.5q0 -217.5 149 -366.5t364.5 -149t364 149t148.5 366.5t-148.5 366.5t-364 149t-364.5 -149t-149 -366.5z" />
<glyph unicode="&#x441;" horiz-adv-x="1232" d="M106 532q0 234 160 394t396 160q156 0 280.5 -70.5t183.5 -188.5l-33 -22q-55 110 -170.5 176.5t-260.5 66.5q-221 0 -367 -148t-146 -367.5t146 -367.5t367 -148q145 0 259 66t172 177l33 -22q-59 -119 -183.5 -189t-280.5 -70q-236 0 -396 159.5t-160 393.5z" />
<glyph unicode="&#x442;" horiz-adv-x="937" d="M43 1026v39h851v-39h-404v-1026h-43v1026h-404z" />
<glyph unicode="&#x443;" horiz-adv-x="1085" d="M43 1065h42l490 -1063l427 1063h42l-467 -1163q-63 -158 -173 -248.5t-233 -79.5v38q110 -8 208 74t160 229l14 38z" />
<glyph unicode="&#x444;" horiz-adv-x="1426" d="M106 532q0 234 164.5 392t422.5 167v400h42v-400q258 -8 422 -166.5t164 -392.5t-164.5 -391.5t-421.5 -166.5v-400h-42v400q-258 8 -422.5 166t-164.5 392zM149 532.5q0 -219.5 152 -365.5t392 -155v1040q-239 -8 -391.5 -154t-152.5 -365.5zM735 12q238 9 390.5 155 t152.5 365.5t-152.5 365.5t-390.5 154v-1040z" />
<glyph unicode="&#x445;" horiz-adv-x="1064" d="M63 0l443 545l-421 520h51l396 -488l397 488h51l-422 -520l444 -545h-55l-415 514l-414 -514h-55z" />
<glyph unicode="&#x446;" horiz-adv-x="1277" d="M191 0v1065h43v-1027h746v1027h42v-1027h171v-323h-43v285h-959z" />
<glyph unicode="&#x447;" horiz-adv-x="1171" d="M149 703v362h42v-362q0 -140 99.5 -221.5t280.5 -81.5q189 0 366 86v579h43v-1065h-43v443q-173 -81 -366 -81q-196 0 -309 90.5t-113 250.5z" />
<glyph unicode="&#x448;" horiz-adv-x="1766" d="M191 0v1065h43v-1027h628v1027h43v-1027h629v1027h43v-1065h-1386z" />
<glyph unicode="&#x449;" horiz-adv-x="1809" d="M191 0v1065h43v-1027h628v1027h43v-1027h629v1027h43v-1027h148v-323h-42v285h-1492z" />
<glyph unicode="&#x44a;" d="M0 1026v39h362v-431h358q142 0 243.5 -86t101.5 -228.5t-101.5 -231t-243.5 -88.5h-401v1026h-319zM362 38h358q130 0 216 80t86 201.5t-85 199t-217 77.5h-358v-558z" />
<glyph unicode="&#x44b;" horiz-adv-x="1362" d="M191 0v1065h43v-431h358q142 0 243.5 -86t101.5 -228.5t-101 -231t-244 -88.5h-401zM234 38h358q130 0 216 80t86 201.5t-85 199t-217 77.5h-358v-558zM1128 0v1065h43v-1065h-43z" />
<glyph unicode="&#x44c;" horiz-adv-x="1022" d="M191 0v1065h43v-431h358q142 0 243.5 -86t101.5 -228.5t-101 -231t-244 -88.5h-401zM234 38h358q130 0 216 80t86 201.5t-85 199t-217 77.5h-358v-558z" />
<glyph unicode="&#x44d;" horiz-adv-x="1211" d="M85 238l35 22q57 -113 173 -178t268 -65q221 0 358.5 140.5t143.5 356.5h-590v37h590q-6 215 -143.5 356t-358.5 141q-153 0 -269.5 -65t-171.5 -178l-35 22q60 119 186.5 189t289.5 70q242 0 393.5 -157.5t151.5 -396t-151.5 -396t-393.5 -157.5q-163 0 -289.5 70.5 t-186.5 188.5z" />
<glyph unicode="&#x44e;" horiz-adv-x="1724" d="M191 0v1065h43v-514h272q9 228 169 381.5t388 153.5q232 0 393.5 -160t161.5 -394t-161.5 -393.5t-393.5 -159.5q-228 0 -387.5 153t-169.5 382h-272v-514h-43zM549 532.5q0 -217.5 149.5 -366.5t364.5 -149t364.5 149t149.5 366.5t-149.5 366.5t-364.5 149t-364.5 -149 t-149.5 -366.5z" />
<glyph unicode="&#x44f;" horiz-adv-x="1064" d="M106 0l352 431q-139 4 -234.5 90t-95.5 225q0 142 101 230.5t244 88.5h401v-1065h-43v431h-325l-344 -431h-56zM171 745.5q0 -121.5 85 -199t217 -77.5h358v557h-358q-130 0 -216 -79.5t-86 -201z" />
<glyph unicode="&#x451;" horiz-adv-x="1275" d="M106 532q0 237 153 395.5t387 158.5q232 0 377.5 -165t145.5 -393v-22h-1020q8 -217 152 -353t353 -136q141 0 252.5 59.5t164.5 159.5l37 -21q-62 -108 -182.5 -172t-271.5 -64q-236 0 -392 156.5t-156 396.5zM149 545h981q-12 224 -149.5 363.5t-334.5 139.5 q-209 0 -351 -142t-146 -361zM419 1277.5q0 17.5 13 30.5t30 13t29.5 -13t12.5 -30.5t-12.5 -29.5t-29.5 -12t-30 12t-13 29.5zM760 1277.5q0 17.5 13 30.5t30 13t30 -13t13 -30.5t-13 -29.5t-30 -12t-30 12t-13 29.5z" />
<glyph unicode="&#x452;" horiz-adv-x="1266" d="M63 1268v35h171v188h43v-188h383v-35h-383v-495q42 151 158.5 232t267.5 81q181 0 293 -113t112 -296v-868q0 -132 -75.5 -201.5t-221.5 -54.5v38q254 -28 254 218v868q0 162 -98 266.5t-266 104.5q-187 0 -305.5 -131t-118.5 -346v-571h-43v1268h-171z" />
<glyph unicode="&#x453;" horiz-adv-x="862" d="M191 0v1065h640v-39h-597v-1026h-43zM407 1214l170 256h45l-177 -256h-38z" />
<glyph unicode="&#x454;" horiz-adv-x="1211" d="M106 532.5q0 238.5 151.5 396t394.5 157.5q162 0 288.5 -70.5t185.5 -188.5l-33 -22q-55 113 -171.5 178t-269.5 65q-221 0 -358.5 -141t-144.5 -356h590v-37h-590q6 -216 144 -356.5t359 -140.5q151 0 267 65t174 178l33 -22q-59 -119 -186 -189t-288 -70 q-242 0 -394 157.5t-152 396z" />
<glyph unicode="&#x455;" horiz-adv-x="990" d="M118 203l33 19q65 -205 361 -205q144 0 236.5 73.5t92.5 186.5q0 93 -71 146.5t-172.5 76t-203.5 46t-173.5 81.5t-71.5 161q0 128 97 213t260 85q124 0 213.5 -55t128.5 -149l-35 -20q-34 85 -114.5 135.5t-192.5 50.5q-142 0 -228.5 -72t-86.5 -188q0 -91 72 -142.5 t174 -73t203.5 -45t172.5 -84.5t71 -166q0 -126 -104.5 -212t-267.5 -86q-315 0 -394 224z" />
<glyph unicode="&#x456;" horiz-adv-x="425" d="M164 1435.5q0 19.5 13.5 34t35 14.5t35.5 -14.5t14 -34t-14 -34.5t-35.5 -15t-35 15t-13.5 34.5zM191 0v1065h43v-1065h-43z" />
<glyph unicode="&#x457;" horiz-adv-x="425" d="M0 1277.5q0 17.5 13 30.5t29.5 13t29.5 -13t13 -30.5t-13 -29.5t-29.5 -12t-29.5 12t-13 29.5zM191 0v1065h43v-1065h-43zM341 1277.5q0 17.5 12.5 30.5t29.5 13t30 -13t13 -30.5t-13 -29.5t-30 -12t-29.5 12t-12.5 29.5z" />
<glyph unicode="&#x458;" horiz-adv-x="445" d="M-43 -409q254 -28 254 218v1256h43v-1256q0 -132 -76 -201.5t-221 -54.5v38zM183 1435.5q0 19.5 14 34t35.5 14.5t35 -14.5t13.5 -34t-13.5 -34.5t-35 -15t-35.5 15t-14 34.5z" />
<glyph unicode="&#x459;" horiz-adv-x="1766" d="M43 0v38q138 -10 205 85.5t67 309.5v632h707v-473h337q139 0 231.5 -76.5t92.5 -217t-93.5 -219.5t-230.5 -79h-379v1026h-622v-593q0 -250 -86.5 -347.5t-228.5 -85.5zM1022 38h337q126 0 203.5 70.5t77.5 189.5t-78 187t-203 68h-337v-515z" />
<glyph unicode="&#x45a;" horiz-adv-x="1724" d="M171 0v1065h42v-473h724v473h43v-473h337q138 0 230.5 -76.5t92.5 -217t-93.5 -219.5t-229.5 -79h-380v553h-724v-553h-42zM980 38h337q125 0 202.5 70.5t77.5 189.5t-78 187t-202 68h-337v-515z" />
<glyph unicode="&#x45b;" horiz-adv-x="1266" d="M63 1268v35h171v188h43v-188h383v-35h-383v-495q42 151 158.5 232t267.5 81q181 0 293 -113t112 -296v-677h-43v677q0 162 -98 266.5t-266 104.5q-187 0 -305.5 -131t-118.5 -346v-571h-43v1268h-171z" />
<glyph unicode="&#x45c;" horiz-adv-x="981" d="M191 0v1065h43v-498l603 498h59l-617 -512l639 -553h-60l-624 541v-541h-43zM449 1214l171 256h45l-177 -256h-39z" />
<glyph unicode="&#x45e;" horiz-adv-x="1085" d="M43 1065h42l490 -1063l427 1063h42l-467 -1163q-63 -158 -173 -248.5t-233 -79.5v38q110 -8 208 74t160 229l14 38zM315 1280v35h512v-35h-512z" />
<glyph unicode="&#x45f;" horiz-adv-x="1234" d="M191 0v1065h43v-1027h768v1027h42v-1065h-405v-285h-43v285h-405z" />
<glyph unicode="&#x490;" horiz-adv-x="1064" d="M213 0v1491h746v255h43v-293h-746v-1453h-43z" />
<glyph unicode="&#x491;" horiz-adv-x="862" d="M191 0v1065h597v221h43v-260h-597v-1026h-43z" />
<glyph unicode="&#x2000;" horiz-adv-x="948" />
<glyph unicode="&#x2001;" horiz-adv-x="1896" />
<glyph unicode="&#x2002;" horiz-adv-x="948" />
<glyph unicode="&#x2003;" horiz-adv-x="1896" />
<glyph unicode="&#x2004;" horiz-adv-x="632" />
<glyph unicode="&#x2005;" horiz-adv-x="474" />
<glyph unicode="&#x2006;" horiz-adv-x="316" />
<glyph unicode="&#x2007;" horiz-adv-x="316" />
<glyph unicode="&#x2008;" horiz-adv-x="237" />
<glyph unicode="&#x2009;" horiz-adv-x="379" />
<glyph unicode="&#x200a;" horiz-adv-x="105" />
<glyph unicode="&#x2010;" horiz-adv-x="1191" d="M213 639v38h767v-38h-767z" />
<glyph unicode="&#x2011;" horiz-adv-x="1191" d="M213 639v38h767v-38h-767z" />
<glyph unicode="&#x2012;" horiz-adv-x="1191" d="M213 639v38h767v-38h-767z" />
<glyph unicode="&#x2013;" horiz-adv-x="1490" d="M213 639v38h1065v-38h-1065z" />
<glyph unicode="&#x2014;" horiz-adv-x="1703" d="M213 639v38h1278v-38h-1278z" />
<glyph unicode="&#x2018;" horiz-adv-x="404" d="M138 1118l90 373h38l-73 -373h-55z" />
<glyph unicode="&#x2019;" horiz-adv-x="404" d="M138 1118l73 373h55l-89 -373h-39z" />
<glyph unicode="&#x201a;" horiz-adv-x="404" d="M138 -298l73 373h55l-89 -373h-39z" />
<glyph unicode="&#x201c;" horiz-adv-x="616" d="M138 1118l90 373h38l-73 -373h-55zM352 1118l89 373h38l-72 -373h-55z" />
<glyph unicode="&#x201d;" horiz-adv-x="616" d="M138 1118l73 373h55l-89 -373h-39zM352 1118l72 373h55l-89 -373h-38z" />
<glyph unicode="&#x201e;" horiz-adv-x="616" d="M138 -298l73 373h55l-89 -373h-39zM352 -298l72 373h55l-89 -373h-38z" />
<glyph unicode="&#x2020;" horiz-adv-x="979" d="M149 1052v39h320v400h43v-400h319v-39h-319v-1052h-43v1052h-320z" />
<glyph unicode="&#x2021;" horiz-adv-x="979" d="M149 400v39h320v613h-320v39h320v400h43v-400h319v-39h-319v-613h319v-39h-319v-400h-43v400h-320z" />
<glyph unicode="&#x2022;" horiz-adv-x="510" d="M128 748q0 53 37.5 89.5t92.5 36.5q53 0 89.5 -36.5t36.5 -89.5q0 -55 -36.5 -92.5t-89.5 -37.5t-91.5 38.5t-38.5 91.5z" />
<glyph unicode="&#x2026;" horiz-adv-x="1191" d="M138 31.5q0 23.5 16.5 38.5t37.5 15t37 -15t16 -38.5t-16 -38t-37 -14.5t-37.5 14.5t-16.5 38zM543 31.5q0 23.5 16 38.5t37.5 15t37.5 -15t16 -38.5t-16 -38t-37.5 -14.5t-37.5 14.5t-16 38zM947 31.5q0 23.5 16.5 38.5t37.5 15t37.5 -15t16.5 -38.5t-16.5 -38 t-37.5 -14.5t-37.5 14.5t-16.5 38z" />
<glyph unicode="&#x202f;" horiz-adv-x="379" />
<glyph unicode="&#x2030;" horiz-adv-x="2340" d="M149 1197q0 134 93 224.5t233.5 90.5t233 -90.5t92.5 -224.5t-91.5 -224.5t-234.5 -90.5q-140 0 -233 90.5t-93 224.5zM191 1197q0 -120 81.5 -198.5t202.5 -78.5q124 0 203.5 78.5t79.5 198.5t-81 198.5t-202 78.5t-202.5 -78.5t-81.5 -198.5zM242 171l1034 1169l34 -19 l-1035 -1170zM752 294q0 134 92.5 224.5t233 90.5t233.5 -90.5t93 -224.5t-93 -224.5t-233.5 -90.5t-233 90.5t-92.5 224.5zM795 294q0 -119 81 -198t202 -79t202 79t81 198t-81 198t-202 79t-202 -79t-81 -198zM1540 294q0 134 92.5 224.5t233 90.5t233 -90.5t92.5 -224.5 t-92.5 -224.5t-233 -90.5t-233 90.5t-92.5 224.5zM1583 294q0 -119 80.5 -198t202 -79t202.5 79t81 198t-81 198t-202.5 79t-202 -79t-80.5 -198z" />
<glyph unicode="&#x2039;" horiz-adv-x="685" d="M213 658l213 341h47l-213 -341l213 -341h-47z" />
<glyph unicode="&#x203a;" horiz-adv-x="685" d="M213 317l213 341l-213 341h47l213 -341l-213 -341h-47z" />
<glyph unicode="&#x2044;" horiz-adv-x="510" d="M-213 0l894 1491h43l-895 -1491h-42z" />
<glyph unicode="&#x205f;" horiz-adv-x="474" />
<glyph unicode="&#x20ac;" horiz-adv-x="1317" d="M63 579v39h199q-6 59 -6 127t6 129h-199v38h203q35 279 177.5 439.5t365.5 160.5q149 0 260 -75.5t164 -209.5l-36 -20q-49 128 -150.5 197.5t-237.5 69.5q-201 0 -333.5 -149.5t-166.5 -412.5h628v-38h-632q-7 -60 -7 -128.5t7 -127.5h632v-39h-628q34 -264 166.5 -413 t333.5 -149q136 0 237.5 69.5t152.5 196.5l34 -17q-53 -136 -163.5 -211.5t-260.5 -75.5q-223 0 -365.5 161t-177.5 439h-203z" />
<glyph unicode="&#x2122;" horiz-adv-x="1075" d="M149 1451v40h302v-40h-132v-386h-42v386h-128zM522 1065v426h43l159 -260l160 260h43v-426h-43v351l-156 -253h-8l-155 253v-351h-43z" />
<glyph unicode="&#x2202;" horiz-adv-x="1234" d="M128 426q0 220 129 355t346 135q246 0 441 -128q-10 301 -158.5 493.5t-383.5 192.5q-148 0 -254 -70v45q108 63 254 63q250 0 417 -210.5t167 -555.5q0 -362 -148 -564.5t-382 -202.5q-193 0 -310.5 126.5t-117.5 320.5zM171 426q0 -181 107.5 -295t277.5 -114 q222 0 353.5 194t134.5 526q-201 141 -441 141q-195 0 -313.5 -123t-118.5 -329z" />
<glyph unicode="&#x220f;" horiz-adv-x="1362" d="M213 -426v1917h937v-1917h-42v1879h-852v-1879h-43z" />
<glyph unicode="&#x2211;" horiz-adv-x="1154" d="M149 -390l595 943l-567 902v36h860v-38h-813l566 -900l-594 -941h873v-38h-920v36z" />
<glyph unicode="&#x221a;" horiz-adv-x="1339" d="M149 601v38h183l356 -596l545 1661h43l-560 -1704h-47l-358 601h-162z" />
<glyph unicode="&#x221e;" horiz-adv-x="1744" d="M149 745.5q0 142.5 88.5 231t222.5 88.5q70 0 133 -24.5t118 -75.5t84.5 -85t78.5 -100q51 66 78.5 99t83 85t117 76.5t131.5 24.5q135 0 223 -88.5t88 -231t-88 -231t-223 -88.5q-70 0 -131.5 24.5t-117 76.5t-83 85.5t-78.5 98.5q-49 -65 -78.5 -99.5t-84.5 -85.5 t-118 -75.5t-133 -24.5q-134 0 -222.5 88.5t-88.5 231zM191 746q0 -126 74.5 -204t194.5 -78q63 0 121 24t110.5 75t80 82.5t76.5 100.5q-49 68 -76.5 100t-80 83t-110 74t-121.5 23q-120 0 -194.5 -77t-74.5 -203zM899 746q48 -69 76.5 -100.5t80.5 -82.5t108.5 -75 t119.5 -24q120 0 194.5 78t74.5 204t-74.5 203t-194.5 77q-63 0 -119.5 -23t-108.5 -74t-80.5 -83.5t-76.5 -99.5z" />
<glyph unicode="&#x222b;" horiz-adv-x="917" d="M0 -392q108 -49 191.5 7.5t109.5 197.5l248 1447q28 153 127 218.5t242 19.5v-41q-126 47 -213 -7.5t-113 -197.5l-249 -1448q-28 -148 -123.5 -215.5t-219.5 -23.5v43z" />
<glyph unicode="&#x2248;" horiz-adv-x="1217" d="M149 477q8 35 24 69.5t54.5 75t87.5 59t130 -1t175 -87.5q104 -75 185 -87.5t126 25t67 77t33 84.5l38 -18q-8 -34 -24 -69t-54.5 -75.5t-87.5 -58t-128.5 2t-176.5 85.5q-85 60 -155.5 78t-113 4t-74 -48t-45.5 -66t-23 -66zM149 817q8 35 24 70t54.5 76t87.5 58.5 t130 -1t175 -87.5q104 -75 185 -87.5t126 24.5t67 76.5t33 84.5l38 -17q-8 -34 -24 -69.5t-54.5 -75.5t-87.5 -57t-129 2t-176 85q-85 59 -155.5 77t-113 4.5t-74 -47.5t-45.5 -66t-23 -66z" />
<glyph unicode="&#x2260;" horiz-adv-x="1128" d="M149 514v37h315l182 388h-497v39h513l167 353h43l-167 -353h275v-39h-292l-182 -388h474v-37h-490l-167 -354h-42l166 354h-298z" />
<glyph unicode="&#x2264;" d="M149 256v38h853v-38h-853zM149 850v38l853 348v-43l-806 -324l806 -324v-43z" />
<glyph unicode="&#x2265;" d="M149 256v38h853v-38h-853zM149 502v43l806 324l-806 324v43l853 -348v-38z" />
<glyph unicode="&#x25ca;" horiz-adv-x="1136" d="M149 746l398 745h43l398 -745l-398 -746h-43zM196 746l373 -697l372 697l-372 695z" />
<glyph unicode="&#x25fc;" horiz-adv-x="1064" d="M0 0v1065h1065v-1065h-1065z" />
</font>
</defs>
</svg>
