<?xml version="1.0" encoding="utf-8"?><svg width="302" height="333" viewBox="0 0 302 333" xmlns="http://www.w3.org/2000/svg" xmlns:xlink="http://www.w3.org/1999/xlink"><svg width="302" height="149" fill="none" viewBox="-5 -5 302 149" id="group41" xmlns="http://www.w3.org/2000/svg"><g filter="url(#afilter0_d)"><path d="M90.423 10.756h-27.43c-3.786 0-6.854 2.286-6.854 5.106v20.433c0 2.82 3.068 5.105 6.853 5.105h27.431c3.785 0 6.854-2.285 6.854-5.105V15.862c0-2.82-3.069-5.106-6.854-5.106z" fill="#56CCF2"/></g><path d="M87 25.007h-4.17l3.24-2.43-1.41-1.065L80 25.007h-2v-1.5l4.66-3.495-1.42-1.058-3.24 2.43v-3.127h-2v3.128l-3.24-2.43-1.42 1.057L76 23.507v1.5h-2l-4.66-3.495-1.41 1.065 3.24 2.43H67v1.5h4.17l-3.24 2.43 1.41 1.066L74 26.508h2v1.5l-4.66 3.495 1.42 1.057L76 30.13v3.128h2V30.13l3.24 2.43 1.42-1.057L78 28.008v-1.5h2l4.66 3.495 1.41-1.065-3.24-2.43H87v-1.5z" fill="#fff"/><g filter="url(#afilter1_d)"><path d="M264.284 88.011h-27.43c-3.785 0-6.854 2.286-6.854 5.106v20.433c0 2.82 3.069 5.106 6.854 5.106h27.43c3.786 0 6.854-2.286 6.854-5.106V93.117c0-2.82-3.068-5.106-6.854-5.106z" fill="#F2C94C"/></g><path d="M260 100.762c0-3.75-4-6.75-9-6.75s-9 3-9 6.75c0 2.325 1.6 4.426 4 5.626v1.875c0 .975.8 1.8 2 2.1v.15c0 1.275 1.3 2.25 3 2.25s3-.975 3-2.25v-.15c1.2-.3 2-1.125 2-2.1v-1.875c2.4-1.2 4-3.301 4-5.626zm-16 0c0-2.925 3.1-5.25 7-5.25s7 2.325 7 5.25c0 2.625-2.6 4.801-6 5.176v-1.876l1.7-1.275c.4-.3.4-.75 0-1.05-.4-.3-1-.3-1.4 0l-1.3.975-1.3-.975c-.4-.3-1-.3-1.4 0-.4.3-.4.75 0 1.05l1.7 1.275v1.876c-3.4-.375-6-2.551-6-5.176zm7 10.501c-.6 0-1-.3-1-.75h2c0 .45-.4.75-1 .75zm3-3c0 .45-.4.75-1 .75h-4c-.6 0-1-.3-1-.75v-1.125c.9.225 1.9.375 3 .375s2.1-.15 3-.375v1.125z" fill="#fff"/><g filter="url(#afilter2_d)"><path d="M44.284 88.011h-27.43c-3.785 0-6.854 2.286-6.854 5.106v20.433c0 2.82 3.069 5.105 6.854 5.105h27.43c3.786 0 6.854-2.285 6.854-5.105V93.117c0-2.82-3.068-5.106-6.854-5.106z" fill="#F58A8A"/></g><g clip-path="url(#aclip0)"><path d="M37 100.012h-1v-1.5c0-2.07-2.24-3.75-5-3.75s-5 1.68-5 3.75v1.5h-1c-1.1 0-2 .675-2 1.5v7.501c0 .825.9 1.5 2 1.5h12c1.1 0 2-.675 2-1.5v-7.501c0-.825-.9-1.5-2-1.5zm-6 6.751c-1.1 0-2-.675-2-1.5 0-.826.9-1.501 2-1.501s2 .675 2 1.501c0 .825-.9 1.5-2 1.5zm3.1-6.751h-6.2v-1.5c0-1.282 1.39-2.325 3.1-2.325 1.71 0 3.1 1.043 3.1 2.325v1.5z" fill="#fff"/></g><g filter="url(#afilter3_d)"><path d="M218.284 10.756h-27.43c-3.785 0-6.854 2.286-6.854 5.106v20.433c0 2.82 3.069 5.105 6.854 5.105h27.43c3.786 0 6.854-2.285 6.854-5.105V15.862c0-2.82-3.068-5.106-6.854-5.106z" fill="#6FCF97"/></g><path d="M210.311 21.93h-16.332v7.655h16.332V21.93zM214.713 23.453l-3.605 1.136v2.369l3.605 1.136h1.307v-4.641h-1.307z" fill="#fff"/><defs><filter id="afilter0_d" x="46.139" y=".756" width="71.138" height="60.644" filterUnits="userSpaceOnUse" color-interpolation-filters="sRGB"><feFlood flood-opacity="0" result="BackgroundImageFix"/><feColorMatrix in="SourceAlpha" values="0 0 0 0 0 0 0 0 0 0 0 0 0 0 0 0 0 0 127 0"/><feOffset dx="5" dy="5"/><feGaussianBlur stdDeviation="7.5"/><feColorMatrix values="0 0 0 0 0 0 0 0 0 0 0 0 0 0 0 0 0 0 0.15 0"/><feBlend in2="BackgroundImageFix" result="effect1_dropShadow"/><feBlend in="SourceGraphic" in2="effect1_dropShadow" result="shape"/></filter><filter id="afilter1_d" x="220" y="78.011" width="71.138" height="60.644" filterUnits="userSpaceOnUse" color-interpolation-filters="sRGB"><feFlood flood-opacity="0" result="BackgroundImageFix"/><feColorMatrix in="SourceAlpha" values="0 0 0 0 0 0 0 0 0 0 0 0 0 0 0 0 0 0 127 0"/><feOffset dx="5" dy="5"/><feGaussianBlur stdDeviation="7.5"/><feColorMatrix values="0 0 0 0 0 0 0 0 0 0 0 0 0 0 0 0 0 0 0.15 0"/><feBlend in2="BackgroundImageFix" result="effect1_dropShadow"/><feBlend in="SourceGraphic" in2="effect1_dropShadow" result="shape"/></filter><filter id="afilter2_d" x="0" y="78.011" width="71.138" height="60.644" filterUnits="userSpaceOnUse" color-interpolation-filters="sRGB"><feFlood flood-opacity="0" result="BackgroundImageFix"/><feColorMatrix in="SourceAlpha" values="0 0 0 0 0 0 0 0 0 0 0 0 0 0 0 0 0 0 127 0"/><feOffset dx="5" dy="5"/><feGaussianBlur stdDeviation="7.5"/><feColorMatrix values="0 0 0 0 0 0 0 0 0 0 0 0 0 0 0 0 0 0 0.15 0"/><feBlend in2="BackgroundImageFix" result="effect1_dropShadow"/><feBlend in="SourceGraphic" in2="effect1_dropShadow" result="shape"/></filter><filter id="afilter3_d" x="174" y=".756" width="71.138" height="60.644" filterUnits="userSpaceOnUse" color-interpolation-filters="sRGB"><feFlood flood-opacity="0" result="BackgroundImageFix"/><feColorMatrix in="SourceAlpha" values="0 0 0 0 0 0 0 0 0 0 0 0 0 0 0 0 0 0 127 0"/><feOffset dx="5" dy="5"/><feGaussianBlur stdDeviation="7.5"/><feColorMatrix values="0 0 0 0 0 0 0 0 0 0 0 0 0 0 0 0 0 0 0.15 0"/><feBlend in2="BackgroundImageFix" result="effect1_dropShadow"/><feBlend in="SourceGraphic" in2="effect1_dropShadow" result="shape"/></filter><clipPath id="aclip0"><path fill="#fff" transform="translate(19 94.012)" d="M0 0h24v18.001H0z"/></clipPath></defs></svg><svg width="265" height="184" fill="none" viewBox="-5 -5 265 184" id="group42" y="149" xmlns="http://www.w3.org/2000/svg"><g filter="url(#bfilter0_d)"><path d="M85.423 10h-27.43c-3.786 0-6.854 3.047-6.854 6.807v27.242c0 3.76 3.068 6.807 6.853 6.807h27.431c3.785 0 6.854-3.047 6.854-6.807V16.807c0-3.76-3.069-6.807-6.854-6.807z" fill="#56CCF2"/></g><path d="M82 29h-4.17l3.24-3.24-1.41-1.42L75 29h-2v-2l4.66-4.66-1.42-1.41L73 24.17V20h-2v4.17l-3.24-3.24-1.42 1.41L71 27v2h-2l-4.66-4.66-1.41 1.42L66.17 29H62v2h4.17l-3.24 3.24 1.41 1.42L69 31h2v2l-4.66 4.66 1.42 1.41L71 35.83V40h2v-4.17l3.24 3.24 1.42-1.41L73 33v-2h2l4.66 4.66 1.41-1.42L77.83 31H82v-2z" fill="#fff"/><g filter="url(#bfilter1_d)"><path d="M227.284 113h-27.43c-3.785 0-6.854 3.048-6.854 6.807v27.242c0 3.76 3.069 6.807 6.854 6.807h27.43c3.786 0 6.854-3.047 6.854-6.807v-27.242c0-3.759-3.068-6.807-6.854-6.807z" fill="#F2C94C"/></g><path d="M223 130c0-5-4-9-9-9s-9 4-9 9c0 3.1 1.6 5.9 4 7.5v2.5c0 1.3.8 2.4 2 2.8v.2c0 1.7 1.3 3 3 3s3-1.3 3-3v-.2c1.2-.4 2-1.5 2-2.8v-2.5c2.4-1.6 4-4.4 4-7.5zm-16 0c0-3.9 3.1-7 7-7s7 3.1 7 7c0 3.5-2.6 6.4-6 6.9v-2.5l1.7-1.7c.4-.4.4-1 0-1.4-.4-.4-1-.4-1.4 0l-1.3 1.3-1.3-1.3c-.4-.4-1-.4-1.4 0-.4.4-.4 1 0 1.4l1.7 1.7v2.5c-3.4-.5-6-3.4-6-6.9zm7 14c-.6 0-1-.4-1-1h2c0 .6-.4 1-1 1zm3-4c0 .6-.4 1-1 1h-4c-.6 0-1-.4-1-1v-1.5c.9.3 1.9.5 3 .5s2.1-.2 3-.5v1.5z" fill="#fff"/><g filter="url(#bfilter2_d)"><path d="M44.284 113h-27.43c-3.785 0-6.854 3.048-6.854 6.807v27.242c0 3.76 3.069 6.807 6.854 6.807h27.43c3.786 0 6.854-3.047 6.854-6.807v-27.242c0-3.759-3.068-6.807-6.854-6.807z" fill="#F58A8A"/></g><path d="M37 130h-1v-2c0-2.76-2.24-5-5-5s-5 2.24-5 5v2h-1c-1.1 0-2 .9-2 2v10c0 1.1.9 2 2 2h12c1.1 0 2-.9 2-2v-10c0-1.1-.9-2-2-2zm-6 9c-1.1 0-2-.9-2-2s.9-2 2-2 2 .9 2 2-.9 2-2 2zm3.1-9h-6.2v-2c0-1.71 1.39-3.1 3.1-3.1 1.71 0 3.1 1.39 3.1 3.1v2z" fill="#fff"/><g filter="url(#bfilter3_d)"><path d="M182.284 10h-27.43c-3.785 0-6.854 3.047-6.854 6.807v27.242c0 3.76 3.069 6.807 6.854 6.807h27.43c3.786 0 6.854-3.047 6.854-6.807V16.807c0-3.76-3.068-6.807-6.854-6.807z" fill="#6FCF97"/></g><path d="M174.311 24.896h-16.332v10.207h16.332V24.896zM178.713 26.928l-3.605 1.515V31.6l3.605 1.515h1.307v-6.187h-1.307z" fill="#fff"/><defs><filter id="bfilter0_d" x="41.139" y="0" width="71.138" height="70.856" filterUnits="userSpaceOnUse" color-interpolation-filters="sRGB"><feFlood flood-opacity="0" result="BackgroundImageFix"/><feColorMatrix in="SourceAlpha" values="0 0 0 0 0 0 0 0 0 0 0 0 0 0 0 0 0 0 127 0"/><feOffset dx="5" dy="5"/><feGaussianBlur stdDeviation="7.5"/><feColorMatrix values="0 0 0 0 0 0 0 0 0 0 0 0 0 0 0 0 0 0 0.15 0"/><feBlend in2="BackgroundImageFix" result="effect1_dropShadow"/><feBlend in="SourceGraphic" in2="effect1_dropShadow" result="shape"/></filter><filter id="bfilter1_d" x="183" y="103" width="71.138" height="70.856" filterUnits="userSpaceOnUse" color-interpolation-filters="sRGB"><feFlood flood-opacity="0" result="BackgroundImageFix"/><feColorMatrix in="SourceAlpha" values="0 0 0 0 0 0 0 0 0 0 0 0 0 0 0 0 0 0 127 0"/><feOffset dx="5" dy="5"/><feGaussianBlur stdDeviation="7.5"/><feColorMatrix values="0 0 0 0 0 0 0 0 0 0 0 0 0 0 0 0 0 0 0.15 0"/><feBlend in2="BackgroundImageFix" result="effect1_dropShadow"/><feBlend in="SourceGraphic" in2="effect1_dropShadow" result="shape"/></filter><filter id="bfilter2_d" x="0" y="103" width="71.138" height="70.856" filterUnits="userSpaceOnUse" color-interpolation-filters="sRGB"><feFlood flood-opacity="0" result="BackgroundImageFix"/><feColorMatrix in="SourceAlpha" values="0 0 0 0 0 0 0 0 0 0 0 0 0 0 0 0 0 0 127 0"/><feOffset dx="5" dy="5"/><feGaussianBlur stdDeviation="7.5"/><feColorMatrix values="0 0 0 0 0 0 0 0 0 0 0 0 0 0 0 0 0 0 0.15 0"/><feBlend in2="BackgroundImageFix" result="effect1_dropShadow"/><feBlend in="SourceGraphic" in2="effect1_dropShadow" result="shape"/></filter><filter id="bfilter3_d" x="138" y="0" width="71.138" height="70.856" filterUnits="userSpaceOnUse" color-interpolation-filters="sRGB"><feFlood flood-opacity="0" result="BackgroundImageFix"/><feColorMatrix in="SourceAlpha" values="0 0 0 0 0 0 0 0 0 0 0 0 0 0 0 0 0 0 127 0"/><feOffset dx="5" dy="5"/><feGaussianBlur stdDeviation="7.5"/><feColorMatrix values="0 0 0 0 0 0 0 0 0 0 0 0 0 0 0 0 0 0 0.15 0"/><feBlend in2="BackgroundImageFix" result="effect1_dropShadow"/><feBlend in="SourceGraphic" in2="effect1_dropShadow" result="shape"/></filter></defs></svg></svg>