<?xml version="1.0" standalone="no"?>
<!DOCTYPE svg PUBLIC "-//W3C//DTD SVG 1.1//EN" "http://www.w3.org/Graphics/SVG/1.1/DTD/svg11.dtd" >
<svg xmlns="http://www.w3.org/2000/svg" xmlns:xlink="http://www.w3.org/1999/xlink" version="1.1">
<metadata></metadata>
<defs>
<font id="gilroyregular" horiz-adv-x="1354" >
<font-face units-per-em="2048" ascent="1638" descent="-410" />
<missing-glyph horiz-adv-x="532" />
<glyph unicode="&#xfb01;" horiz-adv-x="1098" d="M53 929v136h181v43q0 408 447 408q90 0 205 -25v-128q-100 17 -205 17q-160 0 -233.5 -62t-73.5 -210v-43h576v-1065h-141v929h-435v-929h-140v929h-181z" />
<glyph unicode="&#xfb02;" horiz-adv-x="1098" d="M53 929v136h181v43q0 408 447 408q124 0 269 -25v-1491h-141v1382q-69 6 -128 6q-158 0 -232.5 -65t-74.5 -215v-43h244v-136h-244v-929h-140v929h-181z" />
<glyph horiz-adv-x="0" />
<glyph unicode="&#xd;" horiz-adv-x="708" />
<glyph unicode=" "  horiz-adv-x="532" />
<glyph unicode="&#x09;" horiz-adv-x="532" />
<glyph unicode="&#xa0;" horiz-adv-x="532" />
<glyph unicode="!" horiz-adv-x="489" d="M128 96q0 49 34 83t83 34t83 -34t34 -83t-34 -83t-83 -34t-83 34t-34 83zM160 1065v426h170v-426l-32 -660h-107z" />
<glyph unicode="&#x22;" horiz-adv-x="659" d="M106 1491h150l-22 -426h-106zM405 1491h148l-21 -426h-106z" />
<glyph unicode="#" horiz-adv-x="1275" d="M63 490l22 128h256l43 256h-258l21 128h258l64 382h136l-64 -382h282l63 382h136l-63 -382h253l-21 -128h-254l-43 -256h256l-22 -128h-254l-65 -384h-136l64 384h-281l-64 -384h-136l63 384h-256zM477 618h281l43 256h-281z" />
<glyph unicode="$" horiz-adv-x="1171" d="M85 285l128 75q79 -218 340 -238v587q-95 35 -153.5 62.5t-120.5 74t-90.5 115t-28.5 159.5q0 166 112 272t281 122v190h128v-192q126 -14 224.5 -84.5t149.5 -189.5l-126 -71q-69 170 -248 199v-555q94 -32 156 -61.5t124.5 -78.5t93.5 -119t31 -164q0 -166 -113 -278 t-292 -131v-192h-128v189q-172 10 -293.5 91.5t-174.5 217.5zM309 1120q0 -98 59.5 -155.5t184.5 -106.5v510q-110 -13 -177 -78.5t-67 -169.5zM681 124q120 16 188 86.5t68 177.5q0 104 -64 165t-192 112v-541z" />
<glyph unicode="%" horiz-adv-x="1510" d="M128 1197q0 134 93.5 226.5t232 92.5t232.5 -92.5t94 -226.5t-92 -226.5t-235 -92.5q-138 0 -231.5 92.5t-93.5 226.5zM203 203l998 1122l92 -51l-1001 -1123zM264 1197q0 -81 53 -136t136.5 -55t136.5 55t53 136t-53 136t-136.5 55t-136.5 -55t-53 -136zM730 294 q0 134 94 227t232.5 93t232 -93t93.5 -227t-93.5 -227t-232 -93t-232.5 93t-94 227zM867 293.5q0 -80.5 53 -136t136.5 -55.5t136.5 55.5t53 136t-53 136.5t-136.5 56t-136.5 -56t-53 -136.5z" />
<glyph unicode="&#x26;" horiz-adv-x="1398" d="M128 396q0 141 72 253.5t215 179.5q-110 126 -110 281q0 185 128 295.5t297 110.5q143 0 261.5 -79.5t169.5 -215.5l-126 -73q-32 104 -114 164t-188 60q-115 0 -197.5 -70.5t-82.5 -183.5q0 -75 35.5 -134t103.5 -132l449 -480q61 122 81 284l132 -77 q-28 -185 -108 -317l200 -213l-132 -75l-157 168q-169 -168 -439 -168q-220 0 -355 114.5t-135 307.5zM277 400q0 -130 90.5 -205t246.5 -75q213 0 341 132l-439 466q-126 -47 -182.5 -133.5t-56.5 -184.5z" />
<glyph unicode="'" horiz-adv-x="361" d="M106 1491h150l-22 -426h-106z" />
<glyph unicode="(" horiz-adv-x="565" d="M128 746q0 490 234 958h140q-234 -470 -234 -959t234 -958h-140q-234 469 -234 959z" />
<glyph unicode=")" horiz-adv-x="565" d="M63 -213q234 469 234.5 959t-234.5 958h142q234 -470 234 -959t-234 -958h-142z" />
<glyph unicode="*" horiz-adv-x="834" d="M128 1180v119l193 -6l-110 160l108 63l98 -172l99 172l108 -63l-110 -160l193 6v-119l-193 7l110 -161l-108 -63l-99 173l-98 -173l-108 63l110 161z" />
<glyph unicode="+" horiz-adv-x="1149" d="M128 677v136h378v380h137v-380h379v-136h-379v-379h-137v379h-378z" />
<glyph unicode="," horiz-adv-x="510" d="M128 -298l85 479h171l-128 -479h-128z" />
<glyph unicode="-" horiz-adv-x="1106" d="M171 590v136h766v-136h-766z" />
<glyph unicode="." horiz-adv-x="489" d="M128 96q0 49 34 83t83 34t83 -34t34 -83t-34 -83t-83 -34t-83 34t-34 83z" />
<glyph unicode="/" horiz-adv-x="1128" d="M85 -213l852 1917h107l-853 -1917h-106z" />
<glyph unicode="0" horiz-adv-x="1341" d="M106 745.5q0 351.5 148 561t416.5 209.5t417 -209.5t148.5 -561t-148.5 -561.5t-417 -210t-416.5 210t-148 561.5zM256 745.5q0 -298.5 109.5 -462t305.5 -163.5t305.5 163.5t109.5 462t-109.5 462.5t-305.5 164t-305.5 -164t-109.5 -462.5z" />
<glyph unicode="1" horiz-adv-x="723" d="M32 1355l394 136h127v-1491h-148v1327l-334 -100z" />
<glyph unicode="2" horiz-adv-x="1118" d="M85 0v134l537 541q230 230 230 394q0 143 -88.5 223t-212.5 80q-230 0 -334 -211l-125 75q70 138 191.5 209t267.5 71q179 0 315 -120t136 -327q0 -130 -73 -249t-205 -251l-426 -424h735v-145h-948z" />
<glyph unicode="3" horiz-adv-x="1128" d="M63 270l124 73q37 -110 130.5 -166.5t225.5 -56.5q153 0 252 81.5t99 230.5t-98.5 231.5t-252.5 82.5v2l-2 -2h-41l-63 97l370 507h-701v141h874v-141l-348 -478q179 -24 295.5 -138t116.5 -301q0 -214 -146 -336.5t-355 -122.5q-167 0 -296 77t-184 219z" />
<glyph unicode="4" horiz-adv-x="1234" d="M53 298v141l554 1052h164l-554 -1052h624v455h149v-455h192v-141h-192v-298h-149v298h-788z" />
<glyph unicode="5" horiz-adv-x="1149" d="M85 292l126 72q32 -120 127 -182t227 -62q153 0 252 81.5t99 230.5t-99 231.5t-252 82.5h-405l53 745h799v-141h-667l-32 -460h252q209 0 354.5 -122t145.5 -335.5t-146 -336t-354 -122.5q-169 0 -301 82t-179 236z" />
<glyph unicode="6" horiz-adv-x="1128" d="M63 467q0 168 93 297l487 727h168l-366 -546q58 14 120 14q219 0 359.5 -138t140.5 -354.5t-140.5 -354.5t-360 -138t-360.5 138t-141 355zM213 466.5q0 -155.5 97 -251t254.5 -95.5t254.5 95.5t97 251t-97 251t-254.5 95.5t-254.5 -95.5t-97 -251z" />
<glyph unicode="7" horiz-adv-x="1043" d="M43 1350v141h916v-141l-563 -1350h-156l563 1350h-760z" />
<glyph unicode="8" horiz-adv-x="1166" d="M85 405q0 121 67 216t180 148q-198 113 -198 334q0 201 133 307t316 106t316.5 -106.5t133.5 -306.5q0 -221 -198 -334q113 -53 180 -148t67 -216q0 -203 -142.5 -317t-356 -114t-356 114.5t-142.5 316.5zM234 404.5q0 -138.5 96 -211.5t254 -73t253.5 73t95.5 211.5 t-95.5 212.5t-253.5 74t-254 -74t-96 -212.5zM283 1103q0 -127 88.5 -197.5t212 -70.5t212 70.5t88.5 197.5q0 137 -86.5 203t-214 66t-214 -66t-86.5 -203z" />
<glyph unicode="9" horiz-adv-x="1128" d="M63 1024.5q0 217.5 141 354.5t360.5 137t360 -137t140.5 -355q0 -168 -92 -298l-487 -726h-169l366 545q-57 -13 -118 -13q-220 0 -361 137.5t-141 355zM213 1024.5q0 -155.5 97 -251.5t254.5 -96t254.5 96t97 251.5t-97 251.5t-254.5 96t-254.5 -96t-97 -251.5z" />
<glyph unicode=":" horiz-adv-x="489" d="M128 96q0 49 34 83t83 34t83 -34t34 -83t-34 -83t-83 -34t-83 34t-34 83zM128 969q0 49 34 83t83 34t83 -34t34 -83t-34 -83t-83 -34t-83 34t-34 83z" />
<glyph unicode=";" horiz-adv-x="521" d="M128 -298l85 479h171l-128 -479h-128zM160 969q0 49 34 83t83 34t83 -34t34 -83t-34 -83t-83 -34t-83 34t-34 83z" />
<glyph unicode="&#x3c;" horiz-adv-x="1106" d="M128 671v149l852 373v-158l-693 -289l693 -290v-158z" />
<glyph unicode="=" horiz-adv-x="1149" d="M128 464v137h894v-137h-894zM128 890v136h894v-136h-894z" />
<glyph unicode="&#x3e;" horiz-adv-x="1106" d="M128 298v158l692 290l-692 289v158l852 -373v-149z" />
<glyph unicode="?" horiz-adv-x="1132" d="M106 1227q49 143 171.5 216t278.5 73q188 0 319 -103t131 -291q0 -91 -43 -169.5t-102.5 -137.5t-119.5 -116.5t-102.5 -133t-42.5 -160.5h-149q0 104 42.5 190t102.5 146t119.5 115.5t102 122.5t42.5 143q0 124 -84 187t-216 63q-262 0 -324 -216zM405 96q0 49 34 83 t83 34t83 -34t34 -83t-34 -83t-83 -34t-83 34t-34 83z" />
<glyph unicode="@" horiz-adv-x="1691" d="M85 532q0 322 222.5 546.5t552.5 224.5q226 0 400.5 -109.5t260 -273.5t85.5 -345q0 -226 -91.5 -338.5t-215.5 -112.5q-89 0 -153 45.5t-85 137.5q-92 -116 -236 -116q-147 0 -246.5 98.5t-99.5 243t99 243t247 98.5q136 0 225 -103v87h132v-460q0 -205 139 -205 q93 0 157 93.5t64 288.5q0 285 -197 477t-485 192q-296 0 -503.5 -204.5t-207.5 -507.5q0 -308 213 -509.5t537 -201.5q215 0 371 61v-63q-160 -57 -371 -57q-350 0 -582 218t-232 552zM612 532.5q0 -95.5 65 -154.5t156.5 -59t154 59t62.5 154.5t-62.5 154.5t-154 59 t-156.5 -59t-65 -154.5z" />
<glyph unicode="A" horiz-adv-x="1341" d="M21 0l573 1491h154l573 -1491h-158l-139 366h-707l-138 -366h-158zM370 506h601l-300 799z" />
<glyph unicode="B" horiz-adv-x="1319" d="M171 0v1491h600q166 0 283 -118.5t117 -281.5q0 -210 -175 -318q108 -47 174 -141.5t66 -216.5q0 -173 -122 -294t-294 -121h-649zM319 140h501q110 0 188 80.5t78 194.5q0 113 -77.5 194.5t-188.5 81.5h-501v-551zM319 831h452q104 0 177.5 75.5t73.5 184.5 q0 106 -73.5 182.5t-177.5 76.5h-452v-519z" />
<glyph unicode="C" horiz-adv-x="1586" d="M85 745.5q0 323.5 221.5 547t560.5 223.5q207 0 379.5 -98.5t265.5 -267.5l-132 -77q-71 137 -209 218t-304 81q-278 0 -455.5 -181t-177.5 -445t177 -445t456 -181q167 0 305 80.5t208 216.5l132 -74q-91 -168 -264.5 -268.5t-380.5 -100.5q-339 0 -560.5 224 t-221.5 547.5z" />
<glyph unicode="D" horiz-adv-x="1532" d="M171 0v1491h575q304 0 503.5 -216t199.5 -529t-199.5 -529.5t-503.5 -216.5h-575zM319 140h427q245 0 401 175t156 431t-156.5 430t-400.5 174h-427v-1210z" />
<glyph unicode="E" horiz-adv-x="1128" d="M171 0v1491h862v-141h-714v-527h661v-142h-661v-541h725v-140h-873z" />
<glyph unicode="F" horiz-adv-x="1096" d="M171 0v1491h841v-141h-693v-549h661v-141h-661v-660h-148z" />
<glyph unicode="G" horiz-adv-x="1679" d="M85 745.5q0 323.5 221.5 547t560.5 223.5q207 0 379.5 -99.5t265.5 -266.5l-132 -77q-71 137 -209 218t-304 81q-278 0 -455.5 -181t-177.5 -445t177 -445t456 -181q252 0 403 126t171 323h-591v140h745v-77q0 -276 -198 -467t-530 -191q-339 0 -560.5 224t-221.5 547.5z " />
<glyph unicode="H" horiz-adv-x="1447" d="M171 0v1491h148v-654h809v654h150v-1491h-150v697h-809v-697h-148z" />
<glyph unicode="I" horiz-adv-x="489" d="M171 0v1491h148v-1491h-148z" />
<glyph unicode="J" horiz-adv-x="1177" d="M85 230l126 75q71 -185 328 -185q156 0 248.5 74t92.5 228v1069h149v-1069q0 -217 -139.5 -332.5t-350.5 -115.5q-156 0 -278.5 65t-175.5 191z" />
<glyph unicode="K" horiz-adv-x="1234" d="M171 0v1491h148v-682l677 682h197l-716 -725l737 -766h-196l-699 722v-722h-148z" />
<glyph unicode="L" horiz-adv-x="1043" d="M171 0v1491h148v-1351h683v-140h-831z" />
<glyph unicode="M" horiz-adv-x="1703" d="M171 0v1491h185l496 -831l496 831h186v-1491h-150v1266l-522 -874h-21l-522 874v-1266h-148z" />
<glyph unicode="N" horiz-adv-x="1447" d="M171 0v1491h127l830 -1214v1214h150v-1491h-128l-831 1214v-1214h-148z" />
<glyph unicode="O" horiz-adv-x="1711" d="M85 745.5q0 321.5 223.5 546t547.5 224.5t548 -224.5t224 -546t-224 -546.5t-548 -225t-547.5 225t-223.5 546.5zM234 746q0 -262 179 -444t443 -182t443 182t179 444t-179 444t-443 182t-443 -182t-179 -444z" />
<glyph unicode="P" horiz-adv-x="1256" d="M171 0v1491h532q201 0 334.5 -134t133.5 -334t-134 -335t-334 -135h-384v-553h-148zM319 695h384q138 0 228.5 92.5t90.5 235t-90.5 235t-228.5 92.5h-384v-655z" />
<glyph unicode="Q" horiz-adv-x="1722" d="M85 745.5q0 319.5 226 545t545 225.5t545.5 -225.5t226.5 -545t-226 -544.5l169 -167l-99 -91l-173 170q-201 -138 -443 -139q-319 0 -545 226t-226 545.5zM234 746q0 -260 182 -443t440 -183q181 0 337 97l-324 320l100 91l330 -323q179 183 179 441q0 260 -182 443 t-440 183t-440 -183t-182 -443z" />
<glyph unicode="R" horiz-adv-x="1298" d="M171 0v1491h595q186 0 317 -131t131 -316q0 -151 -90.5 -269.5t-231.5 -158.5l364 -616h-170l-349 596h-418v-596h-148zM319 737h447q124 0 211.5 90.5t87.5 216.5q0 128 -87.5 217t-211.5 89h-447v-613z" />
<glyph unicode="S" horiz-adv-x="1226" d="M85 339l128 74q41 -138 149.5 -215.5t278.5 -77.5q166 0 258.5 73t92.5 195q0 117 -84.5 176.5t-281.5 123.5q-232 77 -307 123q-170 102 -170 297q0 189 132 298.5t326 109.5q175 0 302.5 -90.5t189.5 -230.5l-126 -71q-101 248 -366 248q-138 0 -223.5 -68t-85.5 -190 q0 -110 76.5 -166t253.5 -113q81 -28 116.5 -39.5t102.5 -38.5t99 -46.5t77.5 -55t66 -71t36.5 -85.5t16 -107q0 -189 -139 -303.5t-364 -114.5q-205 0 -351 97t-203 268z" />
<glyph unicode="T" horiz-adv-x="1149" d="M43 1350v141h1065v-141h-458v-1350h-150v1350h-457z" />
<glyph unicode="U" horiz-adv-x="1405" d="M149 506v985h149v-985q0 -178 107 -282t298 -104t298 104t107 282v985h148v-985q0 -242 -153 -387t-400 -145t-400.5 145t-153.5 387z" />
<glyph unicode="V" horiz-adv-x="1294" d="M21 1491h162l465 -1293l464 1293h162l-550 -1491h-153z" />
<glyph unicode="W" horiz-adv-x="2129" d="M63 1491h159l368 -1288l388 1288h174l388 -1288l368 1288h158l-432 -1491h-179l-390 1295l-390 -1295h-179z" />
<glyph unicode="X" horiz-adv-x="1234" d="M43 0l489 769l-457 722h167l376 -588l374 588h169l-458 -722l490 -769h-171l-404 636l-405 -636h-170z" />
<glyph unicode="Y" horiz-adv-x="1266" d="M21 1491h168l445 -731l443 731h169l-539 -879v-612h-149v616z" />
<glyph unicode="Z" horiz-adv-x="1106" d="M85 0v140l771 1210h-750v141h916v-141l-770 -1210h792v-140h-959z" />
<glyph unicode="[" horiz-adv-x="595" d="M128 -213v1917h425v-137h-285v-1644h285v-136h-425z" />
<glyph unicode="\" horiz-adv-x="1128" d="M85 1704h106l853 -1917h-107z" />
<glyph unicode="]" horiz-adv-x="595" d="M43 -77h285v1644h-285v137h426v-1917h-426v136z" />
<glyph unicode="^" horiz-adv-x="1064" d="M85 852l375 639h145l375 -639h-165l-283 483l-282 -483h-165z" />
<glyph unicode="_" horiz-adv-x="1106" d="M85 -164h937v-137h-937v137z" />
<glyph unicode="`" horiz-adv-x="425" d="M43 1491l205 -277h136l-171 277h-170z" />
<glyph unicode="a" d="M85 532q0 234 161 396.5t388 162.5q283 0 431 -235v209h140v-1065h-140v209q-147 -234 -431 -235q-227 0 -388 162t-161 396zM226 532.5q0 -176.5 121.5 -299.5t298.5 -123t298 123t121 299.5t-121 299.5t-298 123t-298.5 -123t-121.5 -299.5z" />
<glyph unicode="b" d="M149 0v1491h141v-635q147 235 430 235q227 0 388.5 -162.5t161.5 -396.5t-161.5 -396t-388.5 -162q-283 0 -430 235v-209h-141zM290 532.5q0 -176.5 121 -299.5t298 -123t298 123t121 299.5t-121 299.5t-298 123t-298 -123t-121 -299.5z" />
<glyph unicode="c" horiz-adv-x="1175" d="M85 532.5q0 236.5 160 397.5t401 161q158 0 283.5 -76t182.5 -204l-116 -65q-42 95 -137 152t-213 57q-177 0 -298.5 -123t-121.5 -299.5t121.5 -299.5t298.5 -123q119 0 212.5 57t147.5 152l116 -67q-65 -128 -192.5 -203t-283.5 -75q-240 0 -400.5 161t-160.5 397.5z " />
<glyph unicode="d" d="M85 532q0 234 161 396.5t388 162.5q283 0 431 -235v635h140v-1491h-140v209q-147 -234 -431 -235q-227 0 -388 162t-161 396zM226 532.5q0 -176.5 121.5 -299.5t298.5 -123t298 123t121 299.5t-121 299.5t-298 123t-298.5 -123t-121.5 -299.5z" />
<glyph unicode="e" horiz-adv-x="1243" d="M85 532q0 239 155 399t401 160q236 0 382 -167.5t146 -395.5q0 -24 -4 -66h-935q21 -162 137.5 -257t286.5 -95q122 0 210 50.5t132 131.5l124 -73q-71 -113 -192 -179t-276 -66q-252 0 -409.5 158t-157.5 400zM230 598h794q-20 168 -129.5 262.5t-253.5 94.5 q-167 0 -278 -99.5t-133 -257.5z" />
<glyph unicode="f" horiz-adv-x="681" d="M53 929v136h181v43q0 209 116 316q102 94 277 94q26 0 54 -2v-136q-26 2 -49 2q-119 0 -182 -56q-76 -66 -76 -218v-43h307v-136h-307v-929h-140v929h-181z" />
<glyph unicode="g" d="M85 532q0 234 161 396.5t388 162.5q283 0 431 -235v209h140v-1022q0 -230 -157.5 -362t-376.5 -132q-375 0 -505 260l124 69q96 -193 381 -193q183 0 288.5 96.5t105.5 261.5v166q-147 -234 -431 -235q-227 0 -388 162t-161 396zM226 532.5q0 -176.5 121.5 -299.5 t298.5 -123t298 123t121 299.5t-121 299.5t-298 123t-298.5 -123t-121.5 -299.5z" />
<glyph unicode="h" horiz-adv-x="1187" d="M149 0v1491h141v-592q120 192 358 192q193 0 305 -118.5t112 -318.5v-654h-140v654q0 143 -76 222t-215 79q-152 0 -248 -97.5t-96 -299.5v-558h-141z" />
<glyph unicode="i" horiz-adv-x="437" d="M118 1392.5q0 42.5 29.5 73t72 30.5t72 -30.5t29.5 -73t-29.5 -72t-72 -29.5t-72 29.5t-29.5 72zM149 0v1065h141v-1065h-141z" />
<glyph unicode="j" horiz-adv-x="489" d="M-43 -315q25 -3 47 -3q91 0 138 43q59 53 59 190v1150h140v-1150q0 -192 -101 -288q-84 -81 -227 -81q-27 0 -56 3v136zM168 1392.5q0 42.5 30 73t72.5 30.5t72 -30.5t29.5 -73t-29.5 -72t-72 -29.5t-72.5 29.5t-30 72z" />
<glyph unicode="k" horiz-adv-x="1051" d="M149 0v1491h141v-897l507 471h191l-549 -512l571 -553h-187l-533 514v-514h-141z" />
<glyph unicode="l" horiz-adv-x="437" d="M149 0v1555h141v-1555h-141z" />
<glyph unicode="m" horiz-adv-x="1805" d="M149 0v1065h141v-156q116 181 326 182q230 0 323 -195q116 195 345 195q179 0 289 -115.5t110 -310.5v-665h-141v665q0 138 -71 214t-189 76q-132 0 -214 -88.5t-82 -276.5v-590h-140v665q0 140 -67.5 215t-182.5 75q-128 0 -217 -90t-89 -275v-590h-141z" />
<glyph unicode="n" horiz-adv-x="1187" d="M149 0v1065h141v-166q120 192 358 192q193 0 305 -118.5t112 -318.5v-654h-140v654q0 143 -76 222t-215 79q-152 0 -248 -97.5t-96 -299.5v-558h-141z" />
<glyph unicode="o" horiz-adv-x="1290" d="M85 532.5q0 236.5 163 397.5t397.5 161t397 -161t162.5 -397.5t-162.5 -397.5t-397 -161t-397.5 161t-163 397.5zM226 532.5q0 -176.5 121.5 -299.5t298.5 -123t298 123t121 299.5t-121 299.5t-298 123t-298.5 -123t-121.5 -299.5z" />
<glyph unicode="p" d="M149 -426v1491h141v-209q147 235 430 235q227 0 388.5 -162.5t161.5 -396.5t-161.5 -396t-388.5 -162q-283 0 -430 235v-635h-141zM290 532.5q0 -176.5 121 -299.5t298 -123t298 123t121 299.5t-121 299.5t-298 123t-298 -123t-121 -299.5z" />
<glyph unicode="q" d="M85 532q0 234 161 396.5t388 162.5q283 0 431 -235v209h140v-1491h-140v635q-147 -234 -431 -235q-227 0 -388 162t-161 396zM226 532.5q0 -176.5 121.5 -299.5t298.5 -123t298 123t121 299.5t-121 299.5t-298 123t-298.5 -123t-121.5 -299.5z" />
<glyph unicode="r" horiz-adv-x="668" d="M149 0v1065h141v-177q98 194 336 194v-137q-144 0 -240 -85t-96 -268v-592h-141z" />
<glyph unicode="s" horiz-adv-x="966" d="M85 219l120 71q30 -83 107.5 -131.5t183.5 -48.5q104 0 175 41.5t71 129.5q0 73 -64 115.5t-155.5 66t-183 52t-155.5 95.5t-64 176q0 130 103 217.5t261 87.5q130 0 227.5 -59t144.5 -158l-117 -69q-61 149 -255 150q-92 0 -158 -44t-66 -125q0 -73 64 -115.5t155.5 -66 t183 -52t155.5 -95.5t64 -176q0 -136 -107.5 -221.5t-278.5 -85.5q-153 0 -260.5 68t-150.5 177z" />
<glyph unicode="t" horiz-adv-x="798" d="M43 929v136h223v256l141 42v-298h306v-136h-306v-646q0 -87 34 -124q35 -37 103 -38q14 0 28 -1q60 0 141 4v-124q-76 -12 -139 -12q-122 0 -196 44q-112 66 -112 251v646h-223z" />
<glyph unicode="u" horiz-adv-x="1187" d="M124 411v654h140v-654q0 -143 75.5 -222t213.5 -79q153 0 249.5 97.5t96.5 298.5v559h140v-1065h-140v166q-120 -191 -358 -192q-194 0 -305.5 118.5t-111.5 318.5z" />
<glyph unicode="v" horiz-adv-x="1085" d="M21 1065h150l372 -918l373 918h149l-437 -1065h-170z" />
<glyph unicode="w" horiz-adv-x="1639" d="M63 1065h146l262 -884l279 884h140l279 -884l262 884h146l-329 -1065h-153l-275 858l-275 -858h-153z" />
<glyph unicode="x" horiz-adv-x="1085" d="M43 0l417 551l-389 514h167l305 -403l305 403h168l-388 -514l416 -551h-168l-333 439l-332 -439h-168z" />
<glyph unicode="y" horiz-adv-x="1085" d="M21 1065h150l400 -892l345 892h149l-456 -1163q-61 -158 -175 -248q-103 -81 -225 -81q-15 0 -30 1v132q15 -2 30 -2q169 0 262 223l27 67z" />
<glyph unicode="z" horiz-adv-x="1000" d="M106 0v94l593 835h-571v136h766v-94l-591 -835h613v-136h-810z" />
<glyph unicode="{" horiz-adv-x="752" d="M106 679v136q120 0 171 40.5t51 168.5v356q0 189 99 275.5t284 69.5v-136q-128 13 -185 -32t-57 -177v-356q0 -227 -166 -276q166 -49 166 -277v-356q0 -132 57 -176.5t185 -32.5v-136q-185 -16 -284 69.5t-99 275.5v356q0 128 -51 168t-171 40z" />
<glyph unicode="|" horiz-adv-x="480" d="M171 -426v1960h140v-1960h-140z" />
<glyph unicode="}" horiz-adv-x="752" d="M43 -94q128 -12 185 32.5t57 176.5v356q0 228 166 277q-166 49 -166 276v356q0 132 -57 177t-185 32v136q185 17 284 -69.5t99 -275.5v-356q0 -128 51 -168.5t171 -40.5v-136q-120 0 -171 -40.5t-51 -167.5v-356q0 -189 -99 -275t-284 -70v136z" />
<glyph unicode="~" horiz-adv-x="1264" d="M128 669q55 179 190 219.5t347 -83.5q106 -66 177.5 -73.5t107.5 30t60 120.5l128 -59q-55 -181 -188 -221.5t-349 83.5q-164 94 -237.5 71t-107.5 -147z" />
<glyph unicode="&#xa1;" horiz-adv-x="489" d="M128 969q0 49 34 83t83 34t83 -34t34 -83t-34 -83t-83 -34t-83 34t-34 83zM160 0l31 660h107l32 -660v-426h-170v426z" />
<glyph unicode="&#xa2;" horiz-adv-x="1175" d="M85 746q0 236 160 396.5t401 160.5q57 0 100 -8l63 196h107l-73 -223q190 -71 269 -244l-116 -65q-59 126 -193 179l-260 -801q49 -13 103 -14q119 0 213 57t147 152l116 -68q-65 -128 -193 -202.5t-283 -74.5q-71 0 -146 18l-65 -205h-107l77 238q-147 64 -233.5 200.5 t-86.5 307.5zM226 746q0 -122 60.5 -222t160.5 -154l256 793q-38 4 -57 4q-177 0 -298.5 -122.5t-121.5 -298.5z" />
<glyph unicode="&#xa3;" horiz-adv-x="1245" d="M85 0v145h200v471h-157v132h157v321q0 215 130 331t307 116q292 0 406 -285l-120 -68q-77 209 -286 209q-122 0 -204.5 -75.5t-82.5 -227.5v-321h492v-132h-492v-471h779v-145h-1129z" />
<glyph unicode="&#xa5;" horiz-adv-x="1224" d="M21 1491h168l445 -731l443 731h169l-460 -752h285v-123h-362l-2 -4v-124h364v-124h-364v-364h-149v364h-402v124h402v128h-402v123h326z" />
<glyph unicode="&#xa7;" horiz-adv-x="1085" d="M128 722q0 158 151 266q-88 87 -88 213q0 132 102.5 223.5t262.5 91.5q139 0 237.5 -67t147.5 -189l-114 -65q-73 185 -271 185q-91 0 -157.5 -47t-66.5 -132q0 -59 48 -109.5t99 -77t153 -71.5q24 -10 35 -14q156 -71 245.5 -153.5t89.5 -219.5q-2 -156 -138 -260 q94 -89 95 -219q0 -134 -105.5 -224.5t-278.5 -90.5q-168 0 -281 74.5t-164 208.5l120 68q65 -215 325 -215q106 0 174 47t68 132q0 61 -50.5 112t-109.5 81.5t-163 72.5q-21 9 -32 13q-73 30 -125 59.5t-104 73t-78.5 102.5t-26.5 131zM268 722q0 -88 65 -144t183 -101 q164 -59 240 -105q104 75 104 184q0 90 -66 146t-187 105q-148 57 -223 102q-116 -70 -116 -187z" />
<glyph unicode="&#xa8;" horiz-adv-x="681" d="M43 1320.5q0 40.5 27.5 68t68 27.5t68 -27.5t27.5 -68t-27.5 -68t-68 -27.5t-68 27.5t-27.5 68zM447 1320.5q0 40.5 27.5 68t68 27.5t68.5 -27.5t28 -68t-28 -68t-68.5 -27.5t-68 27.5t-27.5 68z" />
<glyph unicode="&#xa9;" horiz-adv-x="1711" d="M85 745.5q0 319.5 226 545t545 225.5t545.5 -225.5t226.5 -545t-226.5 -545.5t-545.5 -226t-545 226t-226 545.5zM149 745q0 -296 208 -503.5t499.5 -207.5t499 207.5t207.5 503.5t-207.5 504t-499 208t-499.5 -208t-208 -504zM449 745.5q0 170.5 119.5 289.5t293.5 119 q114 0 206.5 -53t143.5 -144l-117 -69q-30 66 -94 100t-139 34q-124 0 -199 -82t-75 -195t75.5 -194.5t198.5 -81.5q77 0 141 35t94 101l117 -70q-51 -92 -144.5 -145t-207.5 -53q-175 0 -294 119t-119 289.5z" />
<glyph unicode="&#xab;" horiz-adv-x="1047" d="M149 658l235 383h174l-235 -383l235 -383h-174zM490 658l234 383h175l-234 -383l234 -383h-175z" />
<glyph unicode="&#xac;" horiz-adv-x="1106" d="M128 677v136h852v-382h-141v246h-711z" />
<glyph unicode="&#xad;" horiz-adv-x="1106" d="M171 590v136h766v-136h-766z" />
<glyph unicode="&#xae;" horiz-adv-x="1711" d="M85 745.5q0 319.5 226 545t545 225.5t545.5 -225.5t226.5 -545t-226.5 -545.5t-545.5 -226t-545 226t-226 545.5zM149 745q0 -296 208 -503.5t499.5 -207.5t499 207.5t207.5 503.5t-207.5 504t-499 208t-499.5 -208t-208 -504zM622 352v788h242q141 0 220 -74t79 -180 q0 -170 -145 -228l167 -306h-148l-151 280h-22h-110v-280h-132zM754 760h120q74 0 115.5 34.5t41.5 91.5t-42 91.5t-115 34.5h-120v-252z" />
<glyph unicode="&#xaf;" horiz-adv-x="638" d="M43 1236v123h553v-123h-553z" />
<glyph unicode="&#xb0;" horiz-adv-x="821" d="M85 1406q0 134 93.5 226.5t232 92.5t232.5 -92.5t94 -226.5t-92 -227t-234 -93q-139 0 -232.5 93t-93.5 227zM222 1406q0 -81 53 -136.5t136 -55.5t136.5 55.5t53.5 136.5t-53.5 136t-136.5 55t-136 -55t-53 -136z" />
<glyph unicode="&#xb1;" horiz-adv-x="1149" d="M128 191v137h894v-137h-894zM128 815v137h378v347h137v-347h379v-137h-379v-346h-137v346h-378z" />
<glyph unicode="&#xb4;" horiz-adv-x="425" d="M43 1214h136l205 277h-171z" />
<glyph unicode="&#xb5;" horiz-adv-x="1290" d="M149 -426v1491h141v-654q0 -143 75.5 -222t213.5 -79q153 0 249.5 97.5t96.5 298.5v559h140v-852q0 -34 21.5 -55.5t57.5 -21.5h83v-136h-101q-81 0 -134 47t-65 126q-118 -198 -360 -199q-181 0 -277 109v-509h-141z" />
<glyph unicode="&#xb6;" horiz-adv-x="1234" d="M85 1065q0 177 125 301.5t302 124.5h638v-132h-128v-1785h-136v1785h-238v-1785h-136v1065q-177 0 -302 124.5t-125 301.5z" />
<glyph unicode="&#xb7;" horiz-adv-x="489" d="M128 746q0 49 34 82.5t83 33.5t83 -33.5t34 -82.5t-34 -83.5t-83 -34.5t-83 34.5t-34 83.5z" />
<glyph unicode="&#xb8;" horiz-adv-x="521" d="M43 -345q313 -26 313 77q0 81 -198 87v181h123v-96q91 -16 144.5 -61.5t53.5 -110.5q0 -218 -436 -192v115z" />
<glyph unicode="&#xbb;" horiz-adv-x="1047" d="M149 275l235 383l-235 383h174l235 -383l-235 -383h-174zM490 275l234 383l-234 383h175l234 -383l-234 -383h-175z" />
<glyph unicode="&#xbf;" horiz-adv-x="1132" d="M128 -57q0 91 42.5 169.5t102 137.5t119 116.5t102.5 133t43 160.5h148q0 -104 -42 -190t-101.5 -146t-119.5 -115.5t-102.5 -122.5t-42.5 -143q0 -124 84 -187t216 -63q262 0 324 215l125 -70q-48 -143 -170.5 -216t-278.5 -73q-187 0 -318 103t-131 291zM494 969 q0 49 34.5 83t83 34t82.5 -34t34 -83t-34 -83t-82.5 -34t-83 34t-34.5 83z" />
<glyph unicode="&#xc0;" horiz-adv-x="1341" d="M21 0l573 1491h154l573 -1491h-158l-139 366h-707l-138 -366h-158zM370 506h601l-300 799zM458 1917h170l171 -277h-137z" />
<glyph unicode="&#xc1;" horiz-adv-x="1341" d="M21 0l573 1491h154l573 -1491h-158l-139 366h-707l-138 -366h-158zM370 506h601l-300 799zM565 1640l170 277h170l-204 -277h-136z" />
<glyph unicode="&#xc2;" horiz-adv-x="1341" d="M21 0l573 1491h154l573 -1491h-158l-139 366h-707l-138 -366h-158zM362 1640l226 277h166l226 -277h-160l-149 185l-149 -185h-160zM370 506h601l-300 799z" />
<glyph unicode="&#xc3;" horiz-adv-x="1341" d="M21 0l573 1491h154l573 -1491h-158l-139 366h-707l-138 -366h-158zM370 506h601l-300 799zM372 1661q0 126 45 187.5t113 58.5t143 -60q38 -30 61.5 -45t47 -23.5t36.5 2t20.5 38.5t7.5 77h123q0 -126 -44.5 -188t-111.5 -58t-142 61q-49 36 -75.5 51.5t-52 18 t-36.5 -27.5t-11 -92h-124z" />
<glyph unicode="&#xc4;" horiz-adv-x="1341" d="M21 0l573 1491h154l573 -1491h-158l-139 366h-707l-138 -366h-158zM370 506h601l-300 799zM372 1746.5q0 40.5 28 68.5t68.5 28t68.5 -28t28 -68.5t-28 -68.5t-68.5 -28t-68.5 28t-28 68.5zM778 1746.5q0 40.5 27.5 68.5t68 28t68 -28t27.5 -68.5t-27.5 -68.5t-68 -28 t-68 28t-27.5 68.5z" />
<glyph unicode="&#xc5;" horiz-adv-x="1341" d="M21 0l548 1425q-124 55 -124 193q0 92 63 152.5t163 60.5t162.5 -60t62.5 -153q0 -138 -123 -193l548 -1425h-158l-139 366h-707l-138 -366h-158zM370 506h601l-300 799zM563 1618.5q0 -47.5 28.5 -76t79.5 -28.5q53 0 82 28.5t29 76t-29 76t-82 28.5q-51 0 -79.5 -28.5 t-28.5 -76z" />
<glyph unicode="&#xc6;" horiz-adv-x="1874" d="M0 0l309 504v2h2l603 985h864v-141h-670v-527h638v-142h-638v-541h681v-140h-830v366h-565l-223 -366h-171zM479 506h480v787z" />
<glyph unicode="&#xc7;" horiz-adv-x="1586" d="M85 746q0 323 221.5 546.5t560.5 223.5q207 0 379.5 -98.5t265.5 -267.5l-132 -77q-71 137 -209 218t-304 81q-278 0 -455.5 -181t-177.5 -445t177.5 -445t455.5 -181q167 0 305 80.5t208 216.5l132 -74q-85 -156 -241.5 -253.5t-345.5 -113.5v-72q91 -16 144 -61.5 t53 -110.5q0 -218 -437 -192v115q313 -26 314 77q0 81 -198 87v157q-313 24 -514.5 243.5t-201.5 526.5z" />
<glyph unicode="&#xc8;" horiz-adv-x="1128" d="M171 0v1491h862v-141h-714v-527h661v-142h-661v-541h725v-140h-873zM390 1917h171l169 -277h-136z" />
<glyph unicode="&#xc9;" horiz-adv-x="1128" d="M171 0v1491h862v-141h-714v-527h661v-142h-661v-541h725v-140h-873zM496 1640l171 277h170l-205 -277h-136z" />
<glyph unicode="&#xca;" horiz-adv-x="1128" d="M171 0v1491h862v-141h-714v-527h661v-142h-661v-541h725v-140h-873zM294 1640l226 277h165l227 -277h-160l-149 185l-150 -185h-159z" />
<glyph unicode="&#xcb;" horiz-adv-x="1128" d="M171 0v1491h862v-141h-714v-527h661v-142h-661v-541h725v-140h-873zM305 1746.5q0 40.5 27.5 68.5t68 28t68 -28t27.5 -68.5t-27.5 -68.5t-68 -28t-68 28t-27.5 68.5zM709 1746.5q0 40.5 27.5 68.5t68.5 28t68.5 -28t27.5 -68.5t-27.5 -68.5t-68.5 -28t-68.5 28 t-27.5 68.5z" />
<glyph unicode="&#xcc;" horiz-adv-x="489" d="M32 1917l204 -277h136l-169 277h-171zM171 0v1491h148v-1491h-148z" />
<glyph unicode="&#xcd;" horiz-adv-x="489" d="M138 1640h137l204 277h-170zM171 0v1491h148v-1491h-148z" />
<glyph unicode="&#xce;" horiz-adv-x="489" d="M-63 1640l225 277h166l225 -277h-159l-149 185l-149 -185h-159zM171 0v1491h148v-1491h-148z" />
<glyph unicode="&#xcf;" horiz-adv-x="489" d="M-53 1746.5q0 40.5 27.5 68.5t68 28t68 -28t27.5 -68.5t-27.5 -68.5t-68 -28t-68 28t-27.5 68.5zM171 0v1491h148v-1491h-148zM352 1746.5q0 40.5 27.5 68.5t68 28t68 -28t27.5 -68.5t-27.5 -68.5t-68 -28t-68 28t-27.5 68.5z" />
<glyph unicode="&#xd0;" horiz-adv-x="1575" d="M63 677v136h150v678h575q305 0 504 -216t199 -529t-199 -529.5t-504 -216.5h-575v677h-150zM362 140h426q246 0 402 175t156 431t-156.5 430t-401.5 174h-426v-537h469v-136h-469v-537z" />
<glyph unicode="&#xd1;" horiz-adv-x="1447" d="M171 0v1491h127l830 -1214v1214h150v-1491h-128l-831 1214v-1214h-148zM426 1661q0 126 45 187.5t113 58.5t142 -60q38 -30 61.5 -45t47 -23.5t36.5 2t20.5 38.5t7.5 77h123q0 -126 -44.5 -188t-111.5 -58.5t-142 61.5q-49 36 -75.5 51.5t-52 18t-36.5 -27.5t-11 -92 h-123z" />
<glyph unicode="&#xd2;" horiz-adv-x="1711" d="M85 745.5q0 321.5 223.5 546t547.5 224.5t548 -224.5t224 -546t-224 -546.5t-548 -225t-547.5 225t-223.5 546.5zM234 746q0 -262 179 -444t443 -182t443 182t179 444t-179 444t-443 182t-443 -182t-179 -444zM643 1917l205 -277h136l-171 277h-170z" />
<glyph unicode="&#xd3;" horiz-adv-x="1711" d="M85 745.5q0 321.5 223.5 546t547.5 224.5t548 -224.5t224 -546t-224 -546.5t-548 -225t-547.5 225t-223.5 546.5zM234 746q0 -262 179 -444t443 -182t443 182t179 444t-179 444t-443 182t-443 -182t-179 -444zM750 1640h136l205 277h-171z" />
<glyph unicode="&#xd4;" horiz-adv-x="1711" d="M85 745.5q0 321.5 223.5 546t547.5 224.5t548 -224.5t224 -546t-224 -546.5t-548 -225t-547.5 225t-223.5 546.5zM234 746q0 -262 179 -444t443 -182t443 182t179 444t-179 444t-443 182t-443 -182t-179 -444zM547 1640l226 277h166l226 -277h-159l-150 185l-149 -185 h-160z" />
<glyph unicode="&#xd5;" horiz-adv-x="1711" d="M85 745.5q0 321.5 223.5 546t547.5 224.5t548 -224.5t224 -546t-224 -546.5t-548 -225t-547.5 225t-223.5 546.5zM234 746q0 -262 179 -444t443 -182t443 182t179 444t-179 444t-443 182t-443 -182t-179 -444zM558 1661q0 126 45 187.5t113 58.5t142 -60q38 -30 61.5 -45 t47 -23.5t36.5 2t20.5 38.5t7.5 77h123q0 -126 -44.5 -188t-111.5 -58.5t-142 61.5q-49 36 -75.5 51.5t-52 18t-36.5 -27.5t-11 -92h-123z" />
<glyph unicode="&#xd6;" horiz-adv-x="1711" d="M85 745.5q0 321.5 223.5 546t547.5 224.5t548 -224.5t224 -546t-224 -546.5t-548 -225t-547.5 225t-223.5 546.5zM234 746q0 -262 179 -444t443 -182t443 182t179 444t-179 444t-443 182t-443 -182t-179 -444zM558 1746.5q0 40.5 28 68.5t68.5 28t68 -28t27.5 -68.5 t-27.5 -68.5t-68 -28t-68.5 28t-28 68.5zM963 1746.5q0 40.5 27.5 68.5t68 28t68 -28t27.5 -68.5t-27.5 -68.5t-68 -28t-68 28t-27.5 68.5z" />
<glyph unicode="&#xd8;" horiz-adv-x="1733" d="M106 746q0 321 223.5 545.5t548.5 224.5q258 0 459 -148l104 123l101 -58l-119 -138q225 -226 225 -549q0 -322 -223.5 -547t-546.5 -225q-254 0 -459 148l-104 -122l-100 57l120 139q-228 223 -229 550zM256 746q0 -256 172 -439l814 949q-162 116 -364 116 q-264 0 -443 -182t-179 -444zM516 232q159 -112 362 -112q264 0 443 182t179 444q0 258 -173 436z" />
<glyph unicode="&#xd9;" horiz-adv-x="1405" d="M149 506v985h149v-985q0 -178 107 -282t298 -104t298 104t107 282v985h148v-985q0 -242 -153 -387t-400 -145t-400.5 145t-153.5 387zM490 1917l205 -277h136l-171 277h-170z" />
<glyph unicode="&#xda;" horiz-adv-x="1405" d="M149 506v985h149v-985q0 -178 107 -282t298 -104t298 104t107 282v985h148v-985q0 -242 -153 -387t-400 -145t-400.5 145t-153.5 387zM596 1640h137l204 277h-171z" />
<glyph unicode="&#xdb;" horiz-adv-x="1405" d="M149 506v985h149v-985q0 -178 107 -282t298 -104t298 104t107 282v985h148v-985q0 -242 -153 -387t-400 -145t-400.5 145t-153.5 387zM394 1640l226 277h166l226 -277h-160l-149 185l-150 -185h-159z" />
<glyph unicode="&#xdc;" horiz-adv-x="1405" d="M149 506v985h149v-985q0 -178 107 -282t298 -104t298 104t107 282v985h148v-985q0 -242 -153 -387t-400 -145t-400.5 145t-153.5 387zM405 1746.5q0 40.5 27.5 68.5t68 28t68 -28t27.5 -68.5t-27.5 -68.5t-68 -28t-68 28t-27.5 68.5zM809 1746.5q0 40.5 27.5 68.5t68 28 t69 -28t28.5 -68.5t-28.5 -68.5t-69 -28t-68 28t-27.5 68.5z" />
<glyph unicode="&#xdd;" horiz-adv-x="1266" d="M21 1491h168l445 -731l443 731h169l-539 -879v-612h-149v616zM520 1640l171 277h169l-204 -277h-136z" />
<glyph unicode="&#xde;" horiz-adv-x="1256" d="M171 0v1491h148v-277h384q201 0 334.5 -134.5t133.5 -334.5t-134 -334t-334 -134h-384v-277h-148zM319 417h384q138 0 228.5 93t90.5 235.5t-90.5 235t-228.5 92.5h-384v-656z" />
<glyph unicode="&#xdf;" horiz-adv-x="1098" d="M149 0v1097q0 196 116.5 307.5t299.5 111.5q172 0 272 -95.5t100 -238.5q0 -70 -47 -137t-93.5 -118t-46.5 -88q0 -47 48 -107.5t105.5 -113.5t105.5 -139.5t48 -177.5q0 -151 -116 -236.5t-325 -70.5v128q300 -17 300 179q0 68 -48 144.5t-105.5 132.5t-105.5 128 t-48 133q0 53 47 112l94 118t47 113q0 94 -64 146t-168 52q-116 0 -195.5 -68t-79.5 -215v-1097h-141z" />
<glyph unicode="&#xe0;" d="M85 532q0 234 161 396.5t388 162.5q283 0 431 -235v209h140v-1065h-140v209q-147 -234 -431 -235q-227 0 -388 162t-161 396zM226 532.5q0 -176.5 121.5 -299.5t298.5 -123t298 123t121 299.5t-121 299.5t-298 123t-298.5 -123t-121.5 -299.5zM437 1491h170l171 -277 h-137z" />
<glyph unicode="&#xe1;" d="M85 532q0 234 161 396.5t388 162.5q283 0 431 -235v209h140v-1065h-140v209q-147 -234 -431 -235q-227 0 -388 162t-161 396zM226 532.5q0 -176.5 121.5 -299.5t298.5 -123t298 123t121 299.5t-121 299.5t-298 123t-298.5 -123t-121.5 -299.5zM543 1214l170 277h171 l-205 -277h-136z" />
<glyph unicode="&#xe2;" d="M85 532q0 234 161 396.5t388 162.5q283 0 431 -235v209h140v-1065h-140v209q-147 -234 -431 -235q-227 0 -388 162t-161 396zM226 532.5q0 -176.5 121.5 -299.5t298.5 -123t298 123t121 299.5t-121 299.5t-298 123t-298.5 -123t-121.5 -299.5zM341 1214l226 277h166 l226 -277h-160l-149 186l-150 -186h-159z" />
<glyph unicode="&#xe3;" d="M85 532q0 234 161 396.5t388 162.5q283 0 431 -235v209h140v-1065h-140v209q-147 -234 -431 -235q-227 0 -388 162t-161 396zM226 532.5q0 -176.5 121.5 -299.5t298.5 -123t298 123t121 299.5t-121 299.5t-298 123t-298.5 -123t-121.5 -299.5zM352 1236q0 125 44.5 186.5 t112.5 58.5t143 -60q39 -31 62 -45.5t46.5 -23t36 2.5t20.5 38.5t8 76.5h122q0 -126 -44.5 -187.5t-111 -58.5t-141.5 60q-49 37 -76 52.5t-52.5 18t-36 -27.5t-10.5 -91h-123z" />
<glyph unicode="&#xe4;" d="M85 532q0 234 161 396.5t388 162.5q283 0 431 -235v209h140v-1065h-140v209q-147 -234 -431 -235q-227 0 -388 162t-161 396zM226 532.5q0 -176.5 121.5 -299.5t298.5 -123t298 123t121 299.5t-121 299.5t-298 123t-298.5 -123t-121.5 -299.5zM352 1320.5q0 40.5 27.5 68 t68 27.5t68 -27.5t27.5 -68t-27.5 -68t-68 -27.5t-68 27.5t-27.5 68zM756 1320.5q0 40.5 27.5 68t68 27.5t68 -27.5t27.5 -68t-27.5 -68t-68 -27.5t-68 27.5t-27.5 68z" />
<glyph unicode="&#xe5;" d="M85 532q0 234 161 396.5t388 162.5q283 0 431 -235v209h140v-1065h-140v209q-147 -234 -431 -235q-227 0 -388 162t-161 396zM226 532.5q0 -176.5 121.5 -299.5t298.5 -123t298 123t121 299.5t-121 299.5t-298 123t-298.5 -123t-121.5 -299.5zM424 1384.5 q0 91.5 62.5 152t163 60.5t163.5 -60.5t63 -152t-63 -152.5t-163.5 -61t-163 61t-62.5 152.5zM541 1384q0 -47 28.5 -75.5t80.5 -28.5q53 0 81.5 28.5t28.5 75.5t-28.5 76t-81.5 29q-51 0 -80 -29t-29 -76z" />
<glyph unicode="&#xe6;" horiz-adv-x="2219" d="M85 532q0 234 161 396.5t388 162.5q283 0 431 -235v209h140v-213q136 239 421 239q240 0 379 -165.5t139 -397.5q0 -24 -4 -66h-930q20 -162 131.5 -257t279.5 -95q250 0 351 182l124 -73q-69 -113 -189 -179t-267 -66q-300 0 -435 233v-207h-140v209 q-147 -234 -431 -235q-227 0 -388 162t-161 396zM226 532.5q0 -176.5 121.5 -299.5t298.5 -123t298 123t121 299.5t-121 299.5t-298 123t-298.5 -123t-121.5 -299.5zM1210 598h790q-19 168 -126 262.5t-256 94.5q-170 0 -279.5 -98.5t-128.5 -258.5z" />
<glyph unicode="&#xe7;" horiz-adv-x="1175" d="M85 532q0 237 160 398t401 161q158 0 283.5 -76t182.5 -204l-116 -65q-42 95 -137 152t-213 57q-177 0 -298.5 -123t-121.5 -299.5t121.5 -299.5t298.5 -123q119 0 212.5 57t147.5 152l116 -67q-59 -116 -171 -189t-250 -87v-72q91 -16 144.5 -61.5t53.5 -110.5 q0 -218 -437 -192v115q313 -26 313 77q0 81 -198 87v160q-215 24 -353.5 179t-138.5 374z" />
<glyph unicode="&#xe8;" horiz-adv-x="1243" d="M85 532q0 239 155 399t401 160q236 0 382 -167.5t146 -395.5q0 -24 -4 -66h-935q21 -162 137.5 -257t286.5 -95q122 0 210 50.5t132 131.5l124 -73q-71 -113 -192 -179t-276 -66q-252 0 -409.5 158t-157.5 400zM230 598h794q-20 168 -129.5 262.5t-253.5 94.5 q-167 0 -278 -99.5t-133 -257.5zM415 1491h171l170 -277h-136z" />
<glyph unicode="&#xe9;" horiz-adv-x="1243" d="M85 532q0 239 155 399t401 160q236 0 382 -167.5t146 -395.5q0 -24 -4 -66h-935q21 -162 137.5 -257t286.5 -95q122 0 210 50.5t132 131.5l124 -73q-71 -113 -192 -179t-276 -66q-252 0 -409.5 158t-157.5 400zM230 598h794q-20 168 -129.5 262.5t-253.5 94.5 q-167 0 -278 -99.5t-133 -257.5zM522 1214l171 277h169l-204 -277h-136z" />
<glyph unicode="&#xea;" horiz-adv-x="1243" d="M85 532q0 239 155 399t401 160q236 0 382 -167.5t146 -395.5q0 -24 -4 -66h-935q21 -162 137.5 -257t286.5 -95q122 0 210 50.5t132 131.5l124 -73q-71 -113 -192 -179t-276 -66q-252 0 -409.5 158t-157.5 400zM230 598h794q-20 168 -129.5 262.5t-253.5 94.5 q-167 0 -278 -99.5t-133 -257.5zM319 1214l226 277h166l226 -277h-159l-150 186l-149 -186h-160z" />
<glyph unicode="&#xeb;" horiz-adv-x="1243" d="M85 532q0 239 155 399t401 160q236 0 382 -167.5t146 -395.5q0 -24 -4 -66h-935q21 -162 137.5 -257t286.5 -95q122 0 210 50.5t132 131.5l124 -73q-71 -113 -192 -179t-276 -66q-252 0 -409.5 158t-157.5 400zM230 598h794q-20 168 -129.5 262.5t-253.5 94.5 q-167 0 -278 -99.5t-133 -257.5zM330 1320.5q0 40.5 28 68t68.5 27.5t68 -27.5t27.5 -68t-27.5 -68t-68 -27.5t-68.5 27.5t-28 68zM735 1320.5q0 40.5 27.5 68t68.5 27.5t68.5 -27.5t27.5 -68t-27.5 -68t-68.5 -27.5t-68.5 27.5t-27.5 68z" />
<glyph unicode="&#xec;" horiz-adv-x="437" d="M8 1491l141 -277h136l-106 277h-171zM149 0v1065h141v-1065h-141z" />
<glyph unicode="&#xed;" horiz-adv-x="437" d="M149 0v1065h141v-1065h-141zM156 1214h136l141 277h-171z" />
<glyph unicode="&#xee;" horiz-adv-x="437" d="M-47 1214l183 277h167l183 -277h-160l-107 162l-106 -162h-160zM149 0v1065h141v-1065h-141z" />
<glyph unicode="&#xef;" horiz-adv-x="437" d="M-26 1320.5q0 40.5 28 68t68 27.5t68 -27.5t28 -68t-28 -68t-68 -27.5t-68 27.5t-28 68zM149 0v1065h141v-1065h-141zM272 1320.5q0 40.5 28 68t68.5 27.5t68 -27.5t27.5 -68t-27.5 -68t-68 -27.5t-68.5 27.5t-28 68z" />
<glyph unicode="&#xf0;" horiz-adv-x="1248" d="M85 490q0 221 154.5 361.5t363.5 140.5q92 0 170 -33l-190 253l-238 -147v128l175 106l-144 192h165l91 -121l240 146v-128l-175 -106l368 -494q98 -132 98 -298q0 -230 -158.5 -373t-380.5 -143t-380.5 143t-158.5 373zM226 490q0 -171 117 -275.5t281 -104.5t281 104.5 t117 275.5q0 134 -63 219q-113 151 -331 151q-175 0 -288.5 -102t-113.5 -268z" />
<glyph unicode="&#xf1;" horiz-adv-x="1187" d="M149 0v1065h141v-166q120 192 358 192q193 0 305 -118.5t112 -318.5v-654h-140v654q0 143 -76 222t-215 79q-152 0 -248 -97.5t-96 -299.5v-558h-141zM319 1236q0 125 45 186.5t113 58.5t143 -60q38 -31 61.5 -45.5t47 -23t36.5 2.5t20 38.5t7 76.5h124 q0 -126 -44.5 -187.5t-111.5 -58.5t-142 60q-49 37 -75.5 52.5t-52.5 18t-36.5 -27.5t-10.5 -91h-124z" />
<glyph unicode="&#xf2;" horiz-adv-x="1290" d="M85 532.5q0 236.5 163 397.5t397.5 161t397 -161t162.5 -397.5t-162.5 -397.5t-397 -161t-397.5 161t-163 397.5zM226 532.5q0 -176.5 121.5 -299.5t298.5 -123t298 123t121 299.5t-121 299.5t-298 123t-298.5 -123t-121.5 -299.5zM433 1491l203 -277h137l-170 277h-170z " />
<glyph unicode="&#xf3;" horiz-adv-x="1290" d="M85 532.5q0 236.5 163 397.5t397.5 161t397 -161t162.5 -397.5t-162.5 -397.5t-397 -161t-397.5 161t-163 397.5zM226 532.5q0 -176.5 121.5 -299.5t298.5 -123t298 123t121 299.5t-121 299.5t-298 123t-298.5 -123t-121.5 -299.5zM539 1214h136l205 277h-171z" />
<glyph unicode="&#xf4;" horiz-adv-x="1290" d="M85 532.5q0 236.5 163 397.5t397.5 161t397 -161t162.5 -397.5t-162.5 -397.5t-397 -161t-397.5 161t-163 397.5zM226 532.5q0 -176.5 121.5 -299.5t298.5 -123t298 123t121 299.5t-121 299.5t-298 123t-298.5 -123t-121.5 -299.5zM337 1214l226 277h165l227 -277h-160 l-149 186l-150 -186h-159z" />
<glyph unicode="&#xf5;" horiz-adv-x="1290" d="M85 532.5q0 236.5 163 397.5t397.5 161t397 -161t162.5 -397.5t-162.5 -397.5t-397 -161t-397.5 161t-163 397.5zM226 532.5q0 -176.5 121.5 -299.5t298.5 -123t298 123t121 299.5t-121 299.5t-298 123t-298.5 -123t-121.5 -299.5zM347 1236q0 125 45 186.5t113 58.5 t143 -60q38 -31 61.5 -45.5t47 -23t36 2.5t20 38.5t7.5 76.5h123q0 -126 -44.5 -187.5t-111.5 -58.5t-141 60q-49 37 -76 52.5t-52.5 18t-36 -27.5t-10.5 -91h-124z" />
<glyph unicode="&#xf6;" horiz-adv-x="1290" d="M85 532.5q0 236.5 163 397.5t397.5 161t397 -161t162.5 -397.5t-162.5 -397.5t-397 -161t-397.5 161t-163 397.5zM226 532.5q0 -176.5 121.5 -299.5t298.5 -123t298 123t121 299.5t-121 299.5t-298 123t-298.5 -123t-121.5 -299.5zM347 1320.5q0 40.5 27.5 68t68.5 27.5 t68.5 -27.5t27.5 -68t-27.5 -68t-68.5 -27.5t-68.5 27.5t-27.5 68zM752 1320.5q0 40.5 27.5 68t68 27.5t68 -27.5t27.5 -68t-27.5 -68t-68 -27.5t-68 27.5t-27.5 68z" />
<glyph unicode="&#xf7;" horiz-adv-x="1234" d="M128 677v136h980v-136h-980zM500 347q0 49 34.5 83t83.5 34t83 -34t34 -83t-34 -83t-83 -34t-83.5 34t-34.5 83zM500 1144q0 49 34.5 82.5t83.5 33.5t83 -33.5t34 -82.5t-34 -83.5t-83 -34.5t-83.5 34.5t-34.5 83.5z" />
<glyph unicode="&#xf8;" horiz-adv-x="1290" d="M85 532q0 237 163 398t398 161q187 0 336 -109l83 93l85 -49l-95 -108q150 -162 150 -386q0 -236 -162.5 -397t-396.5 -161q-187 0 -337 109l-83 -93l-86 48l96 109q-151 162 -151 385zM226 532q0 -164 104 -280l558 626q-106 77 -242 77q-177 0 -298.5 -123t-121.5 -300 zM402 187q108 -77 244 -77q177 0 298 123t121 299q0 165 -104 281z" />
<glyph unicode="&#xf9;" horiz-adv-x="1187" d="M124 411v654h140v-654q0 -143 75.5 -222t213.5 -79q153 0 249.5 97.5t96.5 298.5v559h140v-1065h-140v166q-120 -191 -358 -192q-194 0 -305.5 118.5t-111.5 318.5zM364 1491h171l170 -277h-136z" />
<glyph unicode="&#xfa;" horiz-adv-x="1187" d="M124 411v654h140v-654q0 -143 75.5 -222t213.5 -79q153 0 249.5 97.5t96.5 298.5v559h140v-1065h-140v166q-120 -191 -358 -192q-194 0 -305.5 118.5t-111.5 318.5zM471 1214l170 277h170l-204 -277h-136z" />
<glyph unicode="&#xfb;" horiz-adv-x="1187" d="M124 411v654h140v-654q0 -143 75.5 -222t213.5 -79q153 0 249.5 97.5t96.5 298.5v559h140v-1065h-140v166q-120 -191 -358 -192q-194 0 -305.5 118.5t-111.5 318.5zM268 1214l226 277h166l226 -277h-160l-149 186l-149 -186h-160z" />
<glyph unicode="&#xfc;" horiz-adv-x="1187" d="M124 411v654h140v-654q0 -143 75.5 -222t213.5 -79q153 0 249.5 97.5t96.5 298.5v559h140v-1065h-140v166q-120 -191 -358 -192q-194 0 -305.5 118.5t-111.5 318.5zM279 1320.5q0 40.5 28 68t68 27.5t68 -27.5t28 -68t-28 -68t-68 -27.5t-68 27.5t-28 68zM683 1320.5 q0 40.5 28 68t68.5 27.5t68.5 -27.5t28 -68t-28 -68t-68.5 -27.5t-68.5 27.5t-28 68z" />
<glyph unicode="&#xfd;" horiz-adv-x="1085" d="M21 1065h150l400 -892l345 892h149l-456 -1163q-61 -158 -175.5 -248.5t-254.5 -79.5v132q191 -21 292 221l27 67zM433 1214l170 277h170l-204 -277h-136z" />
<glyph unicode="&#xfe;" d="M149 -426v1917h141v-635q147 235 430 235q227 0 388.5 -162.5t161.5 -396.5t-161.5 -396t-388.5 -162q-283 0 -430 235v-635h-141zM290 532.5q0 -176.5 121 -299.5t298 -123t298 123t121 299.5t-121 299.5t-298 123t-298 -123t-121 -299.5z" />
<glyph unicode="&#xff;" horiz-adv-x="1085" d="M21 1065h150l400 -892l345 892h149l-456 -1163q-61 -158 -175.5 -248.5t-254.5 -79.5v132q191 -21 292 221l27 67zM240 1320.5q0 40.5 28 68t68 27.5t68.5 -27.5t28.5 -68t-28.5 -68t-68.5 -27.5t-68 27.5t-28 68zM646 1320.5q0 40.5 27.5 68t68 27.5t68 -27.5t27.5 -68 t-27.5 -68t-68 -27.5t-68 27.5t-27.5 68z" />
<glyph unicode="&#x131;" horiz-adv-x="437" d="M149 0v1065h141v-1065h-141z" />
<glyph unicode="&#x152;" horiz-adv-x="1947" d="M85 745.5q0 323.5 214.5 547t535.5 223.5q106 0 198 -25h820v-141h-671v-527h639v-142h-639v-541h682v-140h-831q-92 -26 -198 -26q-321 0 -535.5 224t-214.5 547.5zM234 746q0 -264 169.5 -445t431.5 -181q106 -1 198 31v1189q-92 32 -198 32q-262 0 -431.5 -181 t-169.5 -445z" />
<glyph unicode="&#x153;" horiz-adv-x="2223" d="M85 532.5q0 238.5 160 398.5t401 160q166 0 294.5 -85.5t195.5 -230.5q59 144 188 230t302 86q231 0 377 -167.5t146 -395.5q0 -24 -5 -66h-934q20 -162 136.5 -257t287.5 -95q122 0 210 50.5t133 131.5l123 -73q-71 -113 -191 -179t-273 -66q-177 0 -309 84t-193 229 q-64 -142 -193.5 -227.5t-294.5 -85.5q-240 0 -400.5 160t-160.5 398.5zM226 532.5q0 -178.5 117.5 -300.5t302.5 -122q177 0 298 123t121 299.5t-121 299.5t-298 123q-185 0 -302.5 -122t-117.5 -300.5zM1210 598h794q-21 168 -129.5 262.5t-253.5 94.5q-166 0 -278 -99.5 t-133 -257.5z" />
<glyph unicode="&#x178;" horiz-adv-x="1266" d="M21 1491h168l445 -731l443 731h169l-539 -879v-612h-149v616zM328 1746.5q0 40.5 28 68.5t68 28t68 -28t28 -68.5t-28 -68.5t-68 -28t-68 28t-28 68.5zM733 1746.5q0 40.5 27.5 68.5t68 28t68.5 -28t28 -68.5t-28 -68.5t-68.5 -28t-68 28t-27.5 68.5z" />
<glyph unicode="&#x192;" horiz-adv-x="934" d="M0 -292q115 -43 189.5 -2.5t91.5 147.5l141 826h-233v136h256l69 401q32 187 145.5 258.5t275.5 23.5v-137q-115 43 -189.5 2.5t-91.5 -147.5l-68 -401h245v-136h-268l-141 -826q-32 -187 -146 -258.5t-276 -22.5v136z" />
<glyph unicode="&#x2c6;" horiz-adv-x="702" d="M43 1214l225 277h167l225 -277h-160l-148 186l-149 -186h-160z" />
<glyph unicode="&#x2c7;" horiz-adv-x="702" d="M43 1491h160l149 -186l148 186h160l-225 -277h-167z" />
<glyph unicode="&#x2d8;" horiz-adv-x="681" d="M43 1474h136q0 -153 161.5 -153t161.5 153h137q0 -132 -80 -204.5t-218 -72.5q-136 0 -217 73.5t-81 203.5z" />
<glyph unicode="&#x2d9;" horiz-adv-x="319" d="M43 1331q0 49 33.5 83.5t83 34.5t83.5 -34.5t34 -83.5t-34 -83t-83.5 -34t-83 34t-33.5 83z" />
<glyph unicode="&#x2da;" horiz-adv-x="536" d="M43 1384.5q0 91.5 62.5 152t162.5 60.5t163 -60.5t63 -152t-63 -152.5t-163 -61t-162.5 61t-62.5 152.5zM160 1384q0 -47 28.5 -75.5t79.5 -28.5q53 0 82.5 28.5t29.5 75.5t-29.5 76t-82.5 29q-51 0 -79.5 -29t-28.5 -76z" />
<glyph unicode="&#x2db;" horiz-adv-x="384" d="M43 -290q0 140 153 290h147q-73 -66 -117.5 -138.5t-44.5 -125.5q0 -66 73 -66q44 0 89 19v-117q-57 -23 -126 -23q-83 0 -128.5 44.5t-45.5 116.5z" />
<glyph unicode="&#x2dc;" horiz-adv-x="681" d="M43 1236q0 125 44.5 186.5t112.5 58.5t143 -60q39 -31 62 -45.5t46.5 -23t36 2.5t20.5 38.5t8 76.5h123q0 -126 -45 -187.5t-112 -58.5t-141 60q-49 37 -76 52.5t-52.5 18t-36 -27.5t-10.5 -91h-123z" />
<glyph unicode="&#x2dd;" horiz-adv-x="717" d="M43 1214h144l162 277h-158zM347 1214h145l183 277h-157z" />
<glyph unicode="&#x3a9;" horiz-adv-x="1711" d="M85 746q0 321 223.5 545.5t547.5 224.5t548 -224.5t224 -545.5q0 -192 -86.5 -351t-236.5 -255h297v-140h-582v140q203 53 330.5 220.5t127.5 385.5q0 262 -179 444t-443 182t-443 -182t-179 -444q0 -218 127 -385.5t332 -220.5v-140h-583v140h297q-151 96 -236.5 254.5 t-85.5 351.5z" />
<glyph unicode="&#x3c0;" horiz-adv-x="1384" d="M63 929v136h1258v-136h-177v-929h-140v929h-614v-929h-140v929h-187z" />
<glyph unicode="&#x401;" horiz-adv-x="1128" d="M171 0v1491h862v-141h-714v-527h661v-142h-661v-541h725v-140h-873zM305 1746.5q0 40.5 27.5 68.5t68 28t68 -28t27.5 -68.5t-27.5 -68.5t-68 -28t-68 28t-27.5 68.5zM709 1746.5q0 40.5 27.5 68.5t68.5 28t68.5 -28t27.5 -68.5t-27.5 -68.5t-68.5 -28t-68.5 28 t-27.5 68.5z" />
<glyph unicode="&#x402;" horiz-adv-x="1486" d="M43 1350v141h1043v-141h-479v-417q151 73 338 73q179 0 291 -104.5t112 -300.5v-252q0 -191 -100 -287t-283 -79v137q124 -13 179 40t55 189v252q0 268 -252 268q-176 0 -340 -70v-799h-149v1350h-415z" />
<glyph unicode="&#x403;" horiz-adv-x="1043" d="M171 0v1491h831v-141h-683v-1350h-148zM482 1638l170 277h171l-205 -277h-136z" />
<glyph unicode="&#x404;" horiz-adv-x="1575" d="M85 745q0 326 216.5 548.5t554.5 222.5q207 0 379.5 -98.5t266.5 -267.5l-132 -77q-71 137 -209.5 218t-304.5 81q-258 0 -426 -157.5t-192 -399.5h817v-140h-817q24 -240 192 -397.5t426 -157.5q166 0 304.5 80.5t209.5 216.5l132 -74q-92 -168 -265.5 -268.5 t-380.5 -100.5q-339 0 -555 222.5t-216 548.5z" />
<glyph unicode="&#x405;" horiz-adv-x="1226" d="M85 339l128 74q41 -138 149.5 -215.5t278.5 -77.5q166 0 258.5 73t92.5 195q0 117 -84.5 176.5t-281.5 123.5q-232 77 -307 123q-170 102 -170 297q0 189 132 298.5t326 109.5q175 0 302.5 -90.5t189.5 -230.5l-126 -71q-101 248 -366 248q-138 0 -223.5 -68t-85.5 -190 q0 -110 76.5 -166t253.5 -113q81 -28 116.5 -39.5t102.5 -38.5t99 -46.5t77.5 -55t66 -71t36.5 -85.5t16 -107q0 -189 -139 -303.5t-364 -114.5q-205 0 -351 97t-203 268z" />
<glyph unicode="&#x406;" horiz-adv-x="489" d="M171 0v1491h148v-1491h-148z" />
<glyph unicode="&#x407;" horiz-adv-x="489" d="M-53 1746.5q0 40.5 27.5 68.5t68 28t68 -28t27.5 -68.5t-27.5 -68.5t-68 -28t-68 28t-27.5 68.5zM171 0v1491h148v-1491h-148zM352 1746.5q0 40.5 27.5 68.5t68 28t68 -28t27.5 -68.5t-27.5 -68.5t-68 -28t-68 28t-27.5 68.5z" />
<glyph unicode="&#x408;" horiz-adv-x="1177" d="M85 230l126 75q71 -185 328 -185q156 0 248.5 74t92.5 228v1069h149v-1069q0 -217 -139.5 -332.5t-350.5 -115.5q-156 0 -278.5 65t-175.5 191z" />
<glyph unicode="&#x409;" horiz-adv-x="2118" d="M32 -2v132q156 -21 233.5 98t77.5 434v829h903v-639h341q187 0 317 -122.5t130 -303.5q0 -183 -130 -304.5t-317 -121.5h-490v1350h-605v-692q0 -392 -116 -535.5t-344 -124.5zM1246 140h341q126 0 211.5 80.5t85.5 205.5q0 124 -85.5 204.5t-211.5 80.5h-341v-571z" />
<glyph unicode="&#x40a;" horiz-adv-x="2087" d="M171 0v1491h148v-639h746v639h149v-639h341q187 0 317 -122.5t130 -303.5q0 -183 -130 -304.5t-317 -121.5h-490v711h-746v-711h-148zM1214 140h341q126 0 212 80.5t86 205.5q0 124 -86 204.5t-212 80.5h-341v-571z" />
<glyph unicode="&#x40b;" horiz-adv-x="1496" d="M43 1350v141h1043v-141h-479v-417q151 73 338 73q179 0 291 -104.5t112 -300.5v-601h-149v601q0 268 -252 268q-176 0 -340 -70v-799h-149v1350h-415z" />
<glyph unicode="&#x40c;" horiz-adv-x="1234" d="M171 0v1491h148v-682l677 682h197l-716 -725l737 -766h-196l-699 722v-722h-148zM502 1638l171 277h170l-204 -277h-137z" />
<glyph unicode="&#x40e;" horiz-adv-x="1213" d="M63 1491h154l431 -916l391 916h154l-496 -1165q-75 -179 -190 -257.5t-285 -68.5v136q119 -12 196.5 35.5t128.5 167.5l30 70zM343 1659v124h553v-124h-553z" />
<glyph unicode="&#x40f;" horiz-adv-x="1405" d="M171 0v1491h148v-1351h767v1351h150v-1491h-458v-285h-150v285h-457z" />
<glyph unicode="&#x410;" horiz-adv-x="1341" d="M21 0l573 1491h154l573 -1491h-158l-139 366h-707l-138 -366h-158zM370 506h601l-300 799z" />
<glyph unicode="&#x411;" horiz-adv-x="1245" d="M171 0v1491h873v-141h-725v-456h405q185 0 316 -132t131 -315q0 -185 -131 -316t-316 -131h-553zM319 140h405q124 0 211 89.5t87 217.5q0 126 -87 216.5t-211 90.5h-405v-614z" />
<glyph unicode="&#x412;" horiz-adv-x="1319" d="M171 0v1491h600q166 0 283 -118.5t117 -281.5q0 -210 -175 -318q108 -47 174 -141.5t66 -216.5q0 -173 -122 -294t-294 -121h-649zM319 140h501q110 0 188 80.5t78 194.5q0 113 -77.5 194.5t-188.5 81.5h-501v-551zM319 831h452q104 0 177.5 75.5t73.5 184.5 q0 106 -73.5 182.5t-177.5 76.5h-452v-519z" />
<glyph unicode="&#x413;" horiz-adv-x="1043" d="M171 0v1491h831v-141h-683v-1350h-148z" />
<glyph unicode="&#x414;" horiz-adv-x="1469" d="M32 140h121q147 173 148 533v818h935v-1351h159v-425h-149v285h-1065v-285h-149v425zM330 140h756v1210h-637v-681q0 -354 -119 -529z" />
<glyph unicode="&#x415;" horiz-adv-x="1128" d="M171 0v1491h862v-141h-714v-527h661v-142h-661v-541h725v-140h-873z" />
<glyph unicode="&#x416;" horiz-adv-x="1809" d="M43 0l640 766l-620 725h175l593 -688v688h149v-688l591 688h175l-620 -725l642 -766h-175l-613 728v-728h-149v728l-614 -728h-174z" />
<glyph unicode="&#x417;" horiz-adv-x="1203" d="M85 311l128 73q28 -114 120.5 -191.5t269.5 -77.5q175 0 270.5 80t95.5 207.5t-88.5 208t-244.5 80.5h-169v140h116q151 0 241 76.5t90 198.5q0 119 -86 194.5t-236 75.5q-275 0 -362 -234l-124 72q55 136 175.5 219t310.5 83q211 0 341 -118t130 -295q0 -224 -205 -332 q124 -47 192 -143t68 -226q0 -187 -139.5 -307.5t-375.5 -120.5q-213 0 -341 96t-177 241z" />
<glyph unicode="&#x418;" horiz-adv-x="1447" d="M171 0v1491h148v-1214l831 1214h128v-1491h-150v1214l-830 -1214h-127z" />
<glyph unicode="&#x419;" horiz-adv-x="1447" d="M171 0v1491h148v-1214l831 1214h128v-1491h-150v1214l-830 -1214h-127zM447 1661v124h555v-124h-555z" />
<glyph unicode="&#x41a;" horiz-adv-x="1234" d="M171 0v1491h148v-682l677 682h197l-716 -725l737 -766h-196l-699 722v-722h-148z" />
<glyph unicode="&#x41b;" horiz-adv-x="1479" d="M32 0v132q156 -21 233.5 97t77.5 433v829h967v-1491h-149v1350h-669v-692q0 -202 -32 -338.5t-94.5 -207.5t-143 -95.5t-190.5 -16.5z" />
<glyph unicode="&#x41c;" horiz-adv-x="1703" d="M171 0v1491h185l496 -831l496 831h186v-1491h-150v1266l-522 -874h-21l-522 874v-1266h-148z" />
<glyph unicode="&#x41d;" horiz-adv-x="1447" d="M171 0v1491h148v-654h809v654h150v-1491h-150v697h-809v-697h-148z" />
<glyph unicode="&#x41e;" horiz-adv-x="1711" d="M85 745.5q0 321.5 223.5 546t547.5 224.5t548 -224.5t224 -546t-224 -546.5t-548 -225t-547.5 225t-223.5 546.5zM234 746q0 -262 179 -444t443 -182t443 182t179 444t-179 444t-443 182t-443 -182t-179 -444z" />
<glyph unicode="&#x41f;" horiz-adv-x="1405" d="M171 0v1491h1065v-1491h-150v1350h-767v-1350h-148z" />
<glyph unicode="&#x420;" horiz-adv-x="1256" d="M171 0v1491h532q201 0 334.5 -134t133.5 -334t-134 -335t-334 -135h-384v-553h-148zM319 695h384q138 0 228.5 92.5t90.5 235t-90.5 235t-228.5 92.5h-384v-655z" />
<glyph unicode="&#x421;" horiz-adv-x="1586" d="M85 745.5q0 323.5 221.5 547t560.5 223.5q207 0 379.5 -98.5t265.5 -267.5l-132 -77q-71 137 -209 218t-304 81q-278 0 -455.5 -181t-177.5 -445t177 -445t456 -181q167 0 305 80.5t208 216.5l132 -74q-91 -168 -264.5 -268.5t-380.5 -100.5q-339 0 -560.5 224 t-221.5 547.5z" />
<glyph unicode="&#x422;" horiz-adv-x="1149" d="M43 1350v141h1065v-141h-458v-1350h-150v1350h-457z" />
<glyph unicode="&#x423;" horiz-adv-x="1213" d="M63 1491h154l431 -916l391 916h154l-496 -1165q-75 -179 -190 -257.5t-285 -68.5v136q119 -12 196.5 35.5t128.5 167.5l30 70z" />
<glyph unicode="&#x424;" horiz-adv-x="1711" d="M63 746q0 264 197.5 412.5t521.5 164.5v168h149v-168q323 -15 520 -164t197 -413t-197 -413.5t-520 -164.5v-168h-149v168q-323 15 -521 164.5t-198 413.5zM213 745.5q0 -204.5 153.5 -316.5t415.5 -124v882q-262 -13 -415.5 -125t-153.5 -316.5zM931 305 q262 12 415.5 124t153.5 316.5t-153.5 316t-415.5 125.5v-882z" />
<glyph unicode="&#x425;" horiz-adv-x="1234" d="M43 0l489 769l-457 722h167l376 -588l374 588h169l-458 -722l490 -769h-171l-404 636l-405 -636h-170z" />
<glyph unicode="&#x426;" horiz-adv-x="1469" d="M171 0v1491h148v-1351h767v1351h150v-1351h159v-425h-149v285h-1075z" />
<glyph unicode="&#x427;" horiz-adv-x="1331" d="M138 959v532h149v-532q0 -130 84.5 -208t235.5 -78q211 0 405 96v722h149v-1491h-149v628q-194 -96 -405 -96q-213 0 -341 119.5t-128 307.5z" />
<glyph unicode="&#x428;" horiz-adv-x="2022" d="M171 0v1491h148v-1351h618v1351h149v-1351h618v1351h149v-1491h-1682z" />
<glyph unicode="&#x429;" horiz-adv-x="2087" d="M171 0v1491h148v-1351h618v1351h149v-1351h618v1351h149v-1351h159v-425h-148v285h-1693z" />
<glyph unicode="&#x42a;" horiz-adv-x="1490" d="M0 1350v141h553v-554h384q201 0 335 -134t134 -334.5t-134 -334.5t-335 -134h-532v1350h-405zM553 140h384q138 0 228.5 93t90.5 236t-90.5 235.5t-228.5 92.5h-384v-657z" />
<glyph unicode="&#x42b;" horiz-adv-x="1650" d="M171 0v1491h148v-554h384q201 0 334.5 -134t133.5 -334.5t-134 -334.5t-334 -134h-532zM319 140h384q138 0 228.5 93t90.5 236t-90.5 235.5t-228.5 92.5h-384v-657zM1331 0v1491h149v-1491h-149z" />
<glyph unicode="&#x42c;" horiz-adv-x="1256" d="M171 0v1491h148v-554h384q201 0 334.5 -134t133.5 -334.5t-134 -334.5t-334 -134h-532zM319 140h384q138 0 228.5 93t90.5 236t-90.5 235.5t-228.5 92.5h-384v-657z" />
<glyph unicode="&#x42d;" horiz-adv-x="1575" d="M75 343l132 74q71 -136 208.5 -216.5t304.5 -80.5q258 0 426.5 157.5t190.5 397.5h-815v140h815q-23 241 -191 399t-426 158q-167 0 -305 -81t-208 -218l-132 77q93 169 265.5 267.5t379.5 98.5q339 0 555 -222.5t216 -548.5t-216 -548.5t-555 -222.5 q-207 0 -380.5 100.5t-264.5 268.5z" />
<glyph unicode="&#x42e;" horiz-adv-x="2214" d="M171 0v1491h148v-654h282q34 292 247 485.5t511 193.5q324 0 547.5 -224.5t223.5 -546t-223.5 -546.5t-547.5 -225q-311 0 -527 209t-234 514h-279v-697h-148zM737 746q0 -262 179 -444t443 -182t443 182t179 444t-179 444t-443 182t-443 -182t-179 -444z" />
<glyph unicode="&#x42f;" horiz-adv-x="1319" d="M63 0l416 603q-160 28 -266.5 152.5t-106.5 288.5q0 185 131 316t316 131h597v-1491h-148v596h-359l-409 -596h-171zM256 1044q0 -126 87 -216.5t210 -90.5h449v613h-449q-123 0 -210 -89.5t-87 -216.5z" />
<glyph unicode="&#x430;" d="M85 532q0 234 161 396.5t388 162.5q283 0 431 -235v209h140v-1065h-140v209q-147 -234 -431 -235q-227 0 -388 162t-161 396zM226 532.5q0 -176.5 121.5 -299.5t298.5 -123t298 123t121 299.5t-121 299.5t-298 123t-298.5 -123t-121.5 -299.5z" />
<glyph unicode="&#x431;" horiz-adv-x="1207" d="M85 522q0 273 81.5 418.5t327.5 264.5q47 24 125 56t117 51t86 50t70.5 69.5t29.5 91.5l111 -64q-9 -51 -34.5 -95.5t-52 -72.5t-83 -61t-87 -47t-106.5 -45.5t-101 -42.5q-149 -63 -219.5 -133t-99.5 -180q72 96 183.5 141.5t218.5 45.5q213 0 352.5 -139t139.5 -357 q0 -215 -148 -357t-374 -142q-230 0 -383.5 152.5t-153.5 395.5zM234 486q0 -163 112 -267t276 -104q166 0 274 101t108 257q0 158 -101.5 259t-270.5 101q-150 0 -274 -95t-124 -252z" />
<glyph unicode="&#x432;" horiz-adv-x="1064" d="M149 0v1065h475q156 0 241 -80t85 -205q1 -160 -123 -233q175 -63 175 -249q0 -130 -86.5 -214t-248.5 -84h-518zM290 136h377q93 0 143 45t50 126q0 75 -50 118.5t-143 43.5h-377v-333zM290 605h334q185 0 185 166q0 75 -48 116.5t-137 41.5h-334v-324z" />
<glyph unicode="&#x433;" horiz-adv-x="851" d="M149 0v1065h682v-136h-541v-929h-141z" />
<glyph unicode="&#x434;" horiz-adv-x="1256" d="M43 136h130q108 143 108 403v526h763v-929h149v-421h-141v285h-869v-285h-140v421zM343 136h560v793h-481v-390q0 -245 -79 -403z" />
<glyph unicode="&#x435;" horiz-adv-x="1243" d="M85 532q0 239 155 399t401 160q236 0 382 -167.5t146 -395.5q0 -24 -4 -66h-935q21 -162 137.5 -257t286.5 -95q122 0 210 50.5t132 131.5l124 -73q-71 -113 -192 -179t-276 -66q-252 0 -409.5 158t-157.5 400zM230 598h794q-20 168 -129.5 262.5t-253.5 94.5 q-167 0 -278 -99.5t-133 -257.5z" />
<glyph unicode="&#x436;" horiz-adv-x="1435" d="M43 0l477 553l-457 512h171l414 -473v473h140v-473l413 473h171l-456 -512l477 -553h-170l-435 514v-514h-140v514l-435 -514h-170z" />
<glyph unicode="&#x437;" horiz-adv-x="947" d="M63 230l120 71q66 -190 303 -191q123 0 190.5 53.5t67.5 137.5q0 74 -56 121t-149 47h-155v136h112q92 0 144.5 46t52.5 127q0 77 -62 127t-167 50q-201 0 -266 -160l-117 67q106 228 383 229q168 0 268.5 -88.5t100.5 -216.5q0 -164 -134 -239q185 -71 185 -255 q0 -132 -103.5 -225t-294.5 -93q-322 0 -423 256z" />
<glyph unicode="&#x438;" horiz-adv-x="1191" d="M149 0v1065h141v-820l635 820h119v-1065h-141v820l-635 -820h-119z" />
<glyph unicode="&#x439;" horiz-adv-x="1191" d="M149 0v1065h141v-820l635 820h119v-1065h-141v820l-635 -820h-119zM319 1236v123h555v-123h-555z" />
<glyph unicode="&#x43a;" horiz-adv-x="1051" d="M149 0v1065h141v-471l507 471h191l-549 -512l571 -553h-187l-533 514v-514h-141z" />
<glyph unicode="&#x43b;" horiz-adv-x="1171" d="M21 0v132q121 -12 180 58t59 263v612h762v-1065h-140v929h-482v-476q0 -266 -101 -365.5t-278 -87.5z" />
<glyph unicode="&#x43c;" horiz-adv-x="1341" d="M149 0v1065h162l360 -583l360 583h162v-1065h-141v850l-373 -605h-17l-372 605v-850h-141z" />
<glyph unicode="&#x43d;" horiz-adv-x="1191" d="M149 0v1065h141v-464h613v464h141v-1065h-141v464h-613v-464h-141z" />
<glyph unicode="&#x43e;" horiz-adv-x="1290" d="M85 532.5q0 236.5 163 397.5t397.5 161t397 -161t162.5 -397.5t-162.5 -397.5t-397 -161t-397.5 161t-163 397.5zM226 532.5q0 -176.5 121.5 -299.5t298.5 -123t298 123t121 299.5t-121 299.5t-298 123t-298.5 -123t-121.5 -299.5z" />
<glyph unicode="&#x43f;" horiz-adv-x="1191" d="M149 0v1065h895v-1065h-141v929h-613v-929h-141z" />
<glyph unicode="&#x440;" d="M149 -426v1491h141v-209q147 235 430 235q227 0 388.5 -162.5t161.5 -396.5t-161.5 -396t-388.5 -162q-283 0 -430 235v-635h-141zM290 532.5q0 -176.5 121 -299.5t298 -123t298 123t121 299.5t-121 299.5t-298 123t-298 -123t-121 -299.5z" />
<glyph unicode="&#x441;" horiz-adv-x="1175" d="M85 532.5q0 236.5 160 397.5t401 161q158 0 283.5 -76t182.5 -204l-116 -65q-42 95 -137 152t-213 57q-177 0 -298.5 -123t-121.5 -299.5t121.5 -299.5t298.5 -123q119 0 212.5 57t147.5 152l116 -67q-65 -128 -192.5 -203t-283.5 -75q-240 0 -400.5 161t-160.5 397.5z " />
<glyph unicode="&#x442;" horiz-adv-x="937" d="M21 929v136h895v-136h-377v-929h-141v929h-377z" />
<glyph unicode="&#x443;" horiz-adv-x="1085" d="M21 1065h150l400 -892l345 892h149l-456 -1163q-61 -158 -175.5 -248.5t-254.5 -79.5v132q191 -21 292 221l27 67z" />
<glyph unicode="&#x444;" horiz-adv-x="1426" d="M85 532.5q0 223.5 153.5 379t404.5 177.5v402h141v-402q252 -21 405 -177t153 -379.5t-153.5 -379t-404.5 -177.5v-402h-141v402q-252 21 -405 177t-153 379.5zM226 532.5q0 -166.5 112.5 -282.5t304.5 -135v835q-192 -19 -304.5 -135t-112.5 -282.5zM784 115 q192 19 304.5 135t112.5 282.5t-112.5 282.5t-304.5 135v-835z" />
<glyph unicode="&#x445;" horiz-adv-x="1085" d="M43 0l417 551l-389 514h167l305 -403l305 403h168l-388 -514l416 -551h-168l-333 439l-332 -439h-168z" />
<glyph unicode="&#x446;" horiz-adv-x="1256" d="M149 0v1065h141v-929h592v929h140v-929h171v-421h-141v285h-903z" />
<glyph unicode="&#x447;" horiz-adv-x="1128" d="M106 724v341h142v-341q0 -134 70 -192.5t212 -58.5q167 0 309 62v530h141v-1065h-141v405q-123 -64 -304 -64q-209 0 -319 97t-110 286z" />
<glyph unicode="&#x448;" horiz-adv-x="1724" d="M149 0v1065h141v-929h502v929h141v-929h502v929h142v-1065h-1428z" />
<glyph unicode="&#x449;" horiz-adv-x="1788" d="M149 0v1065h141v-929h502v929h141v-929h502v929h142v-929h148v-421h-140v285h-1436z" />
<glyph unicode="&#x44a;" horiz-adv-x="1149" d="M0 929v136h439v-405h291q149 0 252.5 -92.5t103.5 -237.5t-103 -237.5t-253 -92.5h-432v929h-298zM439 136h291q90 0 152.5 53t62.5 140.5t-62.5 141t-152.5 53.5h-291v-388z" />
<glyph unicode="&#x44b;" horiz-adv-x="1375" d="M149 0v1065h141v-405h291q149 0 252.5 -92.5t103.5 -237.5t-103.5 -237.5t-252.5 -92.5h-432zM290 136h291q90 0 153 53t63 140.5t-63 141t-153 53.5h-291v-388zM1086 0v1065h141v-1065h-141z" />
<glyph unicode="&#x44c;" horiz-adv-x="1000" d="M149 0v1065h141v-405h291q149 0 252.5 -92.5t103.5 -237.5t-103.5 -237.5t-252.5 -92.5h-432zM290 136h291q90 0 153 53t63 140.5t-63 141t-153 53.5h-291v-388z" />
<glyph unicode="&#x44d;" horiz-adv-x="1147" d="M43 256l121 70q37 -98 130.5 -157t229.5 -59q160 0 266 99.5t128 254.5h-530v137h530q-18 156 -124 255t-266 99q-121 0 -215 -58t-138 -155l-124 69q63 130 190 205t287 75q241 0 388 -159t147 -399.5t-148.5 -399.5t-390.5 -159q-172 0 -299 76t-182 206z" />
<glyph unicode="&#x44e;" horiz-adv-x="1703" d="M149 0v1065h141v-464h222q24 211 177.5 350.5t369.5 139.5q234 0 396.5 -161t162.5 -397.5t-162.5 -397.5t-396.5 -161q-216 0 -370 140t-177 350h-222v-464h-141zM639 532.5q0 -176.5 121.5 -299.5t298.5 -123t298 123t121 299.5t-121 299.5t-298 123t-298.5 -123 t-121.5 -299.5z" />
<glyph unicode="&#x44f;" horiz-adv-x="1064" d="M85 0l337 413q-128 19 -211 106.5t-83 215.5q0 145 103.5 237.5t252.5 92.5h432v-1065h-141v409h-183l-328 -409h-179zM268 735.5q0 -87.5 63 -141t153 -53.5h291v388h-291q-90 0 -153 -53t-63 -140.5z" />
<glyph unicode="&#x451;" horiz-adv-x="1243" d="M85 532q0 239 155 399t401 160q236 0 382 -167.5t146 -395.5q0 -24 -4 -66h-935q21 -162 137.5 -257t286.5 -95q122 0 210 50.5t132 131.5l124 -73q-71 -113 -192 -179t-276 -66q-252 0 -409.5 158t-157.5 400zM230 598h794q-20 168 -129.5 262.5t-253.5 94.5 q-167 0 -278 -99.5t-133 -257.5zM330 1320.5q0 40.5 28 68t68.5 27.5t68 -27.5t27.5 -68t-27.5 -68t-68 -27.5t-68.5 27.5t-28 68zM735 1320.5q0 40.5 27.5 68t68.5 27.5t68.5 -27.5t27.5 -68t-27.5 -68t-68.5 -27.5t-68.5 27.5t-27.5 68z" />
<glyph unicode="&#x452;" horiz-adv-x="1209" d="M21 1227v115h150v149h140v-149h307v-115h-307v-328q120 192 358 192q193 0 305 -118.5t112 -318.5v-739q0 -192 -100 -288t-283 -78v136q126 -13 184 40t58 190v739q0 143 -75 222t-214 79q-153 0 -249 -97.5t-96 -299.5v-558h-140v1227h-150z" />
<glyph unicode="&#x453;" horiz-adv-x="851" d="M149 0v1065h682v-136h-541v-929h-141zM332 1214l170 277h171l-204 -277h-137z" />
<glyph unicode="&#x454;" horiz-adv-x="1147" d="M85 532.5q0 240.5 147.5 399.5t387.5 159q160 0 286.5 -75t190.5 -205l-124 -69q-44 97 -137.5 155t-215.5 58q-160 0 -265 -99.5t-125 -254.5h530v-137h-530q21 -156 127.5 -255t266.5 -99q136 0 229.5 59t130.5 157l122 -70q-56 -130 -182.5 -206t-299.5 -76 q-242 0 -390.5 159t-148.5 399.5z" />
<glyph unicode="&#x455;" horiz-adv-x="966" d="M85 219l120 71q30 -83 107.5 -131.5t183.5 -48.5q104 0 175 41.5t71 129.5q0 73 -64 115.5t-155.5 66t-183 52t-155.5 95.5t-64 176q0 130 103 217.5t261 87.5q130 0 227.5 -59t144.5 -158l-117 -69q-61 149 -255 150q-92 0 -158 -44t-66 -125q0 -73 64 -115.5t155.5 -66 t183 -52t155.5 -95.5t64 -176q0 -136 -107.5 -221.5t-278.5 -85.5q-153 0 -260.5 68t-150.5 177z" />
<glyph unicode="&#x456;" horiz-adv-x="437" d="M118 1392.5q0 42.5 29.5 73t72 30.5t72 -30.5t29.5 -73t-29.5 -72t-72 -29.5t-72 29.5t-29.5 72zM149 0v1065h141v-1065h-141z" />
<glyph unicode="&#x457;" horiz-adv-x="437" d="M-79 1320.5q0 40.5 27.5 68t68 27.5t68.5 -27.5t28 -68t-28 -68t-68.5 -27.5t-68 27.5t-27.5 68zM149 0v1065h141v-1065h-141zM326 1320.5q0 40.5 28 68t68 27.5t68 -27.5t28 -68t-28 -68t-68 -27.5t-68 27.5t-28 68z" />
<glyph unicode="&#x458;" horiz-adv-x="489" d="M-43 -315q126 -13 185 40t59 190v1150h140v-1150q0 -192 -100.5 -288t-283.5 -78v136zM168 1392.5q0 42.5 30 73t72.5 30.5t72 -30.5t29.5 -73t-29.5 -72t-72 -29.5t-72.5 29.5t-30 72z" />
<glyph unicode="&#x459;" horiz-adv-x="1679" d="M21 0v132q121 -12 180 58t59 263v612h742v-447h280q143 0 238.5 -83.5t95.5 -226t-95.5 -225.5t-238.5 -83h-422v929h-460v-476q0 -266 -101 -365.5t-278 -87.5zM1002 136h280q86 0 140 44t54 129t-54 129t-140 44h-280v-346z" />
<glyph unicode="&#x45a;" horiz-adv-x="1679" d="M149 0v1065h141v-447h570v447h142v-447h280q143 0 238.5 -83.5t95.5 -226t-95.5 -225.5t-238.5 -83h-422v482h-570v-482h-141zM1002 136h280q86 0 140 44t54 129t-54 129t-140 44h-280v-346z" />
<glyph unicode="&#x45b;" horiz-adv-x="1209" d="M21 1227v115h150v149h140v-149h307v-115h-307v-328q120 192 358 192q193 0 305 -118.5t112 -318.5v-654h-141v654q0 143 -75 222t-214 79q-153 0 -249 -97.5t-96 -299.5v-558h-140v1227h-150z" />
<glyph unicode="&#x45c;" horiz-adv-x="1051" d="M149 0v1065h141v-471l507 471h191l-549 -512l571 -553h-187l-533 514v-514h-141zM417 1214l171 277h170l-205 -277h-136z" />
<glyph unicode="&#x45e;" horiz-adv-x="1085" d="M21 1065h150l400 -892l345 892h149l-456 -1163q-61 -158 -175.5 -248.5t-254.5 -79.5v132q191 -21 292 221l27 67zM262 1236v123h553v-123h-553z" />
<glyph unicode="&#x45f;" horiz-adv-x="1191" d="M149 0v1065h141v-929h613v929h141v-1065h-377v-285h-141v285h-377z" />
<glyph unicode="&#x490;" horiz-adv-x="1043" d="M171 0v1491h681v255h150v-396h-683v-1350h-148z" />
<glyph unicode="&#x491;" horiz-adv-x="851" d="M149 0v1065h542v221h140v-357h-541v-929h-141z" />
<glyph unicode="&#x2000;" horiz-adv-x="958" />
<glyph unicode="&#x2001;" horiz-adv-x="1917" />
<glyph unicode="&#x2002;" horiz-adv-x="958" />
<glyph unicode="&#x2003;" horiz-adv-x="1917" />
<glyph unicode="&#x2004;" horiz-adv-x="639" />
<glyph unicode="&#x2005;" horiz-adv-x="479" />
<glyph unicode="&#x2006;" horiz-adv-x="319" />
<glyph unicode="&#x2007;" horiz-adv-x="319" />
<glyph unicode="&#x2008;" horiz-adv-x="239" />
<glyph unicode="&#x2009;" horiz-adv-x="383" />
<glyph unicode="&#x200a;" horiz-adv-x="106" />
<glyph unicode="&#x2010;" horiz-adv-x="1106" d="M171 590v136h766v-136h-766z" />
<glyph unicode="&#x2011;" horiz-adv-x="1106" d="M171 590v136h766v-136h-766z" />
<glyph unicode="&#x2012;" horiz-adv-x="1106" d="M171 590v136h766v-136h-766z" />
<glyph unicode="&#x2013;" horiz-adv-x="1405" d="M171 590v136h1065v-136h-1065z" />
<glyph unicode="&#x2014;" horiz-adv-x="1618" d="M171 590v136h1278v-136h-1278z" />
<glyph unicode="&#x2018;" horiz-adv-x="510" d="M128 1012l128 479h128l-86 -479h-170z" />
<glyph unicode="&#x2019;" horiz-adv-x="510" d="M128 1012l85 479h171l-128 -479h-128z" />
<glyph unicode="&#x201a;" horiz-adv-x="510" d="M128 -298l85 479h171l-128 -479h-128z" />
<glyph unicode="&#x201c;" horiz-adv-x="809" d="M128 1012l128 479h128l-86 -479h-170zM426 1012l127 479h128l-85 -479h-170z" />
<glyph unicode="&#x201d;" horiz-adv-x="809" d="M128 1012l85 479h171l-128 -479h-128zM426 1012l86 479h169l-128 -479h-127z" />
<glyph unicode="&#x201e;" horiz-adv-x="809" d="M128 -298l85 479h171l-128 -479h-128zM426 -298l86 479h169l-128 -479h-127z" />
<glyph unicode="&#x2020;" horiz-adv-x="1022" d="M128 1004v136h313v351h140v-351h313v-136h-313v-1004h-140v1004h-313z" />
<glyph unicode="&#x2021;" horiz-adv-x="1022" d="M128 352v136h313v516h-313v136h313v351h140v-351h313v-136h-313v-516h313v-136h-313v-352h-140v352h-313z" />
<glyph unicode="&#x2022;" horiz-adv-x="638" d="M106 748q0 87 63 149t152 62q88 0 149.5 -62t61.5 -149q0 -90 -61.5 -153t-149.5 -63q-89 0 -152 63t-63 153z" />
<glyph unicode="&#x2026;" horiz-adv-x="1298" d="M128 96q0 49 34 83t83 34t83 -34t34 -83t-34 -83t-83 -34t-83 34t-34 83zM532 96q0 49 34.5 83t83.5 34t82.5 -34t33.5 -83t-33.5 -83t-82.5 -34t-83.5 34t-34.5 83zM937 96q0 49 34.5 83t83 34t82.5 -34t34 -83t-34 -83t-82.5 -34t-83 34t-34.5 83z" />
<glyph unicode="&#x202f;" horiz-adv-x="383" />
<glyph unicode="&#x2030;" horiz-adv-x="2266" d="M128 1197q0 134 93.5 226.5t232 92.5t232.5 -92.5t94 -226.5t-92 -226.5t-235 -92.5q-138 0 -231.5 92.5t-93.5 226.5zM203 203l998 1122l92 -51l-1001 -1123zM264 1197q0 -81 53 -136t136.5 -55t136.5 55t53 136t-53 136t-136.5 55t-136.5 -55t-53 -136zM730 294 q0 134 94 227t232.5 93t232 -93t93.5 -227t-93.5 -227t-232 -93t-232.5 93t-94 227zM867 293.5q0 -80.5 53 -136t136.5 -55.5t136.5 55.5t53 136t-53 136.5t-136.5 56t-136.5 -56t-53 -136.5zM1487 294q0 134 93.5 227t232 93t232 -93t93.5 -227t-93.5 -227t-232 -93 t-232 93t-93.5 227zM1623 293.5q0 -80.5 53.5 -136t136.5 -55.5t136 55.5t53 136t-53 136.5t-136 56t-136.5 -56t-53.5 -136.5z" />
<glyph unicode="&#x2039;" horiz-adv-x="706" d="M149 658l235 383h174l-235 -383l235 -383h-174z" />
<glyph unicode="&#x203a;" horiz-adv-x="706" d="M149 275l235 383l-235 383h174l235 -383l-235 -383h-174z" />
<glyph unicode="&#x2044;" horiz-adv-x="468" d="M-256 0l852 1491h128l-852 -1491h-128z" />
<glyph unicode="&#x205f;" horiz-adv-x="479" />
<glyph unicode="&#x20ac;" horiz-adv-x="1264" d="M43 567v124h148v55q0 49 2 71h-150v124h164q38 266 185 420.5t374 154.5q159 0 274.5 -75t171.5 -212l-123 -70q-90 213 -323 213q-162 0 -269 -112t-141 -319h538v-124h-551q-2 -23 -2 -71q0 -39 2 -55h551v-124h-540q32 -215 139 -331t273 -116q114 0 198 55t125 160 l123 -71q-56 -138 -171.5 -214t-274.5 -76q-231 0 -378.5 159t-184.5 434h-160z" />
<glyph unicode="&#x2122;" horiz-adv-x="990" d="M85 1412v79h330v-79h-121v-347h-85v347h-124zM467 1065v426h84l134 -213l135 213h85v-426h-85v283l-129 -206h-10l-130 206v-283h-84z" />
<glyph unicode="&#x2202;" horiz-adv-x="1226" d="M106 426q0 220 130 355t358 135q197 0 363 -113q-13 242 -134.5 408.5t-328.5 166.5q-153 0 -279 -75v136q119 77 279 77q258 0 431.5 -212.5t173.5 -557.5q0 -362 -155.5 -567t-396.5 -205q-205 0 -323 128t-118 324zM248 426q0 -138 76 -227t223 -89q173 0 283.5 146 t126.5 404q-153 120 -363 120q-160 0 -253 -92t-93 -262z" />
<glyph unicode="&#x220f;" horiz-adv-x="1362" d="M171 -426v1917h1022v-1917h-141v1781h-741v-1781h-140z" />
<glyph unicode="&#x2211;" horiz-adv-x="1149" d="M106 -287l512 840l-480 797v141h917v-136h-757l484 -802l-514 -843h818v-136h-980v139z" />
<glyph unicode="&#x221a;" horiz-adv-x="1370" d="M128 502v137h268l271 -468l513 1533h149l-573 -1704h-149l-292 502h-187z" />
<glyph unicode="&#x221e;" horiz-adv-x="1703" d="M118 745.5q0 144.5 97.5 242.5t244.5 98q207 0 392 -234q185 234 392 234q146 0 244.5 -98t98.5 -242.5t-98.5 -242.5t-244.5 -98q-207 0 -392 234q-185 -234 -392 -234q-147 0 -244.5 98t-97.5 242.5zM256 745.5q0 -93.5 57 -153.5t149 -60q156 0 309 214 q-153 213 -309 213q-92 0 -149 -60t-57 -153.5zM935 746q153 -214 309 -214q91 0 149 60t58 153.5t-58 153.5t-149 60q-156 0 -309 -213z" />
<glyph unicode="&#x222b;" horiz-adv-x="934" d="M0 -294q115 -43 183.5 -3.5t84.5 148.5l232 1363q32 189 144 259.5t291 22.5v-137q-256 86 -294 -145l-232 -1363q-33 -187 -141 -258.5t-268 -23.5v137z" />
<glyph unicode="&#x2248;" horiz-adv-x="1264" d="M128 498q55 179 190 219.5t347 -83.5q106 -65 177.5 -73t107.5 29.5t60 120.5l128 -59q-55 -181 -188 -221.5t-349 85.5q-164 93 -237.5 70t-107.5 -147zM128 839q55 179 190 219.5t347 -82.5q106 -66 177.5 -74t107.5 29.5t60 120.5l128 -60q-55 -181 -187.5 -221.5 t-349.5 85.5q-164 94 -237.5 70.5t-107.5 -146.5z" />
<glyph unicode="&#x2260;" horiz-adv-x="1149" d="M128 464v137h330l128 289h-458v136h520l140 316h106l-140 -316h268v-136h-329l-128 -289h457v-137h-520l-140 -315h-106l140 315h-268z" />
<glyph unicode="&#x2264;" horiz-adv-x="1106" d="M128 213v136h852v-136h-852zM128 805v140l852 333v-158l-675 -244l675 -246v-157z" />
<glyph unicode="&#x2265;" horiz-adv-x="1106" d="M128 213v136h852v-136h-852zM128 473v157l675 246l-675 244v158l852 -333v-140z" />
<glyph unicode="&#x25ca;" horiz-adv-x="1149" d="M106 746l396 745h146l396 -745l-396 -746h-146zM258 746l317 -595l317 595l-317 594z" />
<glyph unicode="&#x25fc;" horiz-adv-x="1064" d="M0 0v1065h1065v-1065h-1065z" />
</font>
</defs>
</svg>
